<svg width="24" height="24" viewBox="0 0 24 24" fill="none" xmlns="http://www.w3.org/2000/svg">
<path d="M19.996 8.917C19.953 8.398 19.52 8 19 8H17V7C17 4.243 14.757 2 12 2C9.24299 2 6.99999 4.243 6.99999 7V8H4.99999C4.47999 8 4.04699 8.398 4.00399 8.917L3.00399 20.917C2.98099 21.195 3.07399 21.472 3.26399 21.677C3.45299 21.883 3.72099 22 3.99999 22H20C20.279 22 20.547 21.883 20.736 21.677C20.925 21.472 21.019 21.196 20.996 20.917L19.996 8.917ZM8.99999 7C8.99999 5.346 10.346 4 12 4C13.654 4 15 5.346 15 7V8H8.99999V7ZM5.08699 20L5.91999 10H6.99999V13H8.99999V10H15V13H17V10H18.08L18.913 20H5.08699Z" fill="#FFAB15"/>
</svg>
