<svg xmlns="http://www.w3.org/2000/svg" viewBox="0 0 1125.751 185.12"><path d="M307.6,84.657h-.351L291.777,140.2H266.816l-22.5-87.89h22.324l13.711,56.073h.351l15.644-56.073H318.5l15.644,56.073h.352L348.2,52.314h22.324l-22.5,87.89H323.066Z" fill="#ffa800"/><path d="M402.428,141.082l-20.39-11.776V98.9l20.39-11.777H430.9V72.881H390.826V52.314H434.6l20.391,11.777v76.991h-11.6l-12.48-7.207-12.48,7.207Zm3.691-35.507v15.293H430.9V105.575Z" fill="#ffa800"/><path d="M474.321,72.881V52.314h16.172V23.663l20.39-11.778H533.91V32.451H514.575V52.314H533.91V72.881H514.575V140.2H490.493V72.881Z" fill="#ffa800"/><path d="M549.466,72.881V52.314h16.172V23.663l20.39-11.778h23.027V32.451H589.719V52.314h19.336V72.881H589.719V140.2H565.638V72.881Z" fill="#ffa800"/><path d="M648.781,140.2,628.39,128.426V11.885h24.082V119.638H670.05V140.2Z" fill="#ffa800"/><path d="M760.576,119.638V140.2H708.018l-20.39-11.778V63.213l20.39-11.778h32.168l20.39,11.778v42.01H711.709v14.415ZM711.709,72V87.118H736.5V72Z" fill="#ffa800"/><path d="M807.858,72.881v46.757h43.594V140.2H804.167l-20.39-11.778V64.091l20.39-11.777h47.285V72.881Z" fill="#ffa800"/><path d="M949.975,129.306l-20.39,11.776H892.143l-20.39-11.776V63.213l20.39-11.778h37.442l20.39,11.778ZM895.834,72v48.515h30.059V72Z" fill="#ffa800"/><path d="M1028.2,72.881H997.96V140.2H973.879V52.314h19.863l4.218,7.207,12.481-7.207H1028.2Z" fill="#ffa800"/><path d="M1105.36,141.082h-23.027l-12.48-7.207V175.36h-24.082V51.435h19.863l4.219,7.207,12.48-7.207h23.027l20.391,11.778v66.093ZM1069.853,72v48.515h31.816V72Z" fill="#ffa800"/><path d="M184.68,29.12,156,.44A34.776,34.776,0,0,0,150.47,0H34.64a34.65,34.65,0,0,0-5.52.44L.44,29.12A34.776,34.776,0,0,0,0,34.65V150.47a34.55,34.55,0,0,0,.33,4.8l29.52,29.52a34.3,34.3,0,0,0,4.79.33H150.47a34.55,34.55,0,0,0,4.8-.33l29.52-29.52a34.55,34.55,0,0,0,.33-4.8V34.65A34.776,34.776,0,0,0,184.68,29.12ZM135.73,24.6A80.8,80.8,0,0,1,160.7,49.69H135.73ZM49.38,160.51A80.923,80.923,0,0,1,24.8,136.04H49.38Zm0-34.47H19.33a80.024,80.024,0,0,1-7.1-28.17H49.38Zm0-38.17H12.19a79.964,79.964,0,0,1,6.87-28.18H49.38Zm0-38.18H24.42A80.951,80.951,0,0,1,49.38,24.61ZM87.56,172.91a80.231,80.231,0,0,1-28.18-6.98V136.04H87.56Zm0-46.87H59.38V97.87H87.56Zm0-38.17H59.38V59.69H87.56Zm0-38.18H59.38V19.19a80.231,80.231,0,0,1,28.18-6.98Zm38.17,116.24a80.231,80.231,0,0,1-28.17,6.98V136.04h28.17Zm0-39.89H97.56V97.87h28.17Zm0-38.17H97.56V59.69h28.17Zm0-38.18H97.56V12.21a80.231,80.231,0,0,1,28.17,6.98Zm10,110.83V136.04h24.59A80.988,80.988,0,0,1,135.73,160.52Zm30.06-34.48H135.73V97.87h37.16A80.024,80.024,0,0,1,165.79,126.04ZM135.73,87.87V59.69h30.33a79.964,79.964,0,0,1,6.87,28.18Z" fill="#ffa800"/></svg>