<?xml version="1.0" encoding="utf-8"?>
<!-- Generator: Adobe Illustrator 26.0.2, SVG Export Plug-In . SVG Version: 6.00 Build 0)  -->
<svg version="1.1" id="Layer_1" xmlns="http://www.w3.org/2000/svg" xmlns:xlink="http://www.w3.org/1999/xlink" x="0px" y="0px"
	 viewBox="0 0 1093.2 1113.8" style="enable-background:new 0 0 1093.2 1113.8;" xml:space="preserve">
<style type="text/css">
	.st0{fill:#FFFFFF;}
	.st1{fill:none;}
	.st2{fill:#4866FF;}
	.st3{fill:#3055F2;}
	.st4{fill:none;stroke:#FFFFFF;stroke-width:9.211;stroke-linecap:round;stroke-linejoin:round;}
	.st5{fill:none;stroke:#FFFFFF;stroke-width:9.211;stroke-linecap:round;stroke-miterlimit:10;}
	.st6{fill:#7D9CFF;}
	.st7{fill:#7D9CFF;stroke:#FFFFFF;stroke-width:9.162;stroke-linecap:round;stroke-miterlimit:10;}
	.st8{fill:#A6BFFF;}
	.st9{fill:none;stroke:#FFFFFF;stroke-width:11.575;stroke-linecap:round;stroke-miterlimit:10;}
	.st10{fill:none;stroke:#FFFFFF;stroke-width:9.162;stroke-linecap:round;stroke-miterlimit:10;}
	.st11{fill:#7D9CFF;stroke:#FFFFFF;stroke-width:4.88;stroke-linecap:round;stroke-miterlimit:10;}
</style>
<path class="st0" d="M547.5,1113.8c-73.7,0-145.1-14.4-212.4-42.9c-65-27.5-123.3-66.8-173.5-116.9
	c-50.1-50.1-89.5-108.5-116.9-173.5C16.2,713.2,1.8,641.7,1.8,568c0-73.7,14.4-145.1,42.9-212.4c27.5-65,66.8-123.3,116.9-173.5
	C211.7,132,270.1,92.7,335,65.2c67.3-28.5,138.8-42.9,212.4-42.9s145.1,14.4,212.4,42.9c65,27.5,123.3,66.8,173.5,116.9
	c50.1,50.1,89.5,108.5,116.9,173.5c28.5,67.3,42.9,138.8,42.9,212.4c0,73.7-14.4,145.1-42.9,212.4c-27.5,65-66.8,123.3-116.9,173.5
	c-50.1,50.1-108.5,89.5-173.5,116.9C692.6,1099.3,621.1,1113.8,547.5,1113.8z M547.5,75.9c-66.4,0-130.9,13-191.5,38.7
	c-58.6,24.8-111.2,60.3-156.4,105.5c-45.2,45.2-80.7,97.8-105.5,156.4C68.4,437.1,55.3,501.6,55.3,568c0,66.4,13,130.9,38.7,191.5
	c24.8,58.6,60.3,111.2,105.5,156.4s97.8,80.7,156.4,105.5c60.7,25.7,125.1,38.7,191.5,38.7s130.9-13,191.5-38.7
	c58.6-24.8,111.2-60.3,156.4-105.5s80.7-97.8,105.5-156.4c25.7-60.7,38.7-125.1,38.7-191.5c0-66.4-13-130.9-38.7-191.5
	c-24.8-58.6-60.3-111.2-105.5-156.4S797.6,139.4,739,114.6C678.4,88.9,613.9,75.9,547.5,75.9z"/>
<path class="st1" d="M1044.5,566.2c0,96.6-27.5,186.7-75.2,263c-16.9,27.1-36.3,52.4-57.9,75.6c-9,9.7-18.5,19.1-28.2,28
	c-15.9,14.6-32.8,28.2-50.5,40.6c-4.5,3.2-9.1,6.2-13.6,9.3c-78.1,51.1-171.5,80.8-271.9,80.8c-120.5,0-231-42.9-317.1-114.2
	c-1.7-1.4-3.4-2.8-5-4.2c0,0,0,0,0,0c-12.6-10.7-24.6-22-36.1-33.9c-5.4-5.6-10.6-11.3-15.8-17.1c-11.5-13.1-22.3-26.7-32.3-40.9
	c-8.8-12.4-17-25.2-24.6-38.4c-42.3-73.1-66.5-158-66.5-248.6c0-27.9,2.3-55.2,6.7-81.8c25.3-153.1,120.7-282.6,252-354.6
	c39.6-21.7,82.4-38.1,127.5-48.5c24.9-5.7,50.6-9.5,76.8-11.3c11.3-0.8,22.8-1.2,34.3-1.2c1.2,0,2.4,0,3.6,0c0,0,0,0,0,0
	c14,0.1,27.8,0.8,41.6,2c23.6,2.1,46.6,5.9,69.2,11.2h0c23.6,5.5,46.5,12.8,68.7,21.5c1.2,0.5,2.5,1,3.7,1.5
	c12.3,5,24.4,10.5,36.2,16.4c21.5,10.8,42.2,23.1,61.8,36.8c1.9,1.3,3.8,2.7,5.7,4c19.2,13.8,37.4,29,54.5,45.4
	c43.1,41.4,78.7,90.5,104.6,145c16,33.5,28.3,69.2,36.4,106.3c3.1,14.2,5.6,28.5,7.5,43.1C1043.1,523.1,1044.5,544.5,1044.5,566.2z"
	/>
<g>
	<circle class="st2" cx="547.1" cy="566.2" r="494.7"/>
	<path class="st3" d="M1032.9,459.1c3.1,14.1,5.6,28.5,7.5,43.1c2.7,21,4.1,42.4,4.1,64.1c0,96.6-27.5,186.7-75.2,263
		c-16.9,27-36.3,52.4-57.9,75.6c-9,9.7-18.5,19.1-28.2,28c-15.9,14.6-32.8,28.2-50.5,40.6c-0.8-0.5-1.5-1.1-2.3-1.6
		c-7.3-5.4-13.5-12.5-18.1-21c-4.4-8.2-6.9-17.4-7.4-26.7c-13.8-0.4-26.8-3.5-38.7-8.8c-27.4-12.2-48.4-36.1-56.8-65.2v0
		c-2.9-10-4.3-20.7-4-31.7c1.1-35.9,20.9-68.6,52.2-86.3c-10.2-13.4-16.3-29.3-17.6-45.9c-0.3-4-0.4-8-0.1-12.1
		c-9.5-0.2-18.4-2.4-26.4-6.3c-17.4-8.5-30.3-24.7-34.4-44c-1-4.6-1.4-9.3-1.3-14.2c0-2.5,0.2-5,0.6-7.4
		c-29.3,7.3-60.3,3.8-87.3-9.9c-16.2-8.2-30-19.4-40.8-32.6c-28.7-34.9-37.4-83.6-19.8-127.3c0,0,0,0,0,0c1.3-3.3,2.8-6.5,4.4-9.8
		c3.4-6.7,7.3-13.1,11.8-19c11.2-14.9,25.5-27.2,42.2-35.9c-3.5-2.6-6.7-5.4-9.5-8.4c-25.9-27-29.3-69.5-6.2-100.4
		c2.4-3.2,5.1-6.3,8-9.1c5.1-5,10.9-9.3,17.2-12.7c1.8-1,3.6-1.9,5.5-2.7l-0.4-1.2l128-42.1l3-1l28.7-9.4l65.6-21.6l3.1-1l10.7-3.5
		c-1.8,2.4-3.4,5-5,7.5c19.2,13.8,37.4,29,54.5,45.4c43.1,41.4,78.7,90.5,104.6,145.1L1032.9,459.1z"/>
	<path class="st3" d="M1044.5,566.2c0,96.6-27.5,186.7-75.2,263c-16.9,27.1-36.3,52.4-57.9,75.6c-9,9.7-18.5,19.1-28.2,28
		c-15.9,14.6-32.8,28.2-50.5,40.6c-4.5,3.2-9.1,6.2-13.6,9.3c-78.1,51.1-171.5,80.8-271.9,80.8c-120.5,0-231-42.9-317.1-114.2
		c-1.7-1.4-3.4-2.8-5-4.2c0,0,0,0,0,0c-12.6-10.7-24.6-22-36.1-33.9c-5.4-5.6-10.6-11.3-15.8-17.1c-11.5-13.1-22.3-26.7-32.3-40.9
		l-24.6-38.4c-42.3-73.1-66.5-158-66.5-248.6c0-27.9,2.3-55.2,6.7-81.8c1-0.6,2-1.2,3-1.9h0c5.3-3.2,10.7-6.3,16.3-9.1
		c13.4-6.8,27.4-12.4,42.1-16.6c21.2-6.1,43.7-9.4,66.9-9.4c6.5,0,12.9,0.3,19.3,0.8c7,0.6,13.9,1.4,20.7,2.6
		c5.7,1,11.3,2.1,16.9,3.5C308,470.3,363.7,514,395.7,572.6c4.5,8.2,8.5,16.7,12,25.4c4.4,11,8,22.4,10.8,34.1
		c50.8-34.8,120.3-21.8,155.1,29c4,5.9,7.5,12.1,10.3,18.7c26.4-28.4,59.6-47.1,95-55.8c37-9.1,76.3-7.2,112.9,6.4
		c10.4,3.8,20.5,8.6,30.3,14.3c3.6,2.1,7.1,4.3,10.6,6.7c-0.8-4.4-1.3-8.9-1.7-13.2v0c-1-12.2-0.3-24.3,1.8-36
		c4.5-25.2,15.7-48.5,32.1-67.5c11.7-13.7,26-25.1,42.4-33.6c12.6-6.5,26.4-11.3,41.1-13.8c21.7-3.8,43-2.4,62.8,3.2
		c9.1,2.6,17.9,6.1,26.2,10.4c1,0.5,1.9,1,2.9,1.5C1043.1,523.1,1044.5,544.5,1044.5,566.2z"/>
	<path class="st2" d="M969.3,829.3c-16.9,27.1-36.3,52.4-57.9,75.6c-9,9.7-18.5,19.1-28.2,28c-15.9,14.6-32.8,28.2-50.5,40.6
		c-4.5,3.2-9.1,6.2-13.6,9.3c-78.1,51.1-171.5,80.8-271.9,80.8c-120.5,0-231-42.9-317.1-114.2c-1.7-1.4-3.4-2.8-5-4.2c0,0,0,0,0,0
		c-12.6-10.7-24.6-22-36.1-33.9c-5.4-5.6-10.6-11.3-15.8-17.1c-11.5-13.1-22.3-26.7-32.3-40.9l-24.6-38.4c0.1-1.5,0.2-3.1,0.4-4.6
		c1.9-17.2,8.9-33.5,20.1-46.8c22.6-27,57.9-37,89.8-28.6c12.2,3.2,23.9,9.1,34.3,17.7c0.2-2.6,0.5-5.1,0.9-7.6
		c7-40.2,45.2-67,85.3-60.1c40.1,7,67,45.2,60.1,85.3c40.9-27.6,95.7-21.3,129.3,14.8c1.5-3.4,3.3-6.7,5.4-9.7
		c18.1-26.4,54.2-33.2,80.6-15.1c11-46.1,46.7-81,91.1-92.2c9.8-2.5,20-3.8,30.5-3.8c8.5,0,16.8,0.8,24.9,2.5
		c57.1,11.5,100.1,62,100.1,122.5c0,0.7,0,1.4,0,2.1c6.7-1.4,13.4-2.1,20.2-2.1c19.6,0,38,5.6,53.4,15.4c9.6,6,18.1,13.7,25.1,22.6
		C968.2,827.8,968.7,828.5,969.3,829.3z"/>
	<path class="st4" d="M195.6,754.5c18.3-2.4,36.8,3,50.9,14.9l33.4,28l2.9-43.5"/>
	<path class="st5" d="M636.4,796.6l7.4-31.4c10.9-46.4,52.4-79.1,100-79"/>
	<path class="st3" d="M756.9,219.1c22.3,59.2,7.4,124.8-34.9,168.6c-11.2,11.7-24.4,21.8-39.4,29.9c-2.2,1.2-4.4,2.3-6.6,3.4
		c-22.8,11-47.5,16.3-72.2,16h0c-8.7-0.1-17.4-1-26.1-2.5c-13.8-2.4-27.3-6.7-40.2-12.8c-2.2,3.8-4.6,7.5-7.2,10.9c0,0,0,0,0,0
		c-17,22.8-41.6,38.6-69.3,44.5c-5.8,1.2-11.6,2-17.6,2.4c7.9,44.7-6.7,88.1-35.7,118.7c-19.5,20.5-45.4,35.2-75.4,40.5
		c-22.6,4-45.2,2.2-66.1-4.5c-33.9-10.9-63.2-34.9-80.2-68.2c-1.1,0.1-2.2,0.2-3.3,0.3c-12.8,1.1-25.2-0.3-36.9-3.8
		c-36.4-11-64.8-42.5-69.6-82.7c-0.2-2.1-0.4-4.2-0.6-6.2c-3-51.6,34.7-97.3,86.7-103.6c21.2-2.6,42.7,1.8,61.2,12.5
		c3.3,1.9,6.4,3.9,9.4,6.2c3-2,6.1-3.8,9.2-5.5l0,0c23.7-13,50.7-18.8,77.7-16.5c-1.3-39.1,16.8-74.4,45.6-96.5h0
		c2.9-2.2,5.9-4.4,9-6.3c7-4.4,14.5-8.1,22.4-10.9c9.1-3.3,18.7-5.5,28.8-6.4c0,0,0,0,0,0l0,0c2.4-0.2,4.8-0.4,7.2-0.5
		c4.9-0.2,9.9,0,14.8,0.4c6.5-34.6,24-66.1,50-89.8c-4.6-29.8,0.8-58.8,13.6-83.7v0c0.5-0.9,1-1.8,1.5-2.7
		c11.3-0.8,22.8-1.2,34.3-1.2c1.2,0,2.4,0,3.6,0c0,0,0,0,0,0c14,0.1,27.8,0.8,41.6,2c23.6,2.1,46.6,5.9,69.2,11.2h0
		c23.6,5.5,46.5,12.8,68.7,21.5c1.2,0.5,2.5,1,3.7,1.5c12.3,5,24.4,10.5,36.2,16.4c0.1,1,0.2,2.1,0.3,3.1c1.5,19.1-1,38.3-7.2,56.3
		c-2.8,8.1-6.4,15.9-10.7,23.3c-0.3,0.5-0.6,1.1-1,1.6C753.4,210.2,755.3,214.6,756.9,219.1z"/>
	<path class="st2" d="M996.4,352.7c-26-54.6-61.6-103.6-104.6-145.1c-17-16.4-35.2-31.6-54.5-45.4c1.6-2.6,3.3-5.1,5-7.5l-10.7,3.5
		c-19.6-13.7-40.2-26-61.8-36.8c-11.8-5.9-23.9-11.4-36.2-16.4c-1.2-0.5-2.5-1-3.7-1.5c-22.2-8.8-45.1-16-68.7-21.5h0
		c-22.5-5.3-45.6-9.1-69.2-11.2c-13.7-1.2-27.5-1.9-41.5-2c0,0,0,0,0,0c-1.2,0-2.4,0-3.5,0c-11.5,0-23,0.4-34.3,1.2
		c-26.2,1.8-51.9,5.6-76.8,11.3c-45.2,10.3-88,26.8-127.5,48.5c0,1,0,2,0.1,3c2,41.3,36.3,74.1,78.1,73.8
		c-8.5,17.9-12.5,37.5-12,57.1c0.1,1.7,0.1,3.4,0.2,5.2c0.3,4.7,0.9,9.4,1.8,14.1c12.6,68.6,78.4,114,147.1,101.4
		c20.4-3.7,39.4-12.3,55.5-25c7.4-5.8,14.1-12.4,20.1-19.8c1.2,2.2,2.6,4.3,4,6.3c20.6,28.3,60.2,34.6,88.5,14
		c7.8,11.6,18.2,21.1,30.2,27.8c5.9,3.3,12.3,5.9,18.9,7.7c-14.3,33-10.4,71,10.4,100.3c26.2,37,72.5,51.4,113.6,38.9
		c10.3-3.1,20.3-7.9,29.5-14.5c6,7.2,13.5,12.9,22,16.8c31.8,14.6,69.4,0.8,84-31l10.7-15.5l19.6-28.3l2.1-3L996.4,352.7z"/>
	<path class="st5" d="M428.7,335.3c-32.2-30.9-41.1-78.9-22.2-119.4"/>
	<path class="st5" d="M697.4,328.4L678.8,342c-5,3.6-10.7,6.1-16.8,7.2c-2.5,0.5-5,0.7-7.5,0.7c-12.3,0-24-5.5-31.8-15"/>
	<path class="st5" d="M849.7,515.4c-4.8,0.9-9.8,1.3-14.7,1.3c-38.9,0-72.2-27.8-79.2-66"/>
	<path class="st5" d="M898.4,490.2l-16.6,11.7c-9.6,6.8-20.5,11.3-32,13.4"/>
	<path class="st5" d="M971.5,509.1c-5.8,5.6-13.1,9.3-21.1,10.8c-2.5,0.5-5,0.7-7.5,0.7c-12.2,0-23.7-5.4-31.5-14.7l-13.1-15.6"/>
	<path class="st6" d="M739.7,148.9c0,13.5-2.4,26.5-6.8,38.4v0c-0.5,1.3-1,2.6-1.5,3.9c-16.7,40.5-56.5,69.1-103.1,69.1
		c-16.9,0-32.8-3.7-47.2-10.4c-38-17.8-64.3-56.3-64.3-101c0-30.1,11.9-57.4,31.3-77.4c0.9-0.9,1.7-1.8,2.6-2.6c0,0,0,0,0,0
		c14,0.1,27.8,0.8,41.6,2c23.6,2.1,46.6,5.9,69.2,11.2h0c23.6,5.5,46.5,12.8,68.7,21.5c0.5,1.1,1,2.3,1.5,3.4c0.2,0.5,0.4,1,0.6,1.5
		C737,121,739.7,134.6,739.7,148.9z"/>
	<path class="st6" d="M996.4,352.7c-0.8,0.3-1.7,0.6-2.5,0.9c-14.1,5.2-29.4,8.1-45.3,8.1c-68.5,0-124.7-52.7-130.3-119.8
		c-0.3-3.6-0.5-7.3-0.5-11c0-24.2,6.6-46.9,18.1-66.4c0.4-0.8,0.9-1.5,1.4-2.3c19.2,13.8,37.4,29,54.5,45.4
		C934.9,249.1,970.5,298.2,996.4,352.7z"/>
	<path class="st6" d="M891.8,207.7c-0.5,0.7-1.1,1.3-1.7,2c-17.4,19.8-42.9,32.3-71.3,32.3c-0.2,0-0.3,0-0.5,0
		c-23.4-0.1-44.9-8.7-61.4-22.9c-9.3-8-17-17.8-22.7-28.8c-0.5-1-1-1.9-1.4-2.9v0c-5.7-12.2-8.9-25.8-8.9-40.2
		c0-13.8,2.9-26.8,8.2-38.6c0.2-0.4,0.3-0.7,0.5-1.1c0.4-0.8,0.8-1.6,1.2-2.4c12.3,5,24.4,10.5,36.2,16.4
		c21.5,10.8,42.2,23.1,61.8,36.8l10.7-3.5c-1.8,2.5-3.4,5-5,7.5C856.6,176.1,874.8,191.3,891.8,207.7z"/>
	<path class="st6" d="M661.4,82c-1.8,0.6-3.6,1-5.5,1.4c-5.7,1.3-11.6,1.9-17.6,1.9c-15.1,0-29.2-4.2-41.3-11.5
		c-1.6-1-3.2-2-4.8-3.1C615.8,73,638.8,76.7,661.4,82z"/>
	<path class="st3" d="M140.8,853.2c0.8-0.4,1.5-0.9,2.2-1.4c28.8-18,53.1-44.1,69.1-76.8c3-6.2,5.7-12.6,8-19
		c2.5-7,4.6-14.1,6.3-21.2c6.9-29.9,6.3-60.8-1.2-89.8c-7.5-28.8-21.8-56-42.5-78.8c-3.9-4.3-7.9-8.4-12.2-12.3
		c-2.5-2.3-5.1-4.6-7.8-6.8c23.2-13.2,38.1-35.3,42.7-59.6c2.5-12.9,2.1-26.3-1.5-39.3c-1.8-6.4-4.3-12.7-7.6-18.8
		c-0.2-0.4-0.5-0.8-0.7-1.3c-2.8-4.9-6-9.4-9.6-13.7c21.3-6.5,40.3-17.4,56.1-31.4l0,0c36.8-32.6,56.5-82.4,49.3-133.8
		c22.3,16.1,48.5,22.8,74,20.7h0c3.1-0.2,6.2-0.6,9.3-1.1c7.5-1.2,14.8-3.2,21.9-6c10.3-4,20.1-9.5,29-16.6c0,0,0,0,0,0l0,0
		c7.8-6.2,14.8-13.5,20.9-22c31.6-43.7,26.8-102.7-8.6-140.8c-0.7-0.8-1.4-1.5-2.1-2.2c-45.2,10.3-88,26.8-127.5,48.5
		c-131.3,72-226.6,201.5-252,354.6c-4.4,26.6-6.7,54-6.7,81.9c0,90.5,24.2,175.4,66.5,248.6L140.8,853.2z"/>
	<path class="st5" d="M546.2,188.9c-6.1-12.5-9.2-26.1-9.2-40"/>
	<path class="st5" d="M672.9,233.4c-37.9,16.2-81.7,9.5-113-17.4"/>
	<path class="st5" d="M850.2,359.4c-32.1-20.2-51.6-55.5-51.6-93.5"/>
	<path class="st6" d="M911.4,904.9c-9,9.7-18.5,19.1-28.2,28c-15.9,14.6-32.8,28.2-50.5,40.6c-4.5,3.2-9.1,6.2-13.6,9.3
		c-78.1,51.1-171.5,80.8-271.9,80.8c-120.5,0-231-42.9-317.1-114.2c-1.7-1.4-3.4-2.8-5-4.2c0,0,0,0,0,0
		c-12.6-10.7-24.6-22-36.1-33.9c-5.4-5.6-10.6-11.3-15.8-17.1c1.1-0.1,2.3-0.1,3.4-0.1c7.2-0.2,14.5,0.2,21.8,1.3
		c13.8,2,27.6,6.2,40.7,12.8c4.4,2.2,8.7,4.7,12.8,7.4c0,0,0,0,0,0c48.5-89.6,160.5-122.9,250.1-74.4c13.7,7.4,26.4,16.5,37.8,27.1
		c46.9-44.8,116.8-50.5,169.6-18v0c10,6.2,19.4,13.7,27.9,22.6c2.6,2.8,5.1,5.6,7.5,8.6c56.8-23.2,119-12.9,164.5,21.9
		C910,903.8,910.7,904.3,911.4,904.9z"/>
	<path class="st5" d="M595,883.3c27.2-13.3,59-13.5,86.5-0.5"/>
	<path class="st5" d="M279.2,947.7l7.3-13.5c25.4-46.9,74.4-76,127.6-76.1"/>
	<path class="st5" d="M224.9,945.2C224.9,945.2,224.9,945.2,224.9,945.2c1.8,1,3.6,2.1,5.4,3.2"/>
	<path class="st5" d="M819,982.8c-0.1-1-0.3-1.9-0.5-2.8c-0.6-3.6-1.5-7.3-2.6-10.9"/>
	<path class="st5" d="M883.1,932.9c-0.7-0.5-1.4-1.1-2.2-1.6c-33.2-23.2-75.9-29.5-114.8-15.9c-2.1,0.7-4.2,1.5-6.4,2.4l-27.1,11.1"
		/>
	<path class="st5" d="M419.4,788.4c31.8-21.5,74.6-16.6,100.7,11.5"/>
	<circle class="st2" cx="314.3" cy="519.1" r="97.5"/>
	<circle class="st6" cx="539.5" cy="481.9" r="78.6"/>
	<circle class="st2" cx="954.5" cy="623.3" r="78.6"/>
	<circle class="st2" cx="173.2" cy="489.5" r="64.4"/>
	<circle class="st6" cx="630.5" cy="427.6" r="53.1"/>
	<path class="st7" d="M608.4,395.7c10.1-7,22.8-8.8,34.5-4.9"/>
	<circle class="st6" cx="225.9" cy="564.9" r="80.1"/>
	<path class="st6" d="M252.1,919c0,13.2-7.9,24.5-19.2,29.4c-0.9,0.4-1.9,0.8-2.8,1.1c-1.7-1.4-3.4-2.8-5-4.2c0,0,0,0,0,0
		c-12.6-10.7-24.6-22-36.1-33.9c0.2-1,0.5-2,0.9-2.9c1.8-5,4.8-9.5,8.6-13.1c5.7-5.2,13.3-8.4,21.7-8.4c16.5,0,30.1,12.5,31.9,28.6
		C252,916.6,252.1,917.8,252.1,919z"/>
	<circle class="st6" cx="876.3" cy="709.4" r="115.8"/>
	<path class="st5" d="M807.8,660c15.6-21.6,40.5-34.6,67.2-35.1"/>
</g>
<circle class="st8" cx="821.9" cy="210.7" r="67.8"/>
<path class="st7" d="M836.6,163.5c14.9,4.6,26.8,16,32,30.8"/>
<circle class="st8" cx="742.8" cy="979.2" r="91.8"/>
<path class="st7" d="M684.4,946.3c10.4-18.4,28.9-30.9,49.9-33.6"/>
<circle class="st6" cx="1000.8" cy="551.4" r="79.7"/>
<path class="st6" d="M994.4,493.6c31.9-3.5,60.6,19.5,64.1,51.4c3.5,31.9-19.5,60.6-51.4,64.1c-31.9,3.5-60.6-19.5-64.1-51.4
	c-1.4-12.4,1.3-24.9,7.6-35.7"/>
<path class="st7" d="M950.6,522c9.3-15.8,25.5-26.4,43.8-28.4"/>
<circle class="st6" cx="188.1" cy="385.9" r="119.5"/>
<path class="st6" d="M203.1,471.8c-47.4,8.2-92.5-23.5-100.7-70.9s23.5-92.5,70.9-100.7c47.4-8.2,92.5,23.5,100.7,70.9
	c3.2,18.4,0.4,37.4-8.1,54.1"/>
<path class="st7" d="M266,425.2c-12.4,24.6-35.7,41.8-62.9,46.6"/>
<circle class="st8" cx="273.2" cy="221.3" r="142.2"/>
<path class="st9" d="M293.1,323.2c-32.2,6.3-65.4-3-89.7-25"/>
<circle class="st8" cx="97.9" cy="721.1" r="97.9"/>
<path class="st10" d="M162.2,690c9.8,20.3,9.4,44.1-1,64.1"/>
<circle class="st6" cx="464.1" cy="52.5" r="52.5"/>
<path class="st11" d="M501.8,59.4c-2.2,11.9-9.9,22.1-20.7,27.4"/>
</svg>
