<svg xmlns="http://www.w3.org/2000/svg" xmlns:xlink="http://www.w3.org/1999/xlink" viewBox="0 0 181.799 168.603"><defs><linearGradient id="a" x1="106.479" y1="167.114" x2="180.499" y2="93.093" gradientTransform="translate(13.386 273.593) rotate(-90)" gradientUnits="userSpaceOnUse"><stop offset="0.004" stop-color="#19a600"/><stop offset="0.345" stop-color="#59c10d"/><stop offset="0.645" stop-color="#8ad617"/><stop offset="0.872" stop-color="#a8e31d"/><stop offset="1" stop-color="#b3e81f"/></linearGradient><linearGradient id="b" x1="127.063" y1="179.175" x2="146.785" y2="145.014" gradientUnits="userSpaceOnUse"><stop offset="0.005" stop-color="#178200"/><stop offset="0.071" stop-color="#188700"/><stop offset="0.335" stop-color="#1a9800"/><stop offset="0.627" stop-color="#1ca200"/><stop offset="1" stop-color="#1ca500"/></linearGradient><linearGradient id="c" x1="119.664" y1="91.79" x2="138.048" y2="91.79" gradientUnits="userSpaceOnUse"><stop offset="0.005" stop-color="#314de6"/><stop offset="1" stop-color="#4866ff"/></linearGradient><linearGradient id="d" x1="105.183" y1="98.567" x2="138.048" y2="98.567" gradientUnits="userSpaceOnUse"><stop offset="0.005" stop-color="#b3e81f"/><stop offset="0.037" stop-color="#b3e81f"/><stop offset="1" stop-color="#b3e81f"/></linearGradient><linearGradient id="e" x1="-600.558" y1="-1499.267" x2="-526.538" y2="-1573.288" gradientTransform="translate(1644.644 -517.829) rotate(-90)" xlink:href="#a"/><linearGradient id="f" x1="-587.373" y1="-1574.591" x2="-568.989" y2="-1574.591" gradientTransform="translate(268.907 1674.204) rotate(14.514)" xlink:href="#c"/><linearGradient id="g" x1="88.924" y1="88.898" x2="101.731" y2="68.403" gradientUnits="userSpaceOnUse"><stop offset="0.005" stop-color="#178200"/><stop offset="0.018" stop-color="#178300"/><stop offset="0.332" stop-color="#1a9600"/><stop offset="0.656" stop-color="#1ba100"/><stop offset="1" stop-color="#1ca500"/></linearGradient><linearGradient id="h" x1="-580.81" y1="5312.567" x2="-498.856" y2="5319.737" gradientTransform="translate(-5263.811 -423.573) rotate(-90)" xlink:href="#a"/><linearGradient id="i" x1="6.685" y1="107.688" x2="8.755" y2="105.617" xlink:href="#c"/><linearGradient id="j" x1="0" y1="138.205" x2="69.701" y2="138.205" xlink:href="#g"/><linearGradient id="k" x1="61.979" y1="105.613" x2="82.594" y2="88.315" xlink:href="#d"/></defs><g style="isolation:isolate"><path d="M109.615,91.794h67.747A4.437,4.437,0,0,1,181.8,96.23v67.746a4.437,4.437,0,0,1-4.437,4.437H109.615a4.436,4.436,0,0,1-4.436-4.436V96.23a4.436,4.436,0,0,1,4.436-4.436Z" transform="translate(273.593 -13.386) rotate(90)" fill="url(#a)"/><path d="M181.642,165.139a4.43,4.43,0,0,1-4.287,3.276H109.62a4.427,4.427,0,0,1-4.434-4.434V136.268c3.652,16.481,31.724,29.295,65.811,29.295Q176.426,165.563,181.642,165.139Z" fill="url(#b)"/><line x1="138.048" y1="91.79" x2="119.664" y2="91.79" fill="url(#c)"/><circle cx="123.733" cy="150.581" r="9.7" fill="#ecefe4"/><path d="M129.578,158.314a9.552,9.552,0,0,1-5.843,1.967,9.7,9.7,0,0,1-9.7-9.7,9.272,9.272,0,0,1,.058-1.114c.911.766,1.879,1.5,2.921,2.227a50.885,50.885,0,0,0,4.787,2.979A69.319,69.319,0,0,0,129.578,158.314Z" fill="#d5d8ca"/><circle cx="120.31" cy="151.733" r="3.302" fill="#fff"/><circle cx="122.064" cy="157.478" r="1.651" fill="#fff"/><circle cx="163.347" cy="150.581" r="9.7" fill="#ecefe4"/><circle cx="159.924" cy="151.733" r="3.302" fill="#fff"/><circle cx="161.678" cy="157.478" r="1.651" fill="#fff"/><circle cx="123.733" cy="110.478" r="9.7" fill="#ecefe4"/><circle cx="120.31" cy="111.63" r="3.302" fill="#fff"/><circle cx="122.064" cy="117.375" r="1.651" fill="#fff"/><circle cx="163.347" cy="110.478" r="9.7" fill="#ecefe4"/><circle cx="159.924" cy="111.63" r="3.302" fill="#fff"/><circle cx="161.678" cy="117.375" r="1.651" fill="#fff"/><path d="M138.048,91.79c-13,3.011-24.345,7.806-32.865,13.553V96.228a4.465,4.465,0,0,1,4.439-4.438Z" fill="url(#d)" style="mix-blend-mode:multiply"/><path d="M74.492,7.409h67.747a4.437,4.437,0,0,1,4.437,4.437V79.592a4.437,4.437,0,0,1-4.437,4.437H74.492a4.436,4.436,0,0,1-4.436-4.436V11.845a4.436,4.436,0,0,1,4.436-4.436Z" transform="matrix(-0.251, 0.968, -0.968, -0.251, 179.784, -47.73)" fill="url(#e)"/><line x1="112.7" y1="7.265" x2="94.903" y2="2.658" fill="url(#f)"/><circle cx="108.247" cy="46.035" r="9.7" fill="#ecefe4"/><circle cx="104.645" cy="46.292" r="3.302" fill="#fff"/><circle cx="104.902" cy="52.294" r="1.651" fill="#fff"/><path d="M133.907,91.255a4.237,4.237,0,0,1-2.344.036L65.976,74.311a4.435,4.435,0,0,1-3.189-5.4l5.534-21.383C76.924,63,97.354,78.618,123.745,88.042,127.149,89.256,130.54,90.339,133.907,91.255Z" fill="url(#g)"/><path d="M18.467,77.95H86.214a4.437,4.437,0,0,1,4.437,4.437v67.746a4.437,4.437,0,0,1-4.437,4.437H18.467a4.436,4.436,0,0,1-4.436-4.436V82.386a4.436,4.436,0,0,1,4.436-4.436Z" transform="translate(97.539 -2.959) rotate(45)" fill="url(#h)"/><circle cx="22.522" cy="116.55" r="9.7" fill="#ecefe4"/><circle cx="20.916" cy="119.784" r="3.302" fill="#fff"/><circle cx="26.219" cy="122.607" r="1.651" fill="#fff"/><circle cx="52.678" cy="116.55" r="9.7" fill="#ecefe4"/><circle cx="51.072" cy="119.784" r="3.302" fill="#fff"/><circle cx="56.375" cy="122.607" r="1.651" fill="#fff"/><path d="M8.779,105.641l-2.071,2.07A16.132,16.132,0,0,1,8.779,105.641Z" fill="url(#i)"/><path d="M69.7,153.081,55.482,167.3a4.437,4.437,0,0,1-6.283,0l-47.9-47.9a4.446,4.446,0,0,1,0-6.271l5.331-5.319a11.778,11.778,0,0,0-2.464,4.914c-3.117,13.72,20.276,30.747,52.261,38.017C60.943,151.761,65.381,152.546,69.7,153.081Z" fill="url(#j)"/><path d="M103.387,119.4,87.16,135.623c2.169-19.134-6.826-41.55-25.309-58.268A84.4,84.4,0,0,0,47.534,66.884L49.2,65.221a4.434,4.434,0,0,1,6.276,0l47.914,47.9A4.461,4.461,0,0,1,103.387,119.4Z" fill="url(#k)" style="mix-blend-mode:multiply"/><circle cx="82.834" cy="116.55" r="9.7" fill="#ecefe4"/><circle cx="81.228" cy="119.784" r="3.302" fill="#fff"/><path d="M89.691,123.4a10.209,10.209,0,0,1-2.415,1.779c-.029-.347-.072-.694-.116-1.041-.1-1.056-.246-2.112-.419-3.167a65.474,65.474,0,0,0-3.978-14.13A9.7,9.7,0,0,1,89.691,123.4Z" fill="#d5d8ca"/><circle cx="86.531" cy="122.607" r="1.651" fill="#fff"/></g></svg>