<svg xmlns="http://www.w3.org/2000/svg" xmlns:xlink="http://www.w3.org/1999/xlink" viewBox="0 0 391.085 165.99"><defs><linearGradient id="a" x1="29.516" y1="194.313" x2="162.347" y2="61.482" gradientUnits="userSpaceOnUse"><stop offset="0.014" stop-color="#fa003f"/><stop offset="0.365" stop-color="#fa0543"/><stop offset="0.769" stop-color="#fa134d"/><stop offset="1" stop-color="#fa1e56"/></linearGradient><linearGradient id="b" x1="186.132" y1="91.833" x2="391.085" y2="91.833" gradientTransform="translate(-12.379 125.516) rotate(-24.036)" gradientUnits="userSpaceOnUse"><stop offset="0.004" stop-color="#19a600"/><stop offset="0.345" stop-color="#59c10d"/><stop offset="0.645" stop-color="#8ad617"/><stop offset="0.872" stop-color="#a8e31d"/><stop offset="1" stop-color="#b3e81f"/></linearGradient><linearGradient id="c" x1="224.352" y1="22.514" x2="258.529" y2="22.514" gradientTransform="matrix(1, 0, 0, 1, 0, 0)" xlink:href="#b"/><linearGradient id="d" x1="267.396" y1="41.711" x2="301.573" y2="41.711" gradientTransform="matrix(1, 0, 0, 1, 0, 0)" xlink:href="#b"/><linearGradient id="e" x1="310.44" y1="60.908" x2="344.617" y2="60.908" gradientTransform="matrix(1, 0, 0, 1, 0, 0)" xlink:href="#b"/><linearGradient id="f" x1="353.484" y1="80.105" x2="387.661" y2="80.105" gradientTransform="matrix(1, 0, 0, 1, 0, 0)" xlink:href="#b"/></defs><g style="isolation:isolate"><rect y="89.807" width="191.862" height="76.181" rx="2.032" fill="url(#a)"/><path d="M40.788,90.06H8.7V78.428a1.535,1.535,0,0,1,1.535-1.535,149.054,149.054,0,0,1,29.015,0,1.537,1.537,0,0,1,1.538,1.538Z" fill="#e00040"/><path d="M87.919,90.06H55.83V78.428a1.536,1.536,0,0,1,1.536-1.535,149.054,149.054,0,0,1,29.015,0,1.538,1.538,0,0,1,1.538,1.538Z" fill="#e00040"/><path d="M135.05,90.06H102.961V78.428a1.536,1.536,0,0,1,1.536-1.535,149.054,149.054,0,0,1,29.015,0,1.538,1.538,0,0,1,1.538,1.538Z" fill="#e00040"/><path d="M182.18,90.06H150.092V78.428a1.535,1.535,0,0,1,1.535-1.535,149.054,149.054,0,0,1,29.015,0,1.537,1.537,0,0,1,1.538,1.538Z" fill="#e00040"/><rect x="8.698" y="89.808" width="32.088" height="0.253" fill="#e00040"/><rect x="102.965" y="89.808" width="32.088" height="0.253" fill="#e00040"/><rect x="150.092" y="89.808" width="32.088" height="0.253" fill="#e00040"/><g opacity="0.2" style="mix-blend-mode:multiply"><path d="M191.861,156.044v7.912a2.033,2.033,0,0,1-2.035,2.034H2.038A2.033,2.033,0,0,1,0,163.956V91.969C7.978,127.508,90.592,155.539,191.861,156.044Z" fill="#4866ff"/><rect x="8.698" y="89.808" width="32.088" height="0.253" fill="#4866ff"/><rect x="102.965" y="89.808" width="32.088" height="0.253" fill="#4866ff"/><rect x="150.092" y="89.808" width="32.088" height="0.253" fill="#4866ff"/><rect x="8.698" y="89.808" width="32.088" height="0.253" fill="#4866ff"/><rect x="102.965" y="89.808" width="32.088" height="0.253" fill="#4866ff"/><rect x="150.092" y="89.808" width="32.088" height="0.253" fill="#4866ff"/><rect x="55.831" y="89.554" width="32.088" height="0.253" fill="#4866ff"/></g><rect x="8.698" y="89.808" width="32.088" height="0.253" fill="#e00040"/><rect x="55.825" y="89.556" width="32.088" height="0.253" fill="#e00040"/><rect x="102.965" y="89.808" width="32.088" height="0.253" fill="#e00040"/><rect x="150.092" y="89.808" width="32.088" height="0.253" fill="#e00040"/><g opacity="0.2" style="mix-blend-mode:multiply"><path d="M191.861,162.831v1.125a2.033,2.033,0,0,1-2.035,2.034H2.038A2.033,2.033,0,0,1,0,163.956V143.141c42.818,13.03,96.327,20.777,154.374,20.777Q173.486,163.918,191.861,162.831Z" fill="#4866ff"/><rect x="8.698" y="89.808" width="32.088" height="0.253" fill="#4866ff"/><rect x="102.965" y="89.808" width="32.088" height="0.253" fill="#4866ff"/><rect x="150.092" y="89.808" width="32.088" height="0.253" fill="#4866ff"/><rect x="8.698" y="88.862" width="32.088" height="0.859" fill="#4866ff"/><rect x="102.965" y="88.862" width="32.088" height="0.859" fill="#4866ff"/><rect x="150.092" y="88.862" width="32.088" height="0.859" fill="#4866ff"/><rect x="55.825" y="88.862" width="32.088" height="0.859" fill="#4866ff"/></g><rect x="192.677" y="53.743" width="191.862" height="76.181" rx="2.032" transform="translate(62.429 -109.59) rotate(24.036)" fill="url(#b)"/><path d="M253.659,34.816l-29.307-13.07,4.738-10.623a1.536,1.536,0,0,1,2.028-.777,149.2,149.2,0,0,1,26.5,11.818A1.539,1.539,0,0,1,258.4,24.2Z" fill="url(#c)"/><path d="M296.7,54.013,267.4,40.943l4.738-10.623a1.535,1.535,0,0,1,2.028-.777,149.126,149.126,0,0,1,26.5,11.818,1.538,1.538,0,0,1,.778,2.031Z" fill="url(#d)"/><path d="M339.747,73.21,310.44,60.14l4.738-10.623a1.535,1.535,0,0,1,2.028-.777,149.054,149.054,0,0,1,26.5,11.818,1.538,1.538,0,0,1,.778,2.031Z" fill="url(#e)"/><path d="M382.791,92.406l-29.307-13.07,4.738-10.623a1.536,1.536,0,0,1,2.028-.777,149.2,149.2,0,0,1,26.5,11.818,1.539,1.539,0,0,1,.778,2.032Z" fill="url(#f)"/><g opacity="0.2" style="mix-blend-mode:multiply"><path d="M364.756,156.612l-3.223,7.226a2.033,2.033,0,0,1-2.687,1.029l-171.5-76.488a2.033,2.033,0,0,1-1.03-2.686l29.321-65.745C208.44,55.653,272.474,114.9,364.756,156.612Z" fill="#1ca500"/><rect x="282.078" y="31.088" width="0.253" height="32.088" transform="translate(124.215 285.669) rotate(-65.964)" fill="#1ca500"/></g><path d="M361.991,162.81l-.458,1.028a2.033,2.033,0,0,1-2.687,1.029l-171.5-76.488a2.033,2.033,0,0,1-1.03-2.686l8.479-19.011c33.8,29.34,79.512,58.21,132.525,81.853Q344.766,156.318,361.991,162.81Z" fill="#1ca500" opacity="0.2" style="mix-blend-mode:multiply"/><rect x="238.779" y="11.562" width="1.05" height="32.088" transform="translate(116.621 234.916) rotate(-65.964)" fill="#1ca500"/><rect x="324.873" y="49.958" width="1.05" height="32.088" transform="translate(132.582 336.301) rotate(-65.964)" fill="#1ca500"/><rect x="367.913" y="69.153" width="1.05" height="32.088" transform="translate(140.561 386.987) rotate(-65.964)" fill="#1ca500"/><rect x="281.82" y="30.757" width="1.05" height="32.088" transform="translate(124.6 285.602) rotate(-65.964)" fill="#1ca500"/><path d="M40.787,13.872H8.7V2.241A1.536,1.536,0,0,1,10.233.705a149.222,149.222,0,0,1,29.016,0,1.539,1.539,0,0,1,1.538,1.538Z" fill="#4866ff"/><path d="M87.917,13.872H55.829V2.241A1.536,1.536,0,0,1,57.364.705a149.212,149.212,0,0,1,29.015,0,1.538,1.538,0,0,1,1.538,1.538Z" fill="#4866ff"/><rect y="13.615" width="96.693" height="76.182" rx="2.035" fill="#4866ff"/><path d="M40.787,13.872H8.7V2.241A1.536,1.536,0,0,1,10.233.705a149.222,149.222,0,0,1,29.016,0,1.539,1.539,0,0,1,1.538,1.538Z" fill="#4866ff" opacity="0.2" style="mix-blend-mode:multiply"/><path d="M87.917,13.872H55.829V2.241A1.536,1.536,0,0,1,57.364.705a149.212,149.212,0,0,1,29.015,0,1.538,1.538,0,0,1,1.538,1.538Z" fill="#4866ff" opacity="0.2" style="mix-blend-mode:multiply"/><rect x="8.695" y="13.615" width="32.088" height="0.253" fill="#4866ff" opacity="0.2" style="mix-blend-mode:multiply"/><rect x="55.835" y="13.615" width="32.088" height="0.253" fill="#4866ff" opacity="0.2" style="mix-blend-mode:multiply"/><g opacity="0.2" style="mix-blend-mode:multiply"><rect x="8.695" y="13.615" width="32.088" height="0.253" fill="#4866ff"/><rect x="55.835" y="13.615" width="32.088" height="0.253" fill="#4866ff"/><path d="M96.693,79.661v8.1A2.033,2.033,0,0,1,94.659,89.8H2.035A2.033,2.033,0,0,1,0,87.762V43.2c11.286,21,49.453,36.473,94.823,36.473C95.442,79.673,96.074,79.673,96.693,79.661Z" fill="#4866ff"/><rect x="8.695" y="13.615" width="32.088" height="0.253" fill="#4866ff" opacity="0.2" style="mix-blend-mode:multiply"/><rect x="55.835" y="13.615" width="32.088" height="0.253" fill="#4866ff" opacity="0.2" style="mix-blend-mode:multiply"/></g><rect x="8.695" y="13.615" width="32.088" height="0.253" fill="#4866ff" opacity="0.4" style="mix-blend-mode:multiply"/><rect x="55.835" y="13.615" width="32.088" height="0.253" fill="#4866ff" opacity="0.4" style="mix-blend-mode:multiply"/><g opacity="0.4" style="mix-blend-mode:multiply"><rect x="8.695" y="13.615" width="32.088" height="0.253" fill="#4866ff"/><rect x="55.835" y="13.615" width="32.088" height="0.253" fill="#4866ff"/><path d="M96.693,87.041v.721A2.033,2.033,0,0,1,94.659,89.8H2.035A2.033,2.033,0,0,1,0,87.762v-16.1C21.674,81.418,50.944,87.4,83.183,87.4,87.746,87.4,92.258,87.269,96.693,87.041Z" fill="#4866ff"/><rect x="8.695" y="12.67" width="32.088" height="0.945" fill="#4866ff"/><rect x="55.835" y="12.67" width="32.088" height="0.945" fill="#4866ff"/></g></g></svg>