<svg xmlns="http://www.w3.org/2000/svg" xmlns:xlink="http://www.w3.org/1999/xlink" viewBox="0 0 241.687 167.492"><defs><linearGradient id="a" x1="1.246" y1="126.207" x2="139.281" y2="75.967" gradientUnits="userSpaceOnUse"><stop offset="0" stop-color="#ff9f2b"/><stop offset="0.324" stop-color="#ffb044"/><stop offset="0.75" stop-color="#ffc25f"/><stop offset="1" stop-color="#ffc969"/></linearGradient><linearGradient id="b" x1="-11732.366" y1="7336.11" x2="-11674.006" y2="7426.821" gradientTransform="matrix(-0.841, -0.541, 0.541, -0.841, -13670.411, -11.673)" xlink:href="#a"/></defs><g style="isolation:isolate"><path d="M22.557,69.367q-1.984,1.419-3.848,3.025L18.6,72.3C19.834,71.315,21.158,70.332,22.557,69.367Z" fill="#fff"/><path d="M127.423,46.4l-.016.033h-.016l-.246.3c.033-.065.082-.115.1-.164s.048-.082.065-.131a.061.061,0,0,0,.016-.049A.209.209,0,0,1,127.423,46.4Z" fill="#fdefca"/><path d="M127.6,45.812a3.655,3.655,0,0,1-.279.573h-.1c.1-.147.2-.327.311-.475.016-.016.032-.016.032-.032C127.587,45.862,127.587,45.829,127.6,45.812Z" fill="#fdefca"/><path d="M129.4,44.061c-.016.033-.033.049-.049.082L127.44,46.4h-.017Z" fill="#fdefca"/><path d="M145.608,31.818l.065.033c-.8,0-5.827-.115-8.789,3.372l-7.48,8.838-1.981,2.34a.209.209,0,0,0-.1-.016,3.655,3.655,0,0,0,.279-.573.231.231,0,0,0,.032-.1c-.032.066-.066.131-.1.2-.115.148-.213.328-.311.475-.016.016-.032.016-.032.033a.284.284,0,0,1,.114.016c-.017.049-.049.082-.065.131s-.066.1-.1.164l-20.967,24.78L89.386,57.286l23.519-27.792h-.016l7.136-8.429.083-.082.768-.917c2.308-3.142,1.915-7.267,1.867-8a10.993,10.993,0,0,1-.263-2.226,9.823,9.823,0,0,1,18.774-4.06v.017a11.1,11.1,0,0,0,7.218,7.087,9.825,9.825,0,0,1-2.864,18.937Z" fill="#fdefca"/><path d="M127.407,46.434l-.262.3c.033-.065.082-.115.1-.164s.048-.082.065-.131a.076.076,0,0,1,.082,0Z" fill="#fdefca"/><g style="mix-blend-mode:multiply"><path d="M129.456,43.982a1.823,1.823,0,0,1-.1.161l-1.92,2.259a1.608,1.608,0,0,0-.208-.019,4.667,4.667,0,0,0,.341-.51c1.72-2.988.265-7.072-3.271-9.114a8.039,8.039,0,0,0-5.531-.992,5.223,5.223,0,0,0,.246-1.6,5.387,5.387,0,0,0-5.389-5.389.432.432,0,0,0-.113.01l1.588-1.872a2.953,2.953,0,0,1,.416-.029,5.387,5.387,0,0,1,5.389,5.389,5.223,5.223,0,0,1-.246,1.6,8.035,8.035,0,0,1,5.531.993C129.72,36.911,131.176,41,129.456,43.982Z" fill="#fdefca"/></g><g style="mix-blend-mode:multiply"><path d="M127.534,45.9a4.772,4.772,0,0,1-.34.511,1.462,1.462,0,0,1,.208.019L106.178,71.5l-16.8-14.219,24.1-28.466a.488.488,0,0,1,.114-.009,5.386,5.386,0,0,1,5.388,5.388,5.223,5.223,0,0,1-.246,1.6,8.033,8.033,0,0,1,5.531.993C127.8,38.831,129.255,42.915,127.534,45.9Z" fill="#fdefca"/></g><path d="M131.486,55.754a6.8,6.8,0,0,1-6.306,6.769,4.5,4.5,0,0,1-.491.028,6.5,6.5,0,0,1-1.069-.085c-1.437,8.527-9.123,51.723-21.63,75.244a.765.765,0,0,1-.038.076A53.931,53.931,0,1,1,16.743,74.179c.643-.614,1.3-1.21,1.966-1.787q1.859-1.6,3.848-3.025c.218-.16.435-.312.662-.463.406-.284.823-.567,1.248-.841.217-.142.435-.293.662-.426,24.986-16.28,68.456-29.789,68.456-29.789l.265.208a7.856,7.856,0,0,1-.445-1.428,8.215,8.215,0,0,1,6.911-9.879,6.6,6.6,0,0,1,4.982.907.035.035,0,0,1,.029.01,5.588,5.588,0,0,1,.69.548c.085.085.17.161.255.255a3.741,3.741,0,0,1,.255.293c.085.1.161.2.237.312.056.076.1.152.151.227.038.057.075.123.113.18.048.085.086.18.133.265a.009.009,0,0,1,.009.009.317.317,0,0,0,.038.076c.029.075.066.151.095.227a3.115,3.115,0,0,1,.123.312,5.233,5.233,0,0,1,.2,2.552,5.121,5.121,0,0,1,1.437-1.011,5.32,5.32,0,0,1,2.354-.549,5.387,5.387,0,0,1,5.389,5.389,5.223,5.223,0,0,1-.246,1.6,8.039,8.039,0,0,1,5.531.992c3.535,2.042,4.991,6.127,3.271,9.114a4.779,4.779,0,0,1-.341.511A6.789,6.789,0,0,1,131.486,55.754Z" fill="url(#a)"/><path d="M107.963,123.956c-6.592,20.647-21.324,33.719-41.943,37.53A53.73,53.73,0,0,1,4.818,92.4a54.458,54.458,0,0,0,103.259,31.186" fill="#ff8b00"/><path d="M102.131,137.436c-.047.094-.094.179-.141.274a.765.765,0,0,1-.038.076A53.936,53.936,0,1,1,6.344,87.84a54.431,54.431,0,0,0,95.787,49.6Z" fill="#e57200"/><path d="M65.134,131.983l-.043-.073c.684.44,4.839,3.26,9.215,1.927l14.414-4.408a1.752,1.752,0,0,0-.174.079c-3.063,1.582-4.049,5.8-2.18,9.435a8.038,8.038,0,0,0,4.114,3.827,5.208,5.208,0,0,0-1.071,1.21,5.386,5.386,0,0,0,1.616,7.448,2.92,2.92,0,0,0,.365.2l-10.565,3.23a.716.716,0,0,1-.11.031l-1.135.349c-3.657,1.4-5.553,5.083-5.907,5.721v-.034A9.816,9.816,0,0,1,54.7,156.24l0-.013.005-.008c.73-3.948.231-6.563-2.217-9.869a9.816,9.816,0,0,1,12.65-14.367Z" fill="#fdefca"/><path d="M85.294,130.487a1.4,1.4,0,0,1,.175-.079l2.836-.862a1.43,1.43,0,0,0,.165.128,4.8,4.8,0,0,0-.563.246c-3.063,1.581-4.048,5.8-2.18,9.434a8.038,8.038,0,0,0,4.114,3.827,5.257,5.257,0,0,0-1.071,1.211,5.386,5.386,0,0,0,1.616,7.447.466.466,0,0,0,.1.054l-2.349.714a2.863,2.863,0,0,1-.365-.2,5.386,5.386,0,0,1-1.616-7.447,5.257,5.257,0,0,1,1.071-1.211,8.038,8.038,0,0,1-4.114-3.827C81.245,136.291,82.231,132.068,85.294,130.487Z" fill="#fdefca"/><path d="M87.949,129.911a4.968,4.968,0,0,1,.563-.245,1.551,1.551,0,0,1-.165-.128l31.415-9.6,6.435,21.048-35.668,10.9a.466.466,0,0,1-.1-.054,5.386,5.386,0,0,1-1.616-7.447,5.216,5.216,0,0,1,1.071-1.211,8.038,8.038,0,0,1-4.114-3.827C83.9,135.715,84.886,131.493,87.949,129.911Z" fill="#fdefca"/><g style="mix-blend-mode:multiply"><path d="M85.294,130.487a1.4,1.4,0,0,1,.175-.079l2.836-.862a1.43,1.43,0,0,0,.165.128,4.8,4.8,0,0,0-.563.246c-3.063,1.581-4.048,5.8-2.18,9.434a8.038,8.038,0,0,0,4.114,3.827,5.257,5.257,0,0,0-1.071,1.211,5.386,5.386,0,0,0,1.616,7.447.466.466,0,0,0,.1.054l-2.349.714a2.863,2.863,0,0,1-.365-.2,5.386,5.386,0,0,1-1.616-7.447,5.257,5.257,0,0,1,1.071-1.211,8.038,8.038,0,0,1-4.114-3.827C81.245,136.291,82.231,132.068,85.294,130.487Z" fill="#fdefca"/></g><g style="mix-blend-mode:multiply"><path d="M87.949,129.911a4.968,4.968,0,0,1,.563-.245,1.551,1.551,0,0,1-.165-.128l31.415-9.6,6.435,21.048-35.668,10.9a.466.466,0,0,1-.1-.054,5.386,5.386,0,0,1-1.616-7.447,5.216,5.216,0,0,1,1.071-1.211,8.038,8.038,0,0,1-4.114-3.827C83.9,135.715,84.886,131.493,87.949,129.911Z" fill="#fdefca"/></g><path d="M187.292,166.977c1.625-.079,3.253-.234,4.873-.462l.044.141C190.636,166.812,188.991,166.923,187.292,166.977Z" fill="#fff"/><path d="M91.429,119.161a6.8,6.8,0,0,1,8.965-2.28,4.185,4.185,0,0,1,.429.242,6.5,6.5,0,0,1,.853.649c5.822-6.394,35.657-38.561,58.9-51.575a.505.505,0,0,1,.073-.043,53.931,53.931,0,1,1,37.244,99.6c-.873.169-1.744.316-2.62.438-1.62.229-3.248.384-4.873.463-.27.017-.535.027-.807.031-.5.019-1,.032-1.5.032-.26,0-.524.012-.787,0-29.822.172-73.688-11.986-73.688-11.986l-.11-.318a7.845,7.845,0,0,1-.4,1.44,8.215,8.215,0,0,1-11.157,4.57,6.6,6.6,0,0,1-3.7-3.459.037.037,0,0,1-.019-.024,5.65,5.65,0,0,1-.284-.834c-.025-.118-.056-.227-.076-.353a3.756,3.756,0,0,1-.056-.385,3.846,3.846,0,0,1-.03-.39c-.007-.094-.006-.183,0-.272,0-.069,0-.145,0-.213.006-.1.026-.2.032-.294a.009.009,0,0,1,0-.013.252.252,0,0,0,.009-.084c.017-.079.026-.163.044-.242a3.082,3.082,0,0,1,.065-.329,5.239,5.239,0,0,1,1.214-2.254,5.122,5.122,0,0,1-1.756.073,5.321,5.321,0,0,1-2.276-.812,5.388,5.388,0,0,1-1.616-7.448,5.257,5.257,0,0,1,1.071-1.211,8.034,8.034,0,0,1-4.114-3.827c-1.869-3.63-.883-7.853,2.18-9.434a4.633,4.633,0,0,1,.563-.245A6.79,6.79,0,0,1,91.429,119.161Z" fill="url(#b)"/><path d="M220.1,155.949a53.93,53.93,0,0,1-22.194,9.8c-.884.163-1.751.311-2.619.442-1.62.213-3.257.376-4.878.458-.278.017-.54.017-.818.033-.491.016-1,.032-1.489.032h-.8c-29.821.164-73.687-12-73.687-12l-.1-.311a9.495,9.495,0,0,1-.409,1.441,7.874,7.874,0,0,1-.786,1.571,8.113,8.113,0,0,1-6.464,3.748,7.873,7.873,0,0,1-3.9-.753,6.58,6.58,0,0,1-3.7-3.454l-.033-.032a6.239,6.239,0,0,1-.278-.835,2.86,2.86,0,0,0-.082-.344,3.254,3.254,0,0,1-.049-.392,2.851,2.851,0,0,1-.033-.393v-.475c0-.1.033-.2.033-.295v-.1c.016-.082.033-.164.049-.245a2.784,2.784,0,0,1,.065-.328,5.235,5.235,0,0,1,1.212-2.258,5.253,5.253,0,0,1-1.752.082,5.392,5.392,0,0,1-3.895-8.266,5.48,5.48,0,0,1,1.08-1.211,7.982,7.982,0,0,1-4.124-3.83c-1.867-3.617-.884-7.84,2.177-9.428a4.26,4.26,0,0,1,.572-.245,6.8,6.8,0,0,1-1.767-9.215,6.811,6.811,0,0,1,8.969-2.275c.131.065.294.164.425.245a5.622,5.622,0,0,1,.851.655c1.392-1.522,4.142-4.5,7.84-8.348A87.029,87.029,0,0,0,220.1,155.949Z" fill="#ff8b00"/><path d="M215.055,159.3a53.973,53.973,0,0,1-17.153,6.449c-.884.163-1.751.311-2.619.442-1.62.213-3.257.376-4.878.458-.278.017-.54.017-.818.033-.491.016-1,.032-1.489.032h-.8c-29.821.164-73.687-12-73.687-12l-.1-.311a9.495,9.495,0,0,1-.409,1.441,7.874,7.874,0,0,1-.786,1.571,8.113,8.113,0,0,1-6.464,3.748,7.873,7.873,0,0,1-3.9-.753,6.58,6.58,0,0,1-3.7-3.454l-.033-.032a6.239,6.239,0,0,1-.278-.835,2.86,2.86,0,0,0-.082-.344,3.254,3.254,0,0,1-.049-.392,2.851,2.851,0,0,1-.033-.393v-.475c0-.1.033-.2.033-.295v-.1c.016-.082.033-.164.049-.245a2.784,2.784,0,0,1,.065-.328,5.235,5.235,0,0,1,1.212-2.258,5.253,5.253,0,0,1-1.752.082,5.392,5.392,0,0,1-3.895-8.266,5.48,5.48,0,0,1,1.08-1.211,7.982,7.982,0,0,1-4.124-3.83c-1.867-3.617-.884-7.84,2.177-9.428a4.26,4.26,0,0,1,.572-.245,6.8,6.8,0,0,1-1.767-9.215,5.749,5.749,0,0,1,.851-1.048c13.061,17.071,33.978,31.426,59.544,39.02C174.153,163.74,196.314,164.1,215.055,159.3Z" fill="#e57200"/></g></svg>