<svg xmlns="http://www.w3.org/2000/svg" viewBox="0 0 148.797 169.873"><path d="M66.45,153.053c-4.151,5.839-12.506,11.155-22.877,13.9a47.28,47.28,0,0,1-20.71,1.083h0c-.537-.1-1.076-.209-1.6-.336s-1.026-.258-1.514-.418q-.954-.3-1.828-.645c-.594-.237-1.159-.5-1.7-.772C4.775,160.332-2.007,146.35.531,131.464a36.353,36.353,0,0,1,3.435-10.412c4.526-10.4,26.45-48.659,64.683-8.545C68.649,112.507,84.4,129.5,66.45,153.053Z" fill="#fa003f"/><path d="M54.4,162.831a53.321,53.321,0,0,1-10.822,4.122,47.291,47.291,0,0,1-20.714,1.083c-.537-.1-1.075-.209-1.6-.336-.511-.115-1.025-.258-1.514-.419q-.952-.3-1.828-.645a18.011,18.011,0,0,1-1.7-.775C4.977,160.429-1.768,146.833.422,132.229c2.434,12.692,10.026,23.329,20.64,28.463.713.357,1.468.708,2.247,1.027s1.58.594,2.421.848c.651.21,1.328.4,2.013.549.689.176,1.4.321,2.113.451l.014,0A61.056,61.056,0,0,0,54.4,162.831Z" fill="#e00040"/><ellipse cx="52.37" cy="111.231" rx="6.671" ry="17.627" transform="translate(-67.841 85.454) rotate(-52.685)" fill="#ff6695"/><ellipse cx="34.543" cy="114.609" rx="5.219" ry="9.394" transform="translate(-84.599 103.049) rotate(-67.685)" fill="#ffb2c0"/><circle cx="43.014" cy="126.17" r="3.718" fill="#ffb2c0"/><path d="M148.693,136.64c-1.189,18.216-13.472,30.647-30.47,32.937-.076.01-.34.049-.417.056-19.351,1.778-32.12-6.435-38.095-23.684-5.185-14.979-.4-30.638,10.715-37.9a36.2,36.2,0,0,1,19.315-8.721c15.9-2.146,30.484,5.86,35.212,18.464C148.254,127.955,149.128,129.771,148.693,136.64Z" fill="#fa003f"/><ellipse cx="107.502" cy="109.913" rx="13.018" ry="6.891" transform="translate(-25.289 32.427) rotate(-15.371)" fill="#ff6695"/><ellipse cx="117.775" cy="122.395" rx="8.219" ry="4.917" transform="translate(-33.398 44.947) rotate(-18.975)" fill="#ffb2c0"/><circle cx="121.428" cy="133.843" r="4.111" fill="#ffb2c0"/><path d="M140.271,158.094a34.931,34.931,0,0,1-22.048,11.487c-.07,0-.336.042-.42.056-19.355,1.768-32.118-6.437-38.092-23.688a37.524,37.524,0,0,1-1.8-7.7,45.142,45.142,0,0,0,62.356,19.845Z" fill="#e00040"/><path d="M49.345,107.474S71.514,82.821,56.887,14.1l4.189-.566s16.037,59.727-6.008,98.305Z" fill="#b3e81f"/><path d="M103.618,108.7S89.981,30.763,61.076,13.534l5.078-2.462s28.074,23.66,44.289,95.524Z" fill="#b3e81f"/><path d="M65.614,13.743l-6.805,1.871a3.025,3.025,0,0,1-3.776-2.005L52.646,4.926a3.024,3.024,0,0,1,2.22-3.653l4.2-1.155a3.089,3.089,0,0,1,3.451,1.265L67.51,9.351A2.973,2.973,0,0,1,65.614,13.743Z" fill="#b3e81f"/><path d="M61.2,14.043,59.122,13.8l1.949-.266Z" fill="#b3e81f"/><path d="M55.068,111.84l-3.029-2.314C66.877,84.8,64.269,38.012,62.7,20.747,66.148,37.773,72.473,81.391,55.068,111.84Z" fill="#b3e81f"/><path d="M107.06,107.632l-3.437,1.066S90.271,32.43,62,14.127l3.618-.379C73.287,18.938,95.068,52.009,107.06,107.632Z" fill="#b3e81f"/><path d="M65.615,13.748l-6.8,1.866a3.05,3.05,0,0,1-3.787-2.006L52.642,4.926a3.053,3.053,0,0,1,2.23-3.66C57.088,8.349,59.065,10.915,65.615,13.748Z" fill="#0ea50e"/><path d="M107.06,107.632l-3.437,1.066S90.271,32.43,62,14.127l3.618-.379C73.287,18.938,95.068,52.009,107.06,107.632Z" fill="#0ea50e"/><path d="M52.039,109.526l-2.693-2.048S71.52,82.822,56.892,14.1l2.23-.295,2.075.239c.253.968.814,3.31,1.5,6.69v.014C64.269,38.012,66.877,84.8,52.039,109.526Z" fill="#0ea50e"/><path d="M62.7,20.733c-.687-3.38-1.248-5.722-1.5-6.69l.8.084S62.319,16.567,62.7,20.733Z" fill="#0ea50e"/></svg>