<svg xmlns="http://www.w3.org/2000/svg" xmlns:xlink="http://www.w3.org/1999/xlink" viewBox="0 0 267.498 276"><defs><linearGradient id="a" x1="39.407" y1="268.746" x2="225.782" y2="82.371" gradientUnits="userSpaceOnUse"><stop offset="0.026" stop-color="#ff8b00"/><stop offset="0.349" stop-color="#ff8b00"/><stop offset="0.557" stop-color="#ffad35"/><stop offset="0.756" stop-color="#ffc962"/><stop offset="0.91" stop-color="#ffdb7d"/><stop offset="1" stop-color="#ffe187"/></linearGradient><linearGradient id="b" x1="46.451" y1="260.881" x2="218.736" y2="88.597" gradientUnits="userSpaceOnUse"><stop offset="0" stop-color="#ffab15"/><stop offset="0.157" stop-color="#ffb939"/><stop offset="0.449" stop-color="#ffd175"/><stop offset="0.696" stop-color="#ffe2a2"/><stop offset="0.888" stop-color="#ffedbd"/><stop offset="1" stop-color="#fff1c7"/></linearGradient><linearGradient id="c" x1="153.746" y1="172.446" x2="180.868" y2="145.324" gradientUnits="userSpaceOnUse"><stop offset="0" stop-color="#ffc969"/><stop offset="0.25" stop-color="#ffc25f"/><stop offset="0.676" stop-color="#ffb044"/><stop offset="1" stop-color="#ff9f2b"/></linearGradient><linearGradient id="d" x1="119.599" y1="173.383" x2="146.763" y2="146.218" xlink:href="#c"/><linearGradient id="e" x1="85.151" y1="173.125" x2="112.316" y2="145.96" xlink:href="#c"/><linearGradient id="f" x1="154.253" y1="138.006" x2="181.418" y2="110.841" xlink:href="#c"/><linearGradient id="g" x1="119.599" y1="138.264" x2="146.763" y2="111.099" xlink:href="#c"/><linearGradient id="h" x1="154.253" y1="103.382" x2="172.462" y2="85.173" xlink:href="#c"/><linearGradient id="i" x1="193.689" y1="108.709" x2="204.648" y2="97.751" xlink:href="#c"/><linearGradient id="j" x1="119.599" y1="103.638" x2="146.763" y2="76.473" xlink:href="#c"/><linearGradient id="k" x1="85.151" y1="138.006" x2="112.316" y2="110.842" xlink:href="#c"/><linearGradient id="l" x1="89.117" y1="107.346" x2="116.281" y2="80.182" xlink:href="#c"/><linearGradient id="m" x1="62.912" y1="108.533" x2="74.297" y2="97.147" xlink:href="#c"/><linearGradient id="n" x1="120.429" y1="67.596" x2="146.764" y2="41.261" xlink:href="#c"/><linearGradient id="o" x1="123.425" y1="37.63" x2="141.461" y2="19.594" xlink:href="#c"/><linearGradient id="p" x1="153.745" y1="242.872" x2="180.863" y2="215.755" xlink:href="#c"/><linearGradient id="q" x1="119.599" y1="243.808" x2="146.763" y2="216.643" xlink:href="#c"/><linearGradient id="r" x1="85.152" y1="243.55" x2="112.316" y2="216.387" xlink:href="#c"/><linearGradient id="s" x1="154.253" y1="208.431" x2="181.418" y2="181.266" xlink:href="#c"/><linearGradient id="t" x1="119.599" y1="208.689" x2="146.763" y2="181.524" xlink:href="#c"/><linearGradient id="u" x1="85.151" y1="208.432" x2="112.316" y2="181.267" xlink:href="#c"/><linearGradient id="v" x1="59.763" y1="170.069" x2="80.781" y2="149.052" xlink:href="#c"/><linearGradient id="w" x1="54.701" y1="133.832" x2="77.69" y2="110.843" xlink:href="#c"/><linearGradient id="x" x1="60.327" y1="246.704" x2="84.167" y2="222.864" xlink:href="#c"/><linearGradient id="y" x1="65.456" y1="200.235" x2="81.057" y2="184.634" xlink:href="#c"/><linearGradient id="z" x1="185.839" y1="169.915" x2="206.788" y2="148.966" xlink:href="#c"/><linearGradient id="aa" x1="186.796" y1="135.925" x2="213.962" y2="108.758" xlink:href="#c"/><linearGradient id="ab" x1="223.098" y1="129.723" x2="235.111" y2="117.711" xlink:href="#c"/><linearGradient id="ac" x1="28.429" y1="132.796" x2="46.359" y2="114.865" xlink:href="#c"/><linearGradient id="ad" x1="187.475" y1="241.977" x2="200.814" y2="228.638" xlink:href="#c"/><linearGradient id="ae" x1="183.098" y1="202.653" x2="203.529" y2="182.222" xlink:href="#c"/><linearGradient id="af" x1="180.653" y1="251.451" x2="181.295" y2="250.809" xlink:href="#c"/><linearGradient id="ag" x1="84.651" y1="252.307" x2="86.682" y2="250.277" xlink:href="#c"/><linearGradient id="ah" x1="58.064" y1="262.552" x2="73.647" y2="246.969" xlink:href="#c"/><linearGradient id="ai" x1="193.88" y1="261.743" x2="208.058" y2="247.564" xlink:href="#c"/></defs><path d="M223.471,272.827s-.094-.059-.27-.165c.082.118.117.165.117.165-18.944,7.418-42.548,1.655-58.687-15.634a72.523,72.523,0,0,1-62.421.129c-16.15,17.195-39.684,22.911-58.582,15.5a.939.939,0,0,0,.118-.165c-.176.106-.258.165-.258.165-7.454-19.086-1.585-42.842,15.963-59a120.741,120.741,0,0,1-12.4-53.969,126.508,126.508,0,0,1,.927-15.317C25.647,144.149,0,140.416,0,140.416c9.766-30.295,38.229-52.643,72.385-54.509a85.647,85.647,0,0,1,32.689-24.79L101.952,39.5l-.258-1.784c-.07-.611-.129-1.221-.164-1.843-.059-.833-.094-1.679-.094-2.536C101.436,14.918,114.981,0,131.707,0S161.99,14.918,161.99,33.334c0,.857-.024,1.7-.094,2.536-.024.622-.094,1.232-.165,1.843l-.258,1.784-2.958,20.446c13.616,5.036,25.8,14.05,35.624,25.917,34.578,1.491,63.5,23.98,73.359,54.556,0,0-26.374,3.838-48.922,4.144a125.761,125.761,0,0,1,.927,15.293,120.87,120.87,0,0,1-12.265,53.723C225,229.739,230.959,253.648,223.471,272.827Z" fill="url(#a)"/><path d="M47.981,144.531c-.141,1.162-.27,2.324-.376,3.486-.363-1.174-.715-2.336-1.056-3.521Z" fill="#e57200"/><path d="M223.469,272.822s-.094-.059-.27-.164c.082.117.117.164.117.164-18.944,7.418-42.548,1.655-58.687-15.634a72.523,72.523,0,0,1-62.421.129c-16.15,17.195-39.684,22.911-58.582,15.5a.949.949,0,0,0,.118-.164c-.176.1-.258.164-.258.164-7.454-19.085-1.585-42.842,15.963-59a120.751,120.751,0,0,1-12.395-53.97q0-6,.551-11.831A161.34,161.34,0,0,0,201.437,260.744a163.8,163.8,0,0,0,25.107-1.937A46.821,46.821,0,0,1,223.469,272.822Z" fill="#e57200"/><path d="M218.445,135.176l-10.458.141,1.268,10.388a115.7,115.7,0,0,1,.857,14.143,111.924,111.924,0,0,1-11.28,49.556l-3.158,6.35,5.247,4.766c13.31,12.113,19.073,29.637,15.118,44.825a38.476,38.476,0,0,1-9.871,1.256c-12.653,0-25.283-5.763-34.673-15.81l-4.683-5.024-6.2,2.934a63.148,63.148,0,0,1-54.415.118l-6.174-2.888-4.66,4.965c-9.378,9.989-21.984,15.717-34.578,15.717a38.071,38.071,0,0,1-9.872-1.268c-3.92-15.071,1.761-32.513,14.9-44.614l5.2-4.789-3.157-6.315a111.751,111.751,0,0,1-11.409-49.779A118.659,118.659,0,0,1,57.3,145.67l1.267-10.341-10.423-.177c-12.124-.211-25.4-1.455-34.707-2.511,11.338-21.4,33.98-35.964,59.462-37.361l4.108-.223,2.617-3.169A76.72,76.72,0,0,1,108.7,69.775l6.714-2.806-4.4-30.458c-.047-.388-.083-.775-.106-1.174l-.012-.13c-.047-.68-.07-1.291-.07-1.878,0-13.192,9.366-23.944,20.881-23.944S152.6,20.137,152.6,33.329c0,.693-.024,1.268-.059,1.749l-.024.223v.212c-.011.328-.058.657-.093.974l-4.285,29.625,7.125,2.641c11.808,4.367,22.747,12.348,31.644,23.1l2.665,3.2,4.167.188c25.881,1.115,48.863,15.7,60.33,37.4C244.526,133.721,230.816,135,218.445,135.176Z" fill="url(#b)"/><path d="M181.755,146.718v23.245a1.237,1.237,0,0,1-.342.855q-1.061,1.11-2.174,2.174a1.235,1.235,0,0,1-.855.341H155.139a1.222,1.222,0,0,1-1.222-1.222V146.718a1.223,1.223,0,0,1,1.222-1.223h25.393A1.224,1.224,0,0,1,181.755,146.718Z" fill="url(#c)"/><rect x="119.257" y="145.876" width="27.849" height="27.849" rx="1.168" fill="url(#d)"/><path d="M145.843,145.876a1.15,1.15,0,0,1,1.151,1.15v22.237a23.385,23.385,0,0,0-23.387-23.387Z" fill="#e57200"/><rect x="121.493" y="148.112" width="23.375" height="23.376" rx="1.115" fill="#ff8b00"/><path d="M132.611,171.488h-9.862a1.133,1.133,0,0,1-1.133-1.133v-10.3A12.7,12.7,0,0,0,132.611,171.488Z" fill="#e57200"/><rect x="84.809" y="145.618" width="27.849" height="27.849" rx="1.168" fill="url(#e)"/><path d="M111.4,145.618a1.151,1.151,0,0,1,1.151,1.151v22.236a23.385,23.385,0,0,0-23.387-23.387Z" fill="#e57200"/><rect x="87.046" y="147.855" width="23.375" height="23.376" rx="1.115" fill="#ff8b00"/><path d="M98.163,171.23H88.3a1.133,1.133,0,0,1-1.133-1.133V159.8A12.7,12.7,0,0,0,98.163,171.23Z" fill="#e57200"/><rect x="153.911" y="110.499" width="27.849" height="27.849" rx="1.168" fill="url(#f)"/><path d="M180.5,110.5a1.151,1.151,0,0,1,1.151,1.151v22.236A23.385,23.385,0,0,0,158.262,110.5Z" fill="#e57200"/><rect x="156.148" y="112.736" width="23.375" height="23.376" rx="1.115" fill="#ff8b00"/><path d="M167.265,136.111H157.4a1.133,1.133,0,0,1-1.133-1.133v-10.3A12.7,12.7,0,0,0,167.265,136.111Z" fill="#e57200"/><rect x="119.257" y="110.757" width="27.849" height="27.849" rx="1.168" fill="url(#g)"/><path d="M145.843,110.757a1.15,1.15,0,0,1,1.151,1.15v22.237a23.385,23.385,0,0,0-23.387-23.387Z" fill="#e57200"/><rect x="121.493" y="112.993" width="23.375" height="23.376" rx="1.115" fill="#ff8b00"/><path d="M132.611,136.369h-9.862a1.133,1.133,0,0,1-1.133-1.133v-10.3A12.7,12.7,0,0,0,132.611,136.369Z" fill="#e57200"/><path d="M181.049,94.024v.012l.012.012a7.721,7.721,0,0,1,.587.669.607.607,0,0,1,.117.141v7.7a1.167,1.167,0,0,1-1.173,1.162H155.074a1.158,1.158,0,0,1-1.162-1.162V77.04a1.158,1.158,0,0,1,1.162-1.162h2.089l4.437,2.23a71.538,71.538,0,0,1,17.923,14.214Z" fill="url(#h)"/><path d="M181.648,94.717v4.542a23.116,23.116,0,0,0-.587-5.211A7.721,7.721,0,0,1,181.648,94.717Z" fill="#e57200"/><path d="M179.524,92.322v8.052a1.122,1.122,0,0,1-1.116,1.115H157.257a1.112,1.112,0,0,1-1.1-1.115V79.223a1.112,1.112,0,0,1,1.1-1.115H161.6A71.582,71.582,0,0,1,179.524,92.322Z" fill="#ff8b00"/><path d="M167.265,101.486H157.4a1.133,1.133,0,0,1-1.133-1.133v-10.3A12.7,12.7,0,0,0,167.265,101.486Z" fill="#e57200"/><path d="M211.133,104.236H189.7a1.157,1.157,0,0,1-1.162-1.162v-2.183l.775.035,1.479.059.117.012,2.57.105a65.8,65.8,0,0,1,7.336.716.1.1,0,0,1,.059.012q.494.105,1.021.176h.035A65.776,65.776,0,0,1,211.133,104.236Z" fill="url(#i)"/><path d="M201.9,102.006H191.883a1.1,1.1,0,0,1-1.091-1.021l.117.012,2.57.105a65.8,65.8,0,0,1,7.336.716.1.1,0,0,1,.059.012Q201.368,101.935,201.9,102.006Z" fill="#ff8b00"/><path d="M201.9,102.006h-9.871A1.13,1.13,0,0,1,190.909,101l2.57.105a65.8,65.8,0,0,1,7.336.716.1.1,0,0,1,.059.012Q201.368,101.935,201.9,102.006Z" fill="#e57200"/><rect x="119.257" y="76.131" width="27.849" height="27.849" rx="1.168" fill="url(#j)"/><path d="M145.843,76.131a1.151,1.151,0,0,1,1.151,1.151V99.518a23.385,23.385,0,0,0-23.387-23.387Z" fill="#e57200"/><rect x="121.493" y="78.368" width="23.375" height="23.376" rx="1.115" fill="#ff8b00"/><path d="M132.611,101.743h-9.862a1.133,1.133,0,0,1-1.133-1.133v-10.3A12.7,12.7,0,0,0,132.611,101.743Z" fill="#e57200"/><rect x="84.809" y="110.499" width="27.849" height="27.849" rx="1.168" fill="url(#k)"/><path d="M111.4,110.5a1.151,1.151,0,0,1,1.151,1.151v22.236A23.385,23.385,0,0,0,89.159,110.5Z" fill="#e57200"/><rect x="87.046" y="112.736" width="23.375" height="23.376" rx="1.115" fill="#ff8b00"/><path d="M98.163,136.112H88.3a1.134,1.134,0,0,1-1.133-1.133v-10.3A12.7,12.7,0,0,0,98.163,136.112Z" fill="#e57200"/><path d="M104.978,78.108c1.456-.81,2.935-1.561,4.426-2.23h2.089a1.158,1.158,0,0,1,1.162,1.162v25.518a1.158,1.158,0,0,1-1.162,1.162H85.975a1.158,1.158,0,0,1-1.162-1.162V94.846c.716-.869,1.468-1.714,2.231-2.535a1.207,1.207,0,0,1,.129-.129V90.057a13.078,13.078,0,0,0,.293,1.808A72.133,72.133,0,0,1,102.1,79.787Z" fill="url(#l)"/><path d="M104.978,78.108c1.456-.81,2.935-1.561,4.426-2.23h2a1.152,1.152,0,0,1,1.15,1.15V99.259A23.425,23.425,0,0,0,102.1,79.787Z" fill="#e57200"/><path d="M102.1,79.787A72.133,72.133,0,0,0,87.466,91.865a13.078,13.078,0,0,1-.293-1.808v2.125a1.207,1.207,0,0,0-.129.129v8.063a1.121,1.121,0,0,0,1.115,1.115H109.31a1.122,1.122,0,0,0,1.115-1.115V79.223a1.123,1.123,0,0,0-1.115-1.115h-4.332Z" fill="#ff8b00"/><path d="M98.159,101.489H88.3a1.136,1.136,0,0,1-1.126-1.138V90.057a13.039,13.039,0,0,0,.293,1.807A12.7,12.7,0,0,0,98.159,101.489Z" fill="#e57200"/><path d="M78.029,100.879v1.679a1.156,1.156,0,0,1-1.162,1.161H58.1a66.444,66.444,0,0,1,11.01-2.23c1.361-.152,2.723-.282,4.108-.351l2.382-.13,1.726-.094Z" fill="url(#m)"/><path d="M75.6,101.008a1.106,1.106,0,0,1-.915.481H69.109c1.361-.152,2.723-.282,4.108-.351Z" fill="#ff8b00"/><path d="M147.1,42.086V67.6a1.157,1.157,0,0,1-1.162,1.162H121.6l-.388-2.629-1.96-13.592V42.086a1.167,1.167,0,0,1,1.174-1.162h25.517A1.157,1.157,0,0,1,147.1,42.086Z" fill="url(#n)"/><path d="M145.843,40.919a1.15,1.15,0,0,1,1.151,1.15V64.305a23.384,23.384,0,0,0-23.387-23.386Z" fill="#e57200"/><rect x="121.493" y="43.155" width="23.375" height="23.376" rx="1.115" fill="#ff8b00"/><path d="M132.611,66.531h-9.862a1.133,1.133,0,0,1-1.133-1.133V55.1A12.7,12.7,0,0,0,132.611,66.531Z" fill="#e57200"/><path d="M146.729,33.329c0,.177,0,.353-.012.505a1.12,1.12,0,0,1-.775.306H120.425a1.168,1.168,0,0,1-1.174-1.163V23.259a17.17,17.17,0,0,1,2.242-3.157,13.722,13.722,0,0,1,10.212-4.848c5.669,0,10.622,3.8,13.169,9.4A20.71,20.71,0,0,1,146.729,33.329Z" fill="url(#o)"/><path d="M144.874,24.656v6.138a1.121,1.121,0,0,1-1.115,1.115H122.608a1.122,1.122,0,0,1-1.115-1.115V20.1a13.722,13.722,0,0,1,10.212-4.848C137.374,15.254,142.327,19.057,144.874,24.656Z" fill="#ff8b00"/><path d="M132.611,31.905h-9.862a1.133,1.133,0,0,1-1.133-1.133v-10.3A12.7,12.7,0,0,0,132.611,31.905Z" fill="#e57200"/><path d="M180.533,145.456a1.15,1.15,0,0,1,1.151,1.15v22.236A23.384,23.384,0,0,0,158.3,145.456Z" fill="#e57200"/><path d="M156.154,169.735v-22h23.364v21.83q-.753.775-1.535,1.534H157.515A1.361,1.361,0,0,1,156.154,169.735Z" fill="#ff8b00"/><path d="M167.189,171.068h-9.861a1.133,1.133,0,0,1-1.133-1.133v-10.3A12.7,12.7,0,0,0,167.189,171.068Z" fill="#e57200"/><path d="M181.754,217.139v23.252a1.237,1.237,0,0,1-.341.857c-.7.74-1.432,1.456-2.171,2.171a1.238,1.238,0,0,1-.857.341h-5.411l-1.866-2-.235-.246-2.7-2.888-3.873,1.832-.34.164-1.843.868-.047.024L158.1,243.4c-.27.129-.529.246-.8.364h-2.159a1.23,1.23,0,0,1-1.233-1.221v-25.4a1.23,1.23,0,0,1,1.233-1.22h25.388a1.217,1.217,0,0,1,.857.363.474.474,0,0,1,.117.153A1.054,1.054,0,0,1,181.754,217.139Z" fill="url(#p)"/><rect x="119.257" y="216.301" width="27.849" height="27.849" rx="1.168" fill="url(#q)"/><path d="M145.843,216.3a1.15,1.15,0,0,1,1.151,1.15v22.237A23.385,23.385,0,0,0,123.607,216.3Z" fill="#e57200"/><rect x="121.493" y="218.537" width="23.375" height="23.376" rx="1.115" fill="#ff8b00"/><path d="M132.611,241.913h-9.862a1.133,1.133,0,0,1-1.133-1.133v-10.3A12.7,12.7,0,0,0,132.611,241.913Z" fill="#e57200"/><path d="M112.655,217.209v25.518a1.158,1.158,0,0,1-1.162,1.162h-1.949c-.281-.118-.575-.258-.856-.387l-3.933-1.843-2.23-1.045-3.861-1.807-2.324,2.476a11.618,11.618,0,0,0,1.819.376H95.988l-.235.246-1.866,1.984H85.975a1.158,1.158,0,0,1-1.162-1.162V217.209a1.157,1.157,0,0,1,1.162-1.161h25.518A1.157,1.157,0,0,1,112.655,217.209Z" fill="url(#r)"/><path d="M111.4,216.044a1.15,1.15,0,0,1,1.151,1.15V239.43a23.384,23.384,0,0,0-23.387-23.386Z" fill="#e57200"/><path d="M110.425,219.393v21.151a1.123,1.123,0,0,1-1.115,1.115h-4.555l-2.23-1.045-3.861-1.807-2.324,2.476a11.618,11.618,0,0,0,1.819.376h-10a1.122,1.122,0,0,1-1.115-1.115V219.393a1.121,1.121,0,0,1,1.115-1.115H109.31A1.122,1.122,0,0,1,110.425,219.393Z" fill="#ff8b00"/><path d="M98.159,241.659H88.3a1.129,1.129,0,0,1-1.126-1.138V230.226a12.7,12.7,0,0,0,9.167,11.057A11.618,11.618,0,0,0,98.159,241.659Z" fill="#e57200"/><rect x="153.911" y="180.924" width="27.849" height="27.849" rx="1.168" fill="url(#s)"/><path d="M180.5,180.924a1.151,1.151,0,0,1,1.151,1.151v22.236a23.385,23.385,0,0,0-23.387-23.387Z" fill="#e57200"/><rect x="156.148" y="183.161" width="23.375" height="23.376" rx="1.115" fill="#ff8b00"/><path d="M167.265,206.536H157.4a1.133,1.133,0,0,1-1.133-1.133v-10.3A12.7,12.7,0,0,0,167.265,206.536Z" fill="#e57200"/><rect x="119.257" y="181.182" width="27.849" height="27.849" rx="1.168" fill="url(#t)"/><path d="M145.843,181.182a1.151,1.151,0,0,1,1.151,1.151v22.236a23.385,23.385,0,0,0-23.387-23.387Z" fill="#e57200"/><rect x="121.493" y="183.418" width="23.375" height="23.376" rx="1.115" fill="#ff8b00"/><path d="M132.611,206.794h-9.862a1.133,1.133,0,0,1-1.133-1.133v-10.3A12.7,12.7,0,0,0,132.611,206.794Z" fill="#e57200"/><rect x="84.809" y="180.925" width="27.849" height="27.849" rx="1.168" fill="url(#u)"/><path d="M111.4,180.925a1.15,1.15,0,0,1,1.151,1.15v22.236a23.384,23.384,0,0,0-23.387-23.386Z" fill="#e57200"/><rect x="87.046" y="183.161" width="23.375" height="23.376" rx="1.115" fill="#ff8b00"/><path d="M98.163,206.537H88.3a1.134,1.134,0,0,1-1.133-1.133v-10.3A12.7,12.7,0,0,0,98.163,206.537Z" fill="#e57200"/><path d="M78.029,146.784V172.3a1.157,1.157,0,0,1-1.162,1.162H63.158c-.106-.74-.188-1.479-.259-2.23a.348.348,0,0,1-.011-.106,108.781,108.781,0,0,1-.575-11.28,110.265,110.265,0,0,1,.657-12c.023-.212.047-.423.07-.623.024-.281.059-.563.094-.845l.094-.762H76.867A1.156,1.156,0,0,1,78.029,146.784Z" fill="url(#v)"/><path d="M77.924,146.773V169a23.032,23.032,0,0,0-2.125-9.719,23.326,23.326,0,0,0-11.3-11.432,13.416,13.416,0,0,0-1.456-.623c.024-.281.059-.563.094-.845l.094-.762H76.773A1.152,1.152,0,0,1,77.924,146.773Z" fill="#e57200"/><path d="M75.8,148.968v21.15a1.123,1.123,0,0,1-1.115,1.116H62.9a.348.348,0,0,1-.011-.106,108.781,108.781,0,0,1-.575-11.28,110.265,110.265,0,0,1,.657-12H74.684A1.122,1.122,0,0,1,75.8,148.968Z" fill="#ff8b00"/><path d="M63.533,171.234H62.9a.348.348,0,0,1-.011-.106A6.279,6.279,0,0,0,63.533,171.234Z" fill="#e57200"/><path d="M78.029,111.666v25.517a1.157,1.157,0,0,1-1.162,1.162H64.108l.27-2.23.012-.07.787-6.468-6.5-.117-4.754-.082-1.373-.023h-.129l-2.23-.036V111.666A1.157,1.157,0,0,1,51.35,110.5H76.867A1.157,1.157,0,0,1,78.029,111.666Z" fill="url(#w)"/><path d="M76.77,110.5a1.151,1.151,0,0,1,1.15,1.151v22.236A23.385,23.385,0,0,0,54.534,110.5Z" fill="#e57200"/><path d="M75.8,113.849V135a1.123,1.123,0,0,1-1.115,1.115H64.378l.012-.07.787-6.468-6.5-.117-4.754-.082-1.373-.023h-.129V113.849a1.122,1.122,0,0,1,1.115-1.115H74.684A1.122,1.122,0,0,1,75.8,113.849Z" fill="#ff8b00"/><path d="M53.92,129.378l-1.373-.023v-4.672A12.464,12.464,0,0,0,53.92,129.378Z" fill="#e57200"/><path d="M78.029,217.209v25.518a1.157,1.157,0,0,1-1.162,1.162H57.512c.246-.752.516-1.491.81-2.23.2-.517.411-1.021.634-1.526A45.352,45.352,0,0,1,69.789,225.05l1.773-1.631,3.427-3.158.81-.751,2.125-1.96V217.2a1.152,1.152,0,0,0-1.151-1.15h.094A1.156,1.156,0,0,1,78.029,217.209Z" fill="url(#x)"/><path d="M77.924,217.55v21.879a23.371,23.371,0,0,0-6.362-16.01l3.427-3.158.81-.751Z" fill="#e57200"/><path d="M75.8,219.51v21.034a1.123,1.123,0,0,1-1.115,1.115H58.322c.2-.517.411-1.021.634-1.526A45.352,45.352,0,0,1,69.789,225.05l1.773-1.631,3.427-3.158Z" fill="#ff8b00"/><path d="M63.533,241.659H58.322c.2-.517.411-1.021.634-1.526A12.4,12.4,0,0,0,63.533,241.659Z" fill="#e57200"/><path d="M78.029,182.091v25.518a1.156,1.156,0,0,1-1.162,1.161H73.991L73.1,207c-.07-.153-.152-.3-.223-.458a100.643,100.643,0,0,1-8.052-23.217,1.733,1.733,0,0,0-.328-.164h.293c-.164-.739-.317-1.49-.458-2.23H76.867A1.157,1.157,0,0,1,78.029,182.091Z" fill="url(#y)"/><path d="M77.924,182.079V204.31a23.032,23.032,0,0,0-2.125-9.719,23.32,23.32,0,0,0-10.975-11.268,1.733,1.733,0,0,0-.328-.164h.293c-.164-.739-.317-1.49-.458-2.23H76.773A1.153,1.153,0,0,1,77.924,182.079Z" fill="#e57200"/><path d="M75.8,184.274v21.151a1.123,1.123,0,0,1-1.115,1.115H72.876a100.643,100.643,0,0,1-8.052-23.217,1.733,1.733,0,0,0-.328-.164H74.684A1.123,1.123,0,0,1,75.8,184.274Z" fill="#ff8b00"/><path d="M180.533,215.881a1.15,1.15,0,0,1,1.151,1.15v22.236A23.384,23.384,0,0,0,158.3,215.881Z" fill="#e57200"/><path d="M179.524,218.16v21.832c-.5.517-1.022,1.022-1.538,1.526h-7.113l-2.7-2.888-3.873,1.832-.34.164-1.843.868-.047.024h-4.554a1.31,1.31,0,0,1-.306-.035,1.372,1.372,0,0,1-1.009-.974,1.119,1.119,0,0,1-.047-.352v-22Z" fill="#ff8b00"/><path d="M163.96,240.626l-1.843.868h-4.789a.433.433,0,0,1-.118-.011,1.134,1.134,0,0,1-1.009-.974.658.658,0,0,1-.012-.153V230.062A12.724,12.724,0,0,0,163.96,240.626Z" fill="#e57200"/><path d="M204.243,159.848a108.4,108.4,0,0,1-.575,11.245c-.059.751-.141,1.5-.247,2.242H189.77a1.23,1.23,0,0,1-1.232-1.221v-25.4a1.229,1.229,0,0,1,1.232-1.22h13.545l.118.915c.059.446.105.88.152,1.326l.036.317v.012A112.764,112.764,0,0,1,204.243,159.848Z" fill="url(#z)"/><path d="M216.391,111.666v17.665h-.117l-.446.012-1.679.023-6.244.082-6.538.083.8,6.49.012.094.27,2.23H189.7a1.157,1.157,0,0,1-1.162-1.162V111.666A1.157,1.157,0,0,1,189.7,110.5h25.517A1.168,1.168,0,0,1,216.391,111.666Z" fill="url(#aa)"/><path d="M216.274,111.654v17.677l-.446.012a22.193,22.193,0,0,0-1.679-5.188A23.4,23.4,0,0,0,192.893,110.5h22.23A1.146,1.146,0,0,1,216.274,111.654Z" fill="#e57200"/><path d="M214.149,113.849v15.517l-6.244.082-6.538.083.8,6.49.012.094H191.883a1.112,1.112,0,0,1-1.1-1.115V113.849a1.112,1.112,0,0,1,1.1-1.115h21.151A1.122,1.122,0,0,1,214.149,113.849Z" fill="#ff8b00"/><path d="M201.891,136.111H192.03a1.133,1.133,0,0,1-1.133-1.133v-10.3A12.7,12.7,0,0,0,201.891,136.111Z" fill="#e57200"/><path d="M244.115,127.77c-5.587.528-11.808,1.009-17.97,1.291-.4.023-.8.047-1.209.059h-.117c-.74.035-1.491.058-2.242.082V111.666a1.157,1.157,0,0,1,1.162-1.163h1.326c1.2.7,2.359,1.456,3.5,2.231A64.15,64.15,0,0,1,244.115,127.77Z" fill="url(#ab)"/><path d="M244.115,127.77c-5.587.528-11.808,1.009-17.97,1.291-.4.023-.8.047-1.209.059h-.117V113.849a1.112,1.112,0,0,1,1.1-1.115h2.641A64.15,64.15,0,0,1,244.115,127.77Z" fill="#ff8b00"/><path d="M226.145,129.061c-.4.023-.8.047-1.209.059v-4.437A12.765,12.765,0,0,0,226.145,129.061Z" fill="#e57200"/><path d="M43.192,112.182v16.949h-.106c-.2-.011-.4-.011-.61-.023l-1.514-.071c-6.033-.281-12.113-.763-17.559-1.267A63.63,63.63,0,0,1,34.366,116.2c1.255-1.032,2.547-2.018,3.885-2.946,1.091-.786,2.218-1.526,3.368-2.23h.411A1.157,1.157,0,0,1,43.192,112.182Z" fill="url(#ac)"/><path d="M43.086,112.171v16.96c-.2-.011-.4-.011-.61-.023a22.111,22.111,0,0,0-1.514-4.425,22.959,22.959,0,0,0-6.6-8.487c1.255-1.032,2.547-2.018,3.885-2.946,1.091-.786,2.218-1.526,3.368-2.23h.317A1.145,1.145,0,0,1,43.086,112.171Z" fill="#e57200"/><path d="M40.962,114.365v14.672c-6.033-.281-12.113-.763-17.559-1.267A63.63,63.63,0,0,1,34.366,116.2c1.255-1.032,2.547-2.018,3.885-2.946h1.6A1.123,1.123,0,0,1,40.962,114.365Z" fill="#ff8b00"/><path d="M203.621,148.052c-.212-.117-.435-.223-.646-.317a22.85,22.85,0,0,0-8.85-2.241c-.387-.024-.8-.036-1.2-.036h10.387v.036l.118.915c.059.446.105.88.152,1.326Z" fill="#e57200"/><path d="M204.243,159.848a108.4,108.4,0,0,1-.575,11.245H192.141a1.307,1.307,0,0,1-.3-.035,1.371,1.371,0,0,1-1.009-.975,1.109,1.109,0,0,1-.047-.351v-22h12.805l.036.317v.012A112.764,112.764,0,0,1,204.243,159.848Z" fill="#ff8b00"/><path d="M201.815,171.068h-9.862a1.134,1.134,0,0,1-1.133-1.133v-10.3A12.7,12.7,0,0,0,201.815,171.068Z" fill="#e57200"/><path d="M209.419,243.76H189.77a1.23,1.23,0,0,1-1.232-1.221V217.186l2.242,2.043.939.856,5.246,4.777A45.2,45.2,0,0,1,208.6,241.518C208.9,242.257,209.172,243.009,209.419,243.76Z" fill="url(#ad)"/><path d="M202.236,180.929c-.118.6-.235,1.2-.376,1.8a1.806,1.806,0,0,1-.094.434,100.232,100.232,0,0,1-6.632,20.306c-.457,1.033-.939,2.066-1.443,3.075-.036.082-.082.165-.118.247l-.986,1.983H189.7a1.156,1.156,0,0,1-1.162-1.161V182.091a1.157,1.157,0,0,1,1.162-1.162Z" fill="url(#ae)"/><path d="M202.236,180.929c-.118.6-.235,1.2-.376,1.8a23.014,23.014,0,0,0-8.967-1.8Z" fill="#e57200"/><path d="M201.766,183.159a100.232,100.232,0,0,1-6.632,20.306c-.457,1.033-.939,2.066-1.443,3.075h-1.808a1.112,1.112,0,0,1-1.1-1.115V184.274a1.112,1.112,0,0,1,1.1-1.115Z" fill="#ff8b00"/><path d="M195.134,203.465c-.457,1.033-.939,2.066-1.443,3.075h-1.667A1.137,1.137,0,0,1,190.9,205.4V195.108A12.7,12.7,0,0,0,195.134,203.465Z" fill="#e57200"/><path d="M208.6,241.518H192.141a1.307,1.307,0,0,1-.3-.035,1.372,1.372,0,0,1-1.009-.974,1.119,1.119,0,0,1-.047-.352V219.229l.939.856,5.246,4.777A45.2,45.2,0,0,1,208.6,241.518Z" fill="#ff8b00"/><path d="M201.815,241.493h-9.862a1.133,1.133,0,0,1-1.133-1.133v-10.3A12.7,12.7,0,0,0,201.815,241.493Z" fill="#e57200"/><path d="M181.754,251.765v.4c-.024-.012-.047-.035-.071-.047-.657-.5-1.3-1.021-1.936-1.572h.786a1.217,1.217,0,0,1,.857.363.3.3,0,0,1,.094.117A1.105,1.105,0,0,1,181.754,251.765Z" fill="url(#af)"/><path d="M85.975,250.673h1.1c-.74.622-1.491,1.221-2.266,1.8v-.634A1.158,1.158,0,0,1,85.975,250.673Z" fill="url(#ag)"/><path d="M78.029,251.835V256.6c-.035.023-.07.035-.1.059-.693.328-1.409.657-2.125.962-1.139.481-2.3.9-3.463,1.279a37.829,37.829,0,0,1-11.549,1.843,33.28,33.28,0,0,1-4.883-.352,33.886,33.886,0,0,1-.223-7.489q.089-1.09.246-2.183v-.047h20.94A1.157,1.157,0,0,1,78.029,251.835Z" fill="url(#ah)"/><path d="M77.924,251.824v4.836c-.693.328-1.409.657-2.125.962-1.139.481-2.3.9-3.463,1.279a23.343,23.343,0,0,0-16.409-8.181v-.047H76.773A1.153,1.153,0,0,1,77.924,251.824Z" fill="#e57200"/><path d="M75.8,254.019v3.6c-1.139.481-2.3.9-3.463,1.279a37.829,37.829,0,0,1-11.549,1.843,33.28,33.28,0,0,1-4.883-.352,33.886,33.886,0,0,1-.223-7.489h19A1.123,1.123,0,0,1,75.8,254.019Z" fill="#ff8b00"/><path d="M181.683,251.659v.458c-.657-.5-1.3-1.021-1.936-1.572-.024,0-.036-.025-.047-.036h.833a1.105,1.105,0,0,1,.857.4.3.3,0,0,1,.094.117A1.1,1.1,0,0,1,181.683,251.659Z" fill="#e57200"/><path d="M211.285,252.786a34.576,34.576,0,0,1-.082,6.526c-.047.364-.094.716-.141,1.068a33.562,33.562,0,0,1-4.894.352,38.771,38.771,0,0,1-15.388-3.274c-.751-.329-1.5-.681-2.242-1.057v-4.636a1.229,1.229,0,0,1,1.232-1.22h21.269C211.144,251.284,211.227,252.035,211.285,252.786Z" fill="url(#ai)"/><path d="M211.2,259.312a23.281,23.281,0,0,0-8.228-6.526,22.85,22.85,0,0,0-8.85-2.241c-.387-.025-.8-.036-1.2-.036h18.1c0,.011.012.023.012.036.105.739.188,1.49.246,2.241A34.576,34.576,0,0,1,211.2,259.312Z" fill="#e57200"/><path d="M211.2,259.312c-.047.364-.094.716-.141,1.068a33.562,33.562,0,0,1-4.894.352,38.771,38.771,0,0,1-15.388-3.274v-4.672h20.5A34.576,34.576,0,0,1,211.2,259.312Z" fill="#ff8b00"/><path d="M181.049,94.024c-.493-.575-1.009-1.15-1.526-1.7m1.526,1.7c-.493-.575-1.009-1.15-1.526-1.7m-22.36-16.444,4.437,2.23Q159.418,76.895,157.163,75.878ZM188.444,217.1l.094.082v-.047a.874.874,0,0,1,.012-.176.156.156,0,0,0,.011-.07ZM64.789,183.159H64.5a1.733,1.733,0,0,1,.328.164C64.813,183.265,64.8,183.218,64.789,183.159Zm12.078,32.889h-.094a1.152,1.152,0,0,1,1.151,1.15v.352l.1-.094v-.247A1.156,1.156,0,0,0,76.867,216.048ZM96.34,241.283l-.352.376h2.171A11.618,11.618,0,0,1,96.34,241.283Zm49.6-200.359h-.093l-.975,6.737-.774,5.364-1.773,12.254-.188,1.256-.316,2.23h4.119A1.157,1.157,0,0,0,147.1,67.6V42.086A1.157,1.157,0,0,0,145.942,40.924ZM87.173,92.181a3.665,3.665,0,0,1,.293-.317,13.039,13.039,0,0,1-.293-1.807ZM188.444,217.1l.094.082v-.047a.874.874,0,0,1,.012-.176.156.156,0,0,0,.011-.07Zm-83.466-139c-.974.528-1.924,1.08-2.875,1.679" fill="none"/></svg>