<svg xmlns="http://www.w3.org/2000/svg" xmlns:xlink="http://www.w3.org/1999/xlink" viewBox="0 0 554.079 578.571"><defs><linearGradient id="a" x1="-10056.291" y1="-2267.661" x2="-10695.354" y2="-1925.962" gradientTransform="matrix(-0.89, 0.456, -0.456, -0.89, -9916.433, 3180.941)" gradientUnits="userSpaceOnUse"><stop offset="0" stop-color="#000016"/><stop offset="0.691" stop-color="#010023"/><stop offset="0.997" stop-color="#141441"/></linearGradient></defs><path d="M17.49,517.834a32.08,32.08,0,0,1,31.145,1.045,38.481,38.481,0,0,1,16.2-24.948A40.429,40.429,0,0,1,81.7,440.72a79.724,79.724,0,0,1,83.614-131.276,93.15,93.15,0,0,1,11.243-19.029q-1.329-2.293-2.555-4.676A101.407,101.407,0,0,1,278.742,139.086,137.672,137.672,0,1,1,362.56,264.377a101.489,101.489,0,0,1-26.3,46.529A93.071,93.071,0,0,1,231.6,438.206a57.182,57.182,0,1,1-95.329,62.066c-.391-.763-.693-1.548-1.047-2.321a40.147,40.147,0,0,1-13.185,12.829,38.526,38.526,0,0,1-59.26,45.336,32.134,32.134,0,1,1-45.295-38.285Z" fill="url(#a)"/></svg>