<svg xmlns="http://www.w3.org/2000/svg" xmlns:xlink="http://www.w3.org/1999/xlink" viewBox="0 0 357.409 384.456"><defs><linearGradient id="a" x1="-1085.291" y1="74.028" x2="-771.655" y2="387.665" gradientTransform="matrix(1, 0, 0, -1, 1086.28, 440.172)" gradientUnits="userSpaceOnUse"><stop offset="0.003" stop-color="#141441"/><stop offset="0.604" stop-color="#010023"/><stop offset="1" stop-color="#000016"/></linearGradient></defs><path d="M271.228,237.452a100.886,100.886,0,0,1-20.53,1.01,39.041,39.041,0,0,1-32.53,31.46c-.12.02-.23.03-.35.05a57.583,57.583,0,0,1-81.95,73.95,57.554,57.554,0,0,1-70.88,15.18,32.933,32.933,0,1,1-32.05-40.52c.53,0,1.05.01,1.579.04q-.225-1.11-.39-2.25a57.6,57.6,0,0,1,25.26-56.72,77.678,77.678,0,0,1,95.4-119.75,100.63,100.63,0,0,1,12.579-51.57A57.615,57.615,0,0,1,207.439.655l.018,0a57.584,57.584,0,0,1,62.34,36.21,101.333,101.333,0,0,1,1.43,200.59Z" fill="url(#a)"/></svg>