<?xml version="1.0" encoding="utf-8"?>
<!-- Generator: Adobe Illustrator 26.0.2, SVG Export Plug-In . SVG Version: 6.00 Build 0)  -->
<svg version="1.1" id="Layer_1" xmlns="http://www.w3.org/2000/svg" xmlns:xlink="http://www.w3.org/1999/xlink" x="0px" y="0px"
	 viewBox="0 0 1801.5 1717.1" style="enable-background:new 0 0 1801.5 1717.1;" xml:space="preserve">
<style type="text/css">
	.st0{fill:#000016;}
</style>
<path class="st0" d="M1801.5,57c0-31.5-25.5-57-57-57H128.7v0.9c-3.2-0.6-6.6-0.9-10-0.9c-31.5,0-57,25.5-57,57
	c0,26.2,17.6,48.2,41.6,54.9c-26.8,23.3-43.8,57.7-43.8,96c0,47.5,26.1,89,64.7,110.8c-25.4,14.9-42.5,42.4-42.5,74
	c0,23.8,9.7,45.4,25.4,60.9c-18.9,11.4-31.5,32.1-31.5,55.7c0,7.7,1.4,15.2,3.8,22C34.4,539,0,578.3,0,625.7
	c0,39.6,24,73.6,58.3,88.1c-10.5,18.8-16.5,40.5-16.5,63.5c0,37.2,15.6,70.8,40.6,94.5c-22.3,10.5-37.7,33.1-37.7,59.4
	c0,30.1,20.2,55.4,47.7,63.2c-27.5,17-45.8,47.3-45.8,81.9c0,24.5,9.2,46.9,24.3,63.9C28.8,1161.8,0,1205.7,0,1256.2
	c0,43.9,21.7,82.6,54.8,106.2c-27.7,27.9-44.8,66.3-44.8,108.7c0,31.5,9.4,60.8,25.7,85.3c-24.7,21.3-37.1,55.2-29.5,89.2
	c11,49.3,59.9,80.3,109.2,69.3c17.9-4,34.2-13.3,46.7-26.6c30.6,29.3,79.2,28.1,108.4-2.5c9.9-10.3,16.7-23.3,19.6-37.3
	c0.4-2.2,0.7-4.3,1-6.5c4.6,1.4,9.3,2.6,14.1,3.6c74.8,15.6,150.9-20.3,186.4-88c31.9,27.8,80.3,24.6,108.2-7.3
	c22.2-25.4,25.2-62.4,7.4-91c56.9-18.7,93.7-73.9,89.1-133.6c88.6,11.5,171.1-47.2,189.4-134.7c1.2-5.7,2.1-11.6,2.7-17.4
	c34.6,7.1,69.6-10.3,84.7-42.3c29,21.9,70.3,16.1,92.2-12.9c17.2-22.8,17.7-54.2,1.2-77.6c71.6,5.7,134.4-47.7,140.1-119.3
	c2.3-28.3-4.8-56.5-20-80.4c41.7-7.7,69.1-47.8,61.7-89.7c-2.1-11-6.4-21.2-12.7-30c33.1-2.2,59.3-29.8,59.3-63.5
	c0-3.9-0.4-7.8-1.1-11.5c12.1-3.5,22.4-11.1,29.4-21.2c15.7,17.2,38.2,28,63.3,28c47.3,0,85.7-38.4,85.7-85.7
	c0-15.8-4.3-30.6-11.8-43.3c21.9-10.1,37-32.2,37-57.8c0-2.2-0.1-4.3-0.3-6.5c10.9,3.1,22.5,4.7,34.4,4.7
	c66.1,0,120.5-50.5,126.6-115c0.2,0,0.4,0,0.6,0c47.3,0,85.7-38.4,85.7-85.7c0-15-3.9-29.1-10.7-41.4c19.7-14.5,32.6-37.9,32.6-64.3
	c0-16.6-5-31.9-13.7-44.7C1780.3,109.4,1801.5,85.7,1801.5,57z M1610.8,192.8l2.4-3.4c0.2,0.5,0.5,1,0.7,1.5
	C1612.8,191.5,1611.8,192.2,1610.8,192.8z M1690.2,78.4l1-1.4c0.2,0.5,0.4,1,0.6,1.5C1691.2,78.4,1690.7,78.4,1690.2,78.4z"/>
</svg>
