<svg xmlns="http://www.w3.org/2000/svg" viewBox="0 0 91.349 104.295"><path d="M40.794,93.968c-2.549,3.584-7.678,6.848-14.045,8.533a29.027,29.027,0,0,1-12.715.665h0c-.33-.06-.66-.128-.984-.206s-.629-.159-.929-.257q-.585-.182-1.122-.4c-.365-.146-.712-.3-1.046-.474C2.931,98.429-1.232,89.849.326,80.71a22.336,22.336,0,0,1,2.109-6.393c2.778-6.387,16.239-29.872,39.711-5.246C42.144,69.075,51.818,79.509,40.794,93.968Z" fill="#fa003f"/><path d="M33.393,99.971a32.635,32.635,0,0,1-6.644,2.53,29.006,29.006,0,0,1-12.717.665c-.33-.06-.66-.128-.984-.206s-.629-.158-.929-.257q-.585-.182-1.122-.4a10.819,10.819,0,0,1-1.046-.476C3.051,98.492-1.088,90.145.257,81.18c1.5,7.791,6.155,14.322,12.671,17.474.438.219.9.434,1.38.631s.97.364,1.486.52c.4.129.816.246,1.236.337.423.108.861.2,1.3.277h.009A37.5,37.5,0,0,0,33.393,99.971Z" fill="#e00040"/><ellipse cx="32.15" cy="68.3" rx="4.096" ry="10.822" transform="translate(-41.659 52.466) rotate(-52.685)" fill="#ff6695"/><ellipse cx="21.208" cy="70.373" rx="3.204" ry="5.767" transform="translate(-51.947 63.273) rotate(-67.685)" fill="#ffb2c0"/><circle cx="26.406" cy="77.463" r="2.283" fill="#ffb2c0"/><path d="M91.285,83.892c-.73,11.183-8.271,18.815-18.706,20.22-.047.007-.209.031-.256.035-11.88,1.091-19.72-3.95-23.388-14.54-3.183-9.2-.243-18.81,6.578-23.271a22.231,22.231,0,0,1,11.859-5.354c9.764-1.318,18.715,3.6,21.617,11.336C91.018,78.56,91.552,79.675,91.285,83.892Z" fill="#fa003f"/><ellipse cx="65.771" cy="67.376" rx="7.99" ry="4.229" transform="translate(-15.506 19.844) rotate(-15.371)" fill="#ff6695"/><ellipse cx="72.302" cy="75.151" rx="5.046" ry="3.019" transform="translate(-20.507 27.593) rotate(-18.975)" fill="#ffb2c0"/><circle cx="74.547" cy="82.174" r="2.524" fill="#ffb2c0"/><path d="M86.118,97.063a21.446,21.446,0,0,1-13.536,7.052c-.043,0-.206.026-.258.035-11.883,1.085-19.718-3.953-23.386-14.543a22.965,22.965,0,0,1-1.1-4.728A27.715,27.715,0,0,0,84.875,97.706Q85.5,97.4,86.118,97.063Z" fill="#e00040"/><path d="M30.292,65.986S43.9,50.85,34.922,8.66l2.573-.347s9.845,36.668-3.689,60.352Z" fill="#b3e81f"/><path d="M63.612,66.739S55.24,18.89,37.495,8.313L40.612,6.8S57.848,21.327,67.8,65.447Z" fill="#b3e81f"/><path d="M40.28,8.441,36.1,9.59a1.859,1.859,0,0,1-2.319-1.231L32.318,3.028A1.858,1.858,0,0,1,33.681.785l2.58-.709a1.9,1.9,0,0,1,2.118.777l3.064,4.892a1.823,1.823,0,0,1-1.163,2.7Z" fill="#b3e81f"/><path d="M37.569,8.625,36.3,8.479l1.2-.164S37.518,8.419,37.569,8.625Z" fill="#b3e81f"/><path d="M33.806,68.666l-1.859-1.421c9.109-15.18,7.508-43.9,6.543-54.5C40.609,23.194,44.492,49.973,33.806,68.666Z" fill="#b3e81f"/><path d="M65.725,66.083l-2.109.654s-8.2-46.823-25.556-58.06l2.221-.233C44.991,11.63,58.363,31.934,65.725,66.083Z" fill="#b3e81f"/><path d="M40.281,8.448,36.1,9.594A1.872,1.872,0,0,1,33.78,8.362l-1.463-5.33A1.874,1.874,0,0,1,33.686.785C35.046,5.13,36.26,6.705,40.281,8.448Z" fill="#0ea50e"/><path d="M65.725,66.083l-2.109.654s-8.2-46.823-25.556-58.06l2.221-.233C44.991,11.63,58.363,31.934,65.725,66.083Z" fill="#0ea50e"/><path d="M31.947,67.248l-1.654-1.257S43.906,50.854,34.926,8.663L36.3,8.482l1.274.146c.155.594.5,2.032.921,4.107v.009C39.455,23.341,41.056,52.065,31.947,67.248Z" fill="#0ea50e"/><path d="M38.49,12.732c-.422-2.075-.766-3.513-.921-4.107l.491.052S38.258,10.175,38.49,12.732Z" fill="#0ea50e"/><circle cx="30.292" cy="88.855" r="5.413" fill="#fff"/><circle cx="33.09" cy="88.753" r="2.606" fill="#000016"/><circle cx="32.328" cy="88.769" r="0.623" fill="#fff"/><circle cx="57.729" cy="87.133" r="5.413" fill="#fff"/><circle cx="55.34" cy="87.494" r="2.606" fill="#000016"/><circle cx="56.098" cy="87.404" r="0.623" fill="#fff"/><circle cx="73.756" cy="83.708" r="5.413" fill="#fff"/><circle cx="71.367" cy="84.07" r="2.606" fill="#000016"/><circle cx="72.125" cy="83.98" r="0.623" fill="#fff"/><circle cx="16.864" cy="79.711" r="5.413" fill="#fff"/><circle cx="19.662" cy="79.609" r="2.606" fill="#000016"/><circle cx="18.9" cy="79.625" r="0.623" fill="#fff"/></svg>