<svg xmlns="http://www.w3.org/2000/svg" xmlns:xlink="http://www.w3.org/1999/xlink" viewBox="0 0 167.985 164.119"><defs><linearGradient id="a" x1="-1061.336" y1="77.46" x2="-943.239" y2="195.559" gradientTransform="matrix(1, 0, 0, -1, 1086.28, 219.699)" gradientUnits="userSpaceOnUse"><stop offset="0.026" stop-color="#ff8b00"/><stop offset="0.349" stop-color="#ff8b00"/><stop offset="0.557" stop-color="#ffad35"/><stop offset="0.756" stop-color="#ffc962"/><stop offset="0.91" stop-color="#ffdb7d"/><stop offset="1" stop-color="#ffe187"/></linearGradient><linearGradient id="b" x1="-1055.766" y1="82.599" x2="-948.804" y2="189.56" gradientTransform="matrix(1, 0, 0, -1, 1086.28, 219.699)" gradientUnits="userSpaceOnUse"><stop offset="0" stop-color="#ffab15"/><stop offset="0.157" stop-color="#ffb939"/><stop offset="0.449" stop-color="#ffd175"/><stop offset="0.696" stop-color="#ffe2a2"/><stop offset="0.888" stop-color="#ffedbd"/><stop offset="1" stop-color="#fff1c7"/></linearGradient><linearGradient id="c" x1="-963.331" y1="76.619" x2="-962.828" y2="77.121" xlink:href="#b"/><linearGradient id="d" x1="113.157" y1="-162.736" x2="133.642" y2="-142.251" gradientTransform="matrix(1, 0, 0, -1, 0, -52.421)" gradientUnits="userSpaceOnUse"><stop offset="0" stop-color="#ffc969"/><stop offset="0.25" stop-color="#ffc25f"/><stop offset="0.676" stop-color="#ffb044"/><stop offset="1" stop-color="#ff9f2b"/></linearGradient><linearGradient id="e" x1="87.024" y1="-162.93" x2="107.509" y2="-142.445" xlink:href="#d"/><linearGradient id="f" x1="34.99" y1="-162.816" x2="55.475" y2="-142.331" xlink:href="#d"/><linearGradient id="g" x1="61.047" y1="-162.736" x2="81.532" y2="-142.251" xlink:href="#d"/><linearGradient id="h" x1="-974.501" y1="84.957" x2="-954.017" y2="105.441" gradientTransform="matrix(1, 0, 0, -1, 1086.28, 219.699)" xlink:href="#d"/><linearGradient id="i" x1="87.024" y1="-188.738" x2="107.509" y2="-168.253" xlink:href="#d"/><linearGradient id="j" x1="-1048.821" y1="85.969" x2="-1030.807" y2="103.984" gradientTransform="matrix(1, 0, 0, -1, 1086.28, 219.699)" xlink:href="#d"/><linearGradient id="k" x1="61.047" y1="-188.544" x2="81.532" y2="-168.059" xlink:href="#d"/><linearGradient id="l" x1="112.799" y1="-110.925" x2="133.284" y2="-90.44" xlink:href="#d"/><linearGradient id="m" x1="86.666" y1="-111.119" x2="107.151" y2="-90.634" xlink:href="#d"/><linearGradient id="n" x1="34.632" y1="-111.005" x2="55.117" y2="-90.52" xlink:href="#d"/><linearGradient id="o" x1="60.689" y1="-110.925" x2="81.174" y2="-90.44" xlink:href="#d"/><linearGradient id="p" x1="112.799" y1="-136.733" x2="133.284" y2="-116.248" xlink:href="#d"/><linearGradient id="q" x1="-949.377" y1="112.278" x2="-932.859" y2="128.797" gradientTransform="matrix(1, 0, 0, -1, 1086.28, 219.699)" xlink:href="#d"/><linearGradient id="r" x1="-948.208" y1="99.413" x2="-942.484" y2="105.136" gradientTransform="matrix(1, 0, 0, -1, 1086.28, 219.699)" xlink:href="#d"/><linearGradient id="s" x1="-950.095" y1="164.443" x2="-940.532" y2="174.006" gradientTransform="matrix(1, 0, 0, -1, 1086.28, 219.699)" xlink:href="#d"/><linearGradient id="t" x1="-949.024" y1="137.566" x2="-935.295" y2="151.295" gradientTransform="matrix(1, 0, 0, -1, 1086.28, 219.699)" xlink:href="#d"/><linearGradient id="u" x1="86.666" y1="-136.927" x2="107.151" y2="-116.442" xlink:href="#d"/><linearGradient id="v" x1="34.632" y1="-136.813" x2="55.117" y2="-116.328" xlink:href="#d"/><linearGradient id="w" x1="-1070.504" y1="112.873" x2="-1055.302" y2="128.076" gradientTransform="matrix(1, 0, 0, -1, 1086.28, 219.699)" xlink:href="#d"/><linearGradient id="x" x1="-1060.184" y1="100.038" x2="-1056.628" y2="103.596" gradientTransform="matrix(1, 0, 0, -1, 1086.28, 219.699)" xlink:href="#d"/><linearGradient id="y" x1="-975.239" y1="69.803" x2="-964.357" y2="80.686" gradientTransform="matrix(1, 0, 0, -1, 1086.28, 219.699)" xlink:href="#d"/><linearGradient id="z" x1="-996.734" y1="65.16" x2="-981.288" y2="80.606" gradientTransform="matrix(1, 0, 0, -1, 1086.28, 219.699)" xlink:href="#d"/><linearGradient id="aa" x1="-1037.747" y1="71.868" x2="-1031.109" y2="78.505" gradientTransform="matrix(1, 0, 0, -1, 1086.28, 219.699)" xlink:href="#d"/><linearGradient id="ab" x1="-1022.758" y1="65.21" x2="-1007.216" y2="80.753" gradientTransform="matrix(1, 0, 0, -1, 1086.28, 219.699)" xlink:href="#d"/><linearGradient id="ac" x1="-1068.215" y1="162.496" x2="-1068.108" y2="162.604" gradientTransform="matrix(1, 0, 0, -1, 1086.28, 219.699)" xlink:href="#d"/><linearGradient id="ad" x1="-1065.384" y1="162.878" x2="-1052.697" y2="175.566" gradientTransform="matrix(1, 0, 0, -1, 1086.28, 219.699)" xlink:href="#d"/><linearGradient id="ae" x1="-971.888" y1="185.375" x2="-965.985" y2="191.277" gradientTransform="matrix(1, 0, 0, -1, 1086.28, 219.699)" xlink:href="#d"/><linearGradient id="af" x1="-999.166" y1="186.335" x2="-984.626" y2="200.875" gradientTransform="matrix(1, 0, 0, -1, 1086.28, 219.699)" xlink:href="#d"/><linearGradient id="ag" x1="-1032.64" y1="197.414" x2="-1032.563" y2="197.492" gradientTransform="matrix(1, 0, 0, -1, 1086.28, 219.699)" xlink:href="#d"/><linearGradient id="ah" x1="-1040.337" y1="183.66" x2="-1031.15" y2="192.848" gradientTransform="matrix(1, 0, 0, -1, 1086.28, 219.699)" xlink:href="#d"/><linearGradient id="ai" x1="-1015.004" y1="206.003" x2="-1014.957" y2="206.05" gradientTransform="matrix(1, 0, 0, -1, 1086.28, 219.699)" xlink:href="#d"/><linearGradient id="aj" x1="64.605" y1="-78.756" x2="78.85" y2="-64.511" xlink:href="#d"/><linearGradient id="ak" x1="-1070.398" y1="136.197" x2="-1054.088" y2="152.506" gradientTransform="matrix(1, 0, 0, -1, 1086.28, 219.699)" xlink:href="#d"/><linearGradient id="al" x1="60.689" y1="-136.733" x2="81.174" y2="-116.248" xlink:href="#d"/><linearGradient id="am" x1="-963.568" y1="77.019" x2="-962.563" y2="77.019" xlink:href="#b"/></defs><path d="M81.005.682,19.17,30.461a6.883,6.883,0,0,0-3.725,4.671L.173,102.043A6.885,6.885,0,0,0,1.5,107.868l42.791,53.659a6.887,6.887,0,0,0,5.384,2.592h68.631a6.889,6.889,0,0,0,5.384-2.592l42.791-53.659a6.889,6.889,0,0,0,1.329-5.825L152.54,35.132a6.883,6.883,0,0,0-3.725-4.671L86.98.682A6.887,6.887,0,0,0,81.005.682Z" fill="url(#a)"/><path d="M125.224,159.608l-1.527,1.917a6.905,6.905,0,0,1-5.385,2.591H49.684a6.885,6.885,0,0,1-5.385-2.591L1.505,107.869a6.885,6.885,0,0,1-1.333-5.823l7.6-33.323A112.889,112.889,0,0,0,118.518,159.8C120.776,159.8,123.005,159.735,125.224,159.608Z" fill="#e57200"/><path d="M159.918,100.7l-1.066-4.665-1.091-4.769-.387-1.693-1.134-5-.387-1.684L152.1,66.439l-.275-1.186-.378-1.684-1.1-4.8-.386-1.693L146.083,40.1a4.965,4.965,0,0,0-.189-.645,5.439,5.439,0,0,0-.524-1.142c-.068-.121-.146-.241-.223-.353a1.429,1.429,0,0,0-.138-.189c-.077-.1-.154-.2-.232-.292a3.06,3.06,0,0,0-.283-.318L144.339,37a4.637,4.637,0,0,0-.361-.326,1,1,0,0,0-.094-.078c-.164-.128-.335-.248-.516-.369a5.485,5.485,0,0,0-.661-.369l-9.169-4.417-1.7-.816-17.606-8.481-1.693-.816-5.13-2.466-.086-.043-1.6-.774-6.891-3.316-1.8-.869L95.864,13.3l-.035-.018-2.294-1.1L86.7,8.888a6.235,6.235,0,0,0-5.413,0l-6.445,3.1-3.5,1.684L71.3,13.7l-9.185,4.417-1.684.816-5.062,2.432-.077.043-1.607.773-.06.026L39.364,29.078l-3.2,1.538-.085.043-1.7.816-9.091,4.383c-.206.1-.412.214-.61.335l-.077.051c-.155.1-.31.215-.456.327a.483.483,0,0,0-.068.051c-.172.146-.335.292-.49.447a5.291,5.291,0,0,0-.421.464l-.232.309c-.009.009-.009.018-.017.027-.086.12-.164.24-.241.369a3.2,3.2,0,0,0-.232.412,2.368,2.368,0,0,0-.155.335c-.034.069-.06.138-.086.207-.043.111-.085.223-.12.335a4.125,4.125,0,0,0-.163.567l-.232,1.022v.009l-3.661,16v.035l-.386,1.684-1.1,4.812-.163.705-.224.979-3.4,14.934-.619,2.689-.387,1.693-1.143,5-2.07,9.082L8.088,100.7a6.4,6.4,0,0,0-.155,1.4c0,.172.009.344.026.515.008.155.026.318.051.482a6.4,6.4,0,0,0,.387,1.349,3.181,3.181,0,0,0,.138.318,3.876,3.876,0,0,0,.223.429c.06.1.12.2.181.293a4.962,4.962,0,0,0,.352.489l.928,1.16.094.121,1.367,1.709,1.349,1.693,3.832,4.8.79,1,.559.7,9.641,12.09,1.478,1.856.12.146.086.112,7.87,9.877,1.349,1.693,9.289,11.643a6.211,6.211,0,0,0,4.872,2.346h62.167a6.543,6.543,0,0,0,.7-.043.755.755,0,0,0,.189-.026c.075-.008.149-.019.223-.034.121-.018.241-.052.361-.078a6.022,6.022,0,0,0,1.427-.541,3.163,3.163,0,0,0,.369-.206,6.24,6.24,0,0,0,.542-.37,6.368,6.368,0,0,0,.7-.644,5.136,5.136,0,0,0,.352-.4l7.467-9.357,1.891-2.372,1.34-1.684,8.885-11.136,1.684-2.114.1-.12.24-.3,8.309-10.423.129-.163,1.22-1.521,3.833-4.812,1.349-1.684,2.32-2.913a1.683,1.683,0,0,0,.137-.189,5.858,5.858,0,0,0,.645-1.082,3.463,3.463,0,0,0,.154-.361l.1-.284a2.428,2.428,0,0,0,.1-.352,6.68,6.68,0,0,0,.181-1V102.7a.9.9,0,0,0,.008-.146,3.482,3.482,0,0,0,.026-.42A5.791,5.791,0,0,0,159.918,100.7Zm-37.206,42.147.266-.326c.249.1.5.215.739.326Z" fill="url(#b)"/><path d="M123.717,142.843h-1l.266-.326C123.227,142.62,123.476,142.732,123.717,142.843Z" fill="url(#c)"/><rect x="112.899" y="89.572" width="21.001" height="21.001" rx="0.881" fill="url(#d)"/><path d="M133.117,89.572a.868.868,0,0,1,.868.867v16.769a17.634,17.634,0,0,0-17.632-17.636h16.764Z" fill="#e57200"/><rect x="114.586" y="91.258" width="17.627" height="17.628" rx="0.841" fill="#ff8b00"/><path d="M122.97,108.886h-7.437a.854.854,0,0,1-.854-.854h0v-7.765A9.579,9.579,0,0,0,122.97,108.886Z" fill="#e57200"/><rect x="86.766" y="89.766" width="21.001" height="21.001" rx="0.881" fill="url(#e)"/><path d="M106.815,89.766a.868.868,0,0,1,.868.868V107.4A17.635,17.635,0,0,0,90.049,89.766h16.766Z" fill="#e57200"/><rect x="88.453" y="91.453" width="17.627" height="17.628" rx="0.841" fill="#ff8b00"/><path d="M96.837,109.08H89.405a.854.854,0,0,1-.854-.854h0v-7.765A9.579,9.579,0,0,0,96.837,109.08Z" fill="#e57200"/><rect x="34.732" y="89.652" width="21.001" height="21.001" rx="0.881" fill="url(#f)"/><path d="M54.781,89.656a.868.868,0,0,1,.868.868v16.768A17.635,17.635,0,0,0,38.015,89.656H54.781Z" fill="#e57200"/><rect x="36.419" y="91.338" width="17.627" height="17.628" rx="0.841" fill="#ff8b00"/><path d="M44.805,108.966H37.369a.854.854,0,0,1-.854-.854h0v-7.765A9.578,9.578,0,0,0,44.805,108.966Z" fill="#e57200"/><rect x="60.789" y="89.572" width="21.001" height="21.001" rx="0.881" fill="url(#g)"/><path d="M80.838,89.572a.868.868,0,0,1,.868.868v16.768A17.635,17.635,0,0,0,64.072,89.572H80.838Z" fill="#e57200"/><rect x="62.476" y="91.258" width="17.627" height="17.628" rx="0.841" fill="#ff8b00"/><path d="M70.86,108.886H63.423a.854.854,0,0,1-.854-.854h0v-7.765A9.579,9.579,0,0,0,70.86,108.886Z" fill="#e57200"/><path d="M133.9,116.256v12.562l-.086.112-.378.463-1.22,1.539-3.007,3.763-1.341,1.685H113.784a.884.884,0,0,1-.885-.883V116.256a.882.882,0,0,1,.885-.877h19.239A.88.88,0,0,1,133.9,116.256Z" fill="url(#h)"/><path d="M133.813,116.249v12.683l-.378.463a17.188,17.188,0,0,0-1.22-3.72,17.6,17.6,0,0,0-16.034-10.294h16.764a.865.865,0,0,1,.868.862Z" fill="#e57200"/><path d="M132.215,117.907v13.027l-3.007,3.763H115.425a.844.844,0,0,1-.842-.842V117.907a.843.843,0,0,1,.842-.842h15.948A.843.843,0,0,1,132.215,117.907Z" fill="#ff8b00"/><path d="M122.97,134.694h-7.437a.854.854,0,0,1-.854-.854h0v-7.765A9.579,9.579,0,0,0,122.97,134.694Z" fill="#e57200"/><rect x="86.766" y="115.574" width="21.001" height="21.001" rx="0.881" fill="url(#i)"/><path d="M106.815,115.575a.867.867,0,0,1,.868.866h0v16.769a17.634,17.634,0,0,0-17.632-17.636h16.764Z" fill="#e57200"/><rect x="88.453" y="117.261" width="17.627" height="17.628" rx="0.841" fill="#ff8b00"/><path d="M96.837,134.889H89.405a.854.854,0,0,1-.854-.854h0v-7.765A9.58,9.58,0,0,0,96.837,134.889Z" fill="#e57200"/><path d="M55.732,116.344v19.238a.881.881,0,0,1-.876.877H40.188l-1.34-1.684-2.337-2.931-.1-.111-1.684-2.114V116.344a.882.882,0,0,1,.876-.886H54.851a.882.882,0,0,1,.881.883Z" fill="url(#j)"/><path d="M54.781,115.461a.868.868,0,0,1,.868.867V133.1a17.634,17.634,0,0,0-17.632-17.636H54.781Z" fill="#e57200"/><path d="M54.048,117.985v15.948a.844.844,0,0,1-.842.842H38.848l-2.337-2.931-.1-.111V117.985a.837.837,0,0,1,.84-.834H53.205a.836.836,0,0,1,.843.831Z" fill="#ff8b00"/><path d="M44.805,134.775H38.85l-2.337-2.931v-5.688A9.586,9.586,0,0,0,44.805,134.775Z" fill="#e57200"/><rect x="60.789" y="115.38" width="21.001" height="21.001" rx="0.881" fill="url(#k)"/><path d="M80.838,115.381a.868.868,0,0,1,.868.867v16.768a17.634,17.634,0,0,0-17.633-17.635H80.838Z" fill="#e57200"/><rect x="62.476" y="117.067" width="17.627" height="17.628" rx="0.841" fill="#ff8b00"/><path d="M70.86,134.7H63.423a.854.854,0,0,1-.854-.854h0v-7.765A9.58,9.58,0,0,0,70.86,134.7Z" fill="#e57200"/><rect x="112.541" y="37.761" width="21.001" height="21.001" rx="0.881" fill="url(#l)"/><path d="M132.759,37.756a.867.867,0,0,1,.867.867V55.392a17.634,17.634,0,0,0-17.632-17.636h16.765Z" fill="#e57200"/><rect x="114.228" y="39.447" width="17.627" height="17.628" rx="0.841" fill="#ff8b00"/><path d="M122.611,57.075h-7.436a.854.854,0,0,1-.854-.854h0V48.456A9.578,9.578,0,0,0,122.611,57.075Z" fill="#e57200"/><rect x="86.408" y="37.955" width="21.001" height="21.001" rx="0.881" fill="url(#m)"/><path d="M106.457,37.956a.868.868,0,0,1,.868.868V55.592A17.635,17.635,0,0,0,89.691,37.956h16.766Z" fill="#e57200"/><rect x="88.095" y="39.641" width="17.627" height="17.628" rx="0.841" fill="#ff8b00"/><path d="M96.478,57.269H89.042a.855.855,0,0,1-.855-.853h0V48.65A9.579,9.579,0,0,0,96.478,57.269Z" fill="#e57200"/><rect x="34.374" y="37.841" width="21.001" height="21.001" rx="0.881" fill="url(#n)"/><path d="M54.423,37.841a.868.868,0,0,1,.867.868V55.477A17.634,17.634,0,0,0,37.658,37.841H54.423Z" fill="#e57200"/><rect x="36.06" y="39.527" width="17.627" height="17.628" rx="0.841" fill="#ff8b00"/><path d="M44.444,57.156H37.005a.854.854,0,0,1-.854-.854h0V48.536A9.579,9.579,0,0,0,44.444,57.156Z" fill="#e57200"/><rect x="60.431" y="37.761" width="21.001" height="21.001" rx="0.881" fill="url(#o)"/><path d="M80.48,37.756a.867.867,0,0,1,.867.867h0V55.392a17.632,17.632,0,0,0-17.63-17.636H80.48Z" fill="#e57200"/><rect x="62.118" y="39.447" width="17.627" height="17.628" rx="0.841" fill="#ff8b00"/><path d="M70.505,57.075h-7.44a.854.854,0,0,1-.855-.854V48.456A9.578,9.578,0,0,0,70.505,57.075Z" fill="#e57200"/><rect x="112.541" y="63.569" width="21.001" height="21.001" rx="0.881" fill="url(#p)"/><path d="M132.59,63.569a.868.868,0,0,1,.868.868h0V81.205a17.634,17.634,0,0,0-17.634-17.636H132.59Z" fill="#e57200"/><rect x="114.228" y="65.255" width="17.627" height="17.628" rx="0.841" fill="#ff8b00"/><path d="M122.611,82.883h-7.436a.854.854,0,0,1-.854-.854h0V74.264A9.578,9.578,0,0,0,122.611,82.883Z" fill="#e57200"/><path d="M154.685,102.756l-4.89,6.127-1.34,1.684h-8.034a.876.876,0,0,1-.885-.867V90.456a.883.883,0,0,1,.881-.885H152.09l.386,1.693.292,1.271,2.123,9.306A1.069,1.069,0,0,1,154.685,102.756Z" fill="url(#q)"/><path d="M152.768,92.533a16.7,16.7,0,0,0-2.225-1.271,17.644,17.644,0,0,0-7.553-1.693h9.1l.386,1.693Z" fill="#e57200"/><path d="M154.891,101.839a1.071,1.071,0,0,1-.206.919l-4.89,6.127h-7.733a.843.843,0,0,1-.842-.842V92.1a.835.835,0,0,1,.839-.833h10.417l.292,1.271Z" fill="#ff8b00"/><path d="M149.6,108.886h-7.437a.855.855,0,0,1-.854-.854v-7.765A9.579,9.579,0,0,0,149.6,108.886Z" fill="#e57200"/><path d="M144.614,115.381l-.069.086-1.271,1.6-2.054,2.578-1.684,2.105v-5.494a.882.882,0,0,1,.885-.877Z" fill="url(#r)"/><path d="M144.614,115.381l-.069.086a16.33,16.33,0,0,0-1.727-.086Z" fill="#e57200"/><path d="M143.274,117.065l-2.054,2.578v-1.736a.843.843,0,0,1,.842-.842Z" fill="#ff8b00"/><path d="M145.061,58.765h-5a.885.885,0,0,1-.885-.883v-18l1.3.627a1.1,1.1,0,0,1,.584.727l3.085,13.5.532,2.337Z" fill="url(#s)"/><path d="M144.674,57.072H141.71a.831.831,0,0,1-.842-.82V40.832a1.039,1.039,0,0,1,.189.4l3.085,13.5Z" fill="#ff8b00"/><path d="M144.674,57.072h-2.861a.855.855,0,0,1-.859-.849V48.456a9.567,9.567,0,0,0,3.188,6.282Z" fill="#e57200"/><path d="M150.947,84.568H140.06a.882.882,0,0,1-.885-.876V64.456a.883.883,0,0,1,.881-.885h6.1l.1.412.292,1.272,4.021,17.632Z" fill="url(#t)"/><path d="M146.247,63.98a17.25,17.25,0,0,0-3.79-.412h3.7Z" fill="#e57200"/><path d="M146.539,65.256l4.021,17.632h-8.85a.838.838,0,0,1-.842-.834V66.094a.838.838,0,0,1,.834-.842h.008Z" fill="#ff8b00"/><path d="M149.248,82.883h-7.436a.854.854,0,0,1-.854-.854h0V74.264A9.578,9.578,0,0,0,149.248,82.883Z" fill="#e57200"/><rect x="86.408" y="63.763" width="21.001" height="21.001" rx="0.881" fill="url(#u)"/><path d="M106.457,63.764a.868.868,0,0,1,.868.867V81.4A17.634,17.634,0,0,0,89.692,63.764h16.765Z" fill="#e57200"/><rect x="88.095" y="65.45" width="17.627" height="17.628" rx="0.841" fill="#ff8b00"/><path d="M96.478,83.078H89.042a.855.855,0,0,1-.855-.855V74.456A9.58,9.58,0,0,0,96.478,83.078Z" fill="#e57200"/><rect x="34.374" y="63.649" width="21.001" height="21.001" rx="0.881" fill="url(#v)"/><path d="M54.423,63.649a.868.868,0,0,1,.867.868V81.285A17.634,17.634,0,0,0,37.658,63.649H54.423Z" fill="#e57200"/><rect x="36.06" y="65.336" width="17.627" height="17.628" rx="0.841" fill="#ff8b00"/><path d="M44.444,82.964H37.005a.855.855,0,0,1-.854-.855V74.344A9.58,9.58,0,0,0,44.444,82.964Z" fill="#e57200"/><path d="M29.525,90.532V109.77a.882.882,0,0,1-.876.885H19.605l-1.349-1.693-.043-.051-4.906-6.153a1.065,1.065,0,0,1-.206-.919l2.4-10.5.283-1.229.1-.455h12.76A.88.88,0,0,1,29.525,90.532Z" fill="url(#w)"/><path d="M29.439,90.523v16.764a17.633,17.633,0,0,0-10.1-15.948,17.339,17.339,0,0,0-3.549-1.229l.1-.455H28.567a.865.865,0,0,1,.872.858Z" fill="#e57200"/><path d="M27.841,92.181v15.948a.837.837,0,0,1-.839.833H18.26l-.043-.051-4.906-6.153a1.065,1.065,0,0,1-.206-.919l2.4-10.5h11.5A.843.843,0,0,1,27.841,92.181Z" fill="#ff8b00"/><path d="M18.6,108.962H18.26l-.043-.051Z" fill="#e57200"/><path d="M29.525,116.344v6.745l-.086-.112-1.6-2-3.051-3.824-1.349-1.693h5.208A.882.882,0,0,1,29.525,116.344Z" fill="url(#x)"/><path d="M29.439,116.326v6.651l-1.6-2-3.051-3.824-1.349-1.693h5.13a.866.866,0,0,1,.87.862Z" fill="#e57200"/><path d="M27.841,117.985v2.99l-3.051-3.824H27a.837.837,0,0,1,.842.832Z" fill="#ff8b00"/><path d="M122.978,142.517c.249.1.5.215.739.326h-1l-6.788,8.516a1.081,1.081,0,0,1-.843.4H112.9v-9.727a.882.882,0,0,1,.885-.876h10.277Z" fill="url(#y)"/><path d="M124.061,141.156l-1.083,1.358a17.525,17.525,0,0,0-6.8-1.358Z" fill="#e57200"/><path d="M115.425,142.843h7.287l-6.788,8.516a1.081,1.081,0,0,1-.843.4h-.5v-8.077A.842.842,0,0,1,115.425,142.843Z" fill="#ff8b00"/><path d="M107.769,142.233v9.529h-21v-9.529a.874.874,0,0,1,.872-.876h19.243a.876.876,0,0,1,.885.867Z" fill="url(#z)"/><path d="M107.683,142.216v9.546h-1.547c-.017-.051-.042-.094-.06-.137a17.7,17.7,0,0,0-8.5-8.584,17.5,17.5,0,0,0-7.527-1.684h16.764a.863.863,0,0,1,.87.856Z" fill="#e57200"/><path d="M106.076,143.883v7.879H88.453v-7.879a.842.842,0,0,1,.842-.842h15.948a.835.835,0,0,1,.833.839Z" fill="#ff8b00"/><path d="M55.732,142.122v9.64H52.914a1.078,1.078,0,0,1-.842-.4l-6.72-8.43-.12-.146L44,141.239H54.856A.882.882,0,0,1,55.732,142.122Z" fill="url(#aa)"/><path d="M55.646,142.1v9.658h-1.5c-.034-.077-.068-.155-.1-.223a17.709,17.709,0,0,0-8.489-8.61c-.1-.051-.215-.1-.327-.146l-1.237-1.547H54.777a.865.865,0,0,1,.869.861Z" fill="#e57200"/><path d="M54.048,143.762v8H52.914a1.078,1.078,0,0,1-.842-.4l-6.72-8.43h7.853a.836.836,0,0,1,.843.829Z" fill="#ff8b00"/><path d="M81.794,142.035v9.727h-21v-9.727a.874.874,0,0,1,.874-.876H80.905a.882.882,0,0,1,.889.875Z" fill="url(#ab)"/><path d="M81.705,142.027v9.735H80.244c-.043-.111-.1-.223-.146-.335a17.625,17.625,0,0,0-16.031-10.271H80.84a.865.865,0,0,1,.865.865Z" fill="#e57200"/><path d="M80.105,143.685v8.077H62.478v-8.077a.842.842,0,0,1,.842-.842H79.259a.843.843,0,0,1,.846.84Z" fill="#ff8b00"/><path d="M18.019,57.123c.071.015.143.027.215.035h-.215Z" fill="url(#ac)"/><path d="M29.164,39.715v18.25a.881.881,0,0,1-.876.877H22.917l.387-1.684,2.664-11.686.971-4.236a1.022,1.022,0,0,1,.541-.7.159.159,0,0,1,.043-.026l1.564-.756Z" fill="url(#ad)"/><path d="M29.087,39.749V55.474A17.575,17.575,0,0,0,27.48,48.11a16.687,16.687,0,0,0-1.512-2.638l.971-4.236a1.022,1.022,0,0,1,.541-.7.159.159,0,0,1,.043-.026Z" fill="#e57200"/><path d="M18.019,57.123c.071.015.143.027.215.035h-.215Z" fill="#ff8b00"/><path d="M27.48,40.531V56.316a.844.844,0,0,1-.842.842H23.305l2.664-11.686.971-4.236A1.021,1.021,0,0,1,27.48,40.531Z" fill="#ff8b00"/><path d="M18.234,57.156h-.215v-.035C18.09,57.136,18.162,57.148,18.234,57.156Z" fill="#e57200"/><path d="M124.86,32.987H113.423a.883.883,0,0,1-.885-.881V27.049l1.693.817.086.042,7.028,3.386Z" fill="url(#ae)"/><path d="M121.345,31.294h-6.272a.831.831,0,0,1-.842-.818V27.861l.086.042Z" fill="#ff8b00"/><path d="M121.345,31.294h-6.169a.855.855,0,0,1-.859-.849V27.908Z" fill="#e57200"/><path d="M106.363,24.073l.96.47.09.04V32.3a.88.88,0,0,1-.88.87H87.283a.872.872,0,0,1-.87-.87V14.473l1.68.8,17.63,8.49Z" fill="url(#af)"/><path d="M107.322,24.54v5.276a17.383,17.383,0,0,0-.962-5.74Z" fill="#e57200"/><path d="M105.724,23.767v6.882a.844.844,0,0,1-.842.843H88.934a.844.844,0,0,1-.842-.843V15.278Z" fill="#ff8b00"/><path d="M96.478,31.491H89.042a.855.855,0,0,1-.855-.853h0V22.872A9.579,9.579,0,0,0,96.478,31.491Z" fill="#e57200"/><path d="M53.687,22.332c-.017-.043-.043-.086-.06-.129l.06-.026Z" fill="url(#ag)"/><path d="M55.371,27.092v5.1a.881.881,0,0,1-.876.876H42.972l3.5-1.684,7.217-3.472,1.427-.687.18-.086Z" fill="url(#ah)"/><path d="M53.627,22.2l.06-.026v.155C53.67,22.289,53.644,22.246,53.627,22.2Z" fill="#e57200"/><path d="M55.294,27.135V29.7a16.793,16.793,0,0,0-.18-2.475Z" fill="#e57200"/><path d="M53.687,22.177v.155c-.017-.043-.043-.086-.06-.129Z" fill="#ff8b00"/><path d="M46.47,31.38l7.217-3.472v2.63a.843.843,0,0,1-.842.842Z" fill="#ff8b00"/><path d="M71.305,13.7l-.051-.025h.094Z" fill="url(#ai)"/><polygon points="81.343 14.583 79.753 15.353 76.133 17.103 62.113 23.843 81.343 14.583" fill="url(#aj)"/><path d="M71.251,13.671h.094L71.3,13.7Z" fill="#e57200"/><path d="M81.347,14.581V29.619A17.615,17.615,0,0,0,76.131,17.1l3.618-1.744Z" fill="#e57200"/><path d="M71.305,13.7l-.051-.025h.094Z" fill="#ff8b00"/><path d="M79.749,15.356V30.462a.837.837,0,0,1-.839.833H62.959a.836.836,0,0,1-.842-.83v-6.62L76.131,17.1Z" fill="#ff8b00"/><path d="M21.443,65.333l.37-1.68h6.48a.873.873,0,0,1,.87.876V83.773a.873.873,0,0,1-.866.88H17.033l.39-1.69.02-.13,3.71-16.27Z" fill="url(#ak)"/><path d="M21.443,65.333l.37-1.68h6.41a.866.866,0,0,1,.86.86v16.77a17.559,17.559,0,0,0-7.93-14.72Z" fill="#e57200"/><path d="M21.153,66.563l-3.71,16.27-.02.13h9.22a.845.845,0,0,0,.84-.84V66.183a.847.847,0,0,0-.84-.85h-5.2Z" fill="#ff8b00"/><path d="M18.234,82.961h-.816l.026-.128Q17.835,82.91,18.234,82.961Z" fill="#e57200"/><rect x="60.431" y="63.569" width="21.001" height="21.001" rx="0.881" fill="url(#al)"/><path d="M80.48,63.569a.868.868,0,0,1,.867.868V81.205A17.634,17.634,0,0,0,63.715,63.569H80.48Z" fill="#e57200"/><rect x="62.118" y="65.256" width="17.627" height="17.628" rx="0.841" fill="#ff8b00"/><path d="M70.505,82.883h-7.44a.854.854,0,0,1-.855-.853h0V74.264A9.578,9.578,0,0,0,70.505,82.883Z" fill="#e57200"/><path d="M21.443,65.333l-.29,1.23m101.83,75.95-.27.33h1C123.473,142.733,123.223,142.624,122.983,142.513Zm0,0-.27.33h1C123.473,142.733,123.223,142.624,122.983,142.513Zm0,0-.27.33h1C123.473,142.733,123.223,142.624,122.983,142.513Zm0,0-.27.33h1C123.473,142.733,123.223,142.624,122.983,142.513Zm0,0-.27.33h1C123.473,142.733,123.223,142.624,122.983,142.513Zm0,0-.27.33h1C123.473,142.733,123.223,142.624,122.983,142.513Zm0,0-.27.33h1C123.473,142.733,123.223,142.624,122.983,142.513Zm0,0-.27.33h1C123.473,142.733,123.223,142.624,122.983,142.513Zm0,0-.27.33h1C123.473,142.733,123.223,142.624,122.983,142.513Zm0,0-.27.33h1C123.473,142.733,123.223,142.624,122.983,142.513ZM18.023,57.124v.029h.21A.783.783,0,0,1,18.023,57.124Zm104.96,85.389-.27.33h1C123.473,142.733,123.223,142.624,122.983,142.513Zm0,0-.27.33h1C123.473,142.733,123.223,142.624,122.983,142.513Zm0,0-.27.33h1C123.473,142.733,123.223,142.624,122.983,142.513Zm0,0-.27.33h1C123.473,142.733,123.223,142.624,122.983,142.513Zm0,0-.27.33h1C123.473,142.733,123.223,142.624,122.983,142.513Zm0,0-.27.33h1C123.473,142.733,123.223,142.624,122.983,142.513Zm0,0-.27.33h1C123.473,142.733,123.223,142.624,122.983,142.513Zm0,0-.27.33h1C123.473,142.733,123.223,142.624,122.983,142.513Zm0,0-.27.33h1C123.473,142.733,123.223,142.624,122.983,142.513Zm0,0-.27.33h1C123.473,142.733,123.223,142.624,122.983,142.513Zm0,0-.27.33h1C123.473,142.733,123.223,142.624,122.983,142.513Zm0,0-.27.33h1C123.473,142.733,123.223,142.624,122.983,142.513Zm0,0-.27.33h1C123.473,142.733,123.223,142.624,122.983,142.513Zm-16.62-118.44-.64-.31m.64.31-.64-.31m.64.31-.64-.31m.64.31-.64-.31m.64.31-.64-.31m.64.31-.64-.31m.64.31-.64-.31m.64.31-.64-.31m.64.31-.64-.31m.64.31-.64-.31m.64.31-.64-.31m.64.31-.64-.31m.64.31-.64-.31m.64.31-.64-.31m.64.31-.64-.31m.64.31-.64-.31m.64.31-.64-.31m.64.31-.64-.31m.64.31-.64-.31m.64.31-.64-.31m.64.31-.64-.31m.64.31-.64-.31m.64.31-.64-.31" fill="none"/><path d="M122.978,142.517l-.266.326h1C123.476,142.732,123.227,142.62,122.978,142.517Zm0,0-.266.326h1C123.476,142.732,123.227,142.62,122.978,142.517Zm0,0-.266.326h1C123.476,142.732,123.227,142.62,122.978,142.517Zm0,0-.266.326h1C123.476,142.732,123.227,142.62,122.978,142.517Zm0,0-.266.326h1C123.476,142.732,123.227,142.62,122.978,142.517Zm0,0-.266.326h1C123.476,142.732,123.227,142.62,122.978,142.517Zm0,0-.266.326h1C123.476,142.732,123.227,142.62,122.978,142.517Zm0,0-.266.326h1C123.476,142.732,123.227,142.62,122.978,142.517Zm0,0-.266.326h1C123.476,142.732,123.227,142.62,122.978,142.517Zm0,0-.266.326h1C123.476,142.732,123.227,142.62,122.978,142.517Zm0,0-.266.326h1C123.476,142.732,123.227,142.62,122.978,142.517Zm0,0-.266.326h1C123.476,142.732,123.227,142.62,122.978,142.517Zm0,0-.266.326h1C123.476,142.732,123.227,142.62,122.978,142.517Zm0,0-.266.326h1C123.476,142.732,123.227,142.62,122.978,142.517Zm0,0-.266.326h1C123.476,142.732,123.227,142.62,122.978,142.517Zm0,0-.266.326h1C123.476,142.732,123.227,142.62,122.978,142.517Zm0,0-.266.326h1C123.476,142.732,123.227,142.62,122.978,142.517Zm0,0-.266.326h1C123.476,142.732,123.227,142.62,122.978,142.517Zm0,0-.266.326h1C123.476,142.732,123.227,142.62,122.978,142.517Zm0,0-.266.326h1C123.476,142.732,123.227,142.62,122.978,142.517Zm0,0-.266.326h1C123.476,142.732,123.227,142.62,122.978,142.517Zm0,0-.266.326h1C123.476,142.732,123.227,142.62,122.978,142.517Z" fill="url(#am)"/><circle cx="109.098" cy="66.462" r="11.295" fill="#fff"/><circle cx="107.049" cy="61.856" r="5.438" fill="#000016"/><circle cx="107.65" cy="63.33" r="1.299" fill="#fff"/><circle cx="56.724" cy="66.462" r="11.295" fill="#fff"/><circle cx="54.674" cy="61.856" r="5.438" fill="#000016"/><circle cx="55.275" cy="63.33" r="1.299" fill="#fff"/></svg>