<svg xmlns="http://www.w3.org/2000/svg" xmlns:xlink="http://www.w3.org/1999/xlink" viewBox="0 0 554.06 578.55"><defs><linearGradient id="a" x1="-10545.117" y1="-1090.048" x2="-11184.158" y2="-748.36" gradientTransform="matrix(-0.89, 0.456, -0.456, -0.89, -9814.339, 4451.656)" gradientUnits="userSpaceOnUse"><stop offset="0.003" stop-color="#141441"/><stop offset="0.309" stop-color="#010023"/><stop offset="1" stop-color="#000016"/></linearGradient></defs><path d="M17.493,517.807a32.085,32.085,0,0,1,31.145,1.045,38.492,38.492,0,0,1,16.2-24.948,40.429,40.429,0,0,1,16.867-53.211,79.724,79.724,0,0,1,83.612-131.276,93.2,93.2,0,0,1,11.243-19.029q-1.329-2.292-2.555-4.676A101.407,101.407,0,0,1,278.745,139.06a137.674,137.674,0,1,1,83.819,125.287,101.489,101.489,0,0,1-26.3,46.529,93.072,93.072,0,0,1-104.658,127.3,57.181,57.181,0,1,1-95.329,62.066c-.392-.764-.693-1.548-1.047-2.321a40.167,40.167,0,0,1-13.185,12.829,38.527,38.527,0,0,1-59.261,45.336,32.134,32.134,0,1,1-45.291-38.279Z" fill="url(#a)"/></svg>