<svg xmlns="http://www.w3.org/2000/svg" xmlns:xlink="http://www.w3.org/1999/xlink" viewBox="0 0 884.436 671.509"><defs><linearGradient id="a" y1="335.754" x2="884.436" y2="335.754" gradientUnits="userSpaceOnUse"><stop offset="0.003" stop-color="#141441"/><stop offset="0.309" stop-color="#010023"/><stop offset="1" stop-color="#000016"/></linearGradient></defs><path d="M884.436,139.223A71.479,71.479,0,0,0,800.46,68.905a129.128,129.128,0,0,0-243.353,60.212c0,3.935.186,7.826.53,11.672a55.791,55.791,0,0,0-65,74.746,115.091,115.091,0,0,0-101.065,68.608,81.457,81.457,0,0,0-117.317,19.784A122.722,122.722,0,0,0,101.619,439.161a60.955,60.955,0,0,0-67,92.96,75.766,75.766,0,1,0,101.816,109,122.645,122.645,0,0,0,203.454-92.264c0-2.38-.075-4.742-.209-7.089,2.309.193,4.643.3,7,.3a82.9,82.9,0,0,0,66.6-33.442,83.029,83.029,0,0,0,152.859-38.75,83.048,83.048,0,0,0,133.32-88.88,96.134,96.134,0,0,0,36.792-89.462A83.024,83.024,0,0,0,815.314,210.6,71.418,71.418,0,0,0,884.436,139.223ZM594.909,220.4c-.332.183-.662.369-.992.555.18-.341.355-.685.528-1.03C594.6,220.082,594.752,220.244,594.909,220.4Z" fill="url(#a)"/></svg>