<?xml version="1.0" encoding="utf-8"?>
<!-- Generator: Adobe Illustrator 26.0.2, SVG Export Plug-In . SVG Version: 6.00 Build 0)  -->
<svg version="1.1" id="Layer_1" xmlns="http://www.w3.org/2000/svg" xmlns:xlink="http://www.w3.org/1999/xlink" x="0px" y="0px"
	 viewBox="0 0 4095.5 1293.3" style="enable-background:new 0 0 4095.5 1293.3;" xml:space="preserve">
<style type="text/css">
	.st0{fill:url(#SVGID_1_);}
	.st1{fill:url(#SVGID_00000101091204590878627000000007236855951844366497_);}
	.st2{fill:url(#SVGID_00000024685220552584338680000017211328252287576468_);}
	.st3{fill:url(#SVGID_00000011012145270005192500000009946192801064265884_);}
	.st4{fill:url(#SVGID_00000183228276515558395410000001263091149541992367_);}
	.st5{fill:#D60240;}
	.st6{fill:url(#SVGID_00000097465404765578754670000011770953029904225206_);}
	.st7{fill:#E00040;}
	.st8{fill:url(#SVGID_00000142177512265044197760000005139938030973196961_);}
	.st9{fill:url(#SVGID_00000172419810570121345880000016393492061922820239_);}
	.st10{fill:url(#SVGID_00000101083940692331785100000013449851049468435899_);}
	.st11{fill:url(#SVGID_00000152249668542413496830000006032295903266834326_);}
	.st12{fill:url(#SVGID_00000050626611895430252530000013104394690603502750_);}
	.st13{opacity:0.5;}
	.st14{fill:#1CA500;}
	.st15{fill:#2C9E05;enable-background:new    ;}
	.st16{fill:#4866FF;}
	.st17{fill:#3E5AFF;}
	.st18{opacity:0.2;fill:#4866FF;enable-background:new    ;}
	.st19{opacity:0.4;fill:#4866FF;enable-background:new    ;}
	.st20{fill:#B7003F;enable-background:new    ;}
	.st21{fill:#B7003F;}
	.st22{opacity:0.2;fill:#3E5AFF;enable-background:new    ;}
	.st23{fill:#2C44FF;}
</style>
<linearGradient id="SVGID_1_" gradientUnits="userSpaceOnUse" x1="-1675.447" y1="211.5849" x2="-855.9534" y2="1031.0786" gradientTransform="matrix(0.9457 -0.3252 -0.3252 -0.9457 1921.74 946.2088)">
	<stop  offset="1.400000e-02" style="stop-color:#FA003F"/>
	<stop  offset="0.365" style="stop-color:#FA0543"/>
	<stop  offset="0.769" style="stop-color:#FA134D"/>
	<stop  offset="1" style="stop-color:#FA1E56"/>
</linearGradient>
<path class="st0" d="M13.8,505.6l747.7-257.1c10.7-3.7,22.3,2,26,12.7l257.1,747.7c3.7,10.7-2,22.3-12.7,26l-747.7,257.1
	c-10.7,3.7-22.3-2-26-12.7L1.1,531.5C-2.6,520.9,3.1,509.3,13.8,505.6z"/>
<linearGradient id="SVGID_00000044167629089858855790000017793765904170021802_" gradientUnits="userSpaceOnUse" x1="102.636" y1="658.1686" x2="401.47" y2="658.1686" gradientTransform="matrix(1 0 0 -1 0 1295.1498)">
	<stop  offset="1.400000e-02" style="stop-color:#FA003F"/>
	<stop  offset="0.365" style="stop-color:#FA0543"/>
	<stop  offset="0.769" style="stop-color:#FA134D"/>
	<stop  offset="1" style="stop-color:#FA1E56"/>
</linearGradient>
<circle style="fill:url(#SVGID_00000044167629089858855790000017793765904170021802_);" cx="252.1" cy="637" r="149.4"/>
<linearGradient id="SVGID_00000173143063268862669380000016243338934330210237_" gradientUnits="userSpaceOnUse" x1="505.681" y1="796.7536" x2="804.515" y2="796.7536" gradientTransform="matrix(1 0 0 -1 0 1295.1498)">
	<stop  offset="1.400000e-02" style="stop-color:#FA003F"/>
	<stop  offset="0.365" style="stop-color:#FA0543"/>
	<stop  offset="0.769" style="stop-color:#FA134D"/>
	<stop  offset="1" style="stop-color:#FA1E56"/>
</linearGradient>
<circle style="fill:url(#SVGID_00000173143063268862669380000016243338934330210237_);" cx="655.1" cy="498.4" r="149.4"/>
<linearGradient id="SVGID_00000167397805479660114060000017916561856419431861_" gradientUnits="userSpaceOnUse" x1="241.066" y1="253.1916" x2="539.9" y2="253.1916" gradientTransform="matrix(1 0 0 -1 0 1295.1498)">
	<stop  offset="1.400000e-02" style="stop-color:#FA003F"/>
	<stop  offset="0.365" style="stop-color:#FA0543"/>
	<stop  offset="0.769" style="stop-color:#FA134D"/>
	<stop  offset="1" style="stop-color:#FA1E56"/>
</linearGradient>
<circle style="fill:url(#SVGID_00000167397805479660114060000017916561856419431861_);" cx="390.5" cy="1042" r="149.4"/>
<linearGradient id="SVGID_00000132796551599236342980000013281483886505810111_" gradientUnits="userSpaceOnUse" x1="644.111" y1="391.7776" x2="942.945" y2="391.7776" gradientTransform="matrix(1 0 0 -1 0 1295.1498)">
	<stop  offset="1.400000e-02" style="stop-color:#FA003F"/>
	<stop  offset="0.365" style="stop-color:#FA0543"/>
	<stop  offset="0.769" style="stop-color:#FA134D"/>
	<stop  offset="1" style="stop-color:#FA1E56"/>
</linearGradient>
<circle style="fill:url(#SVGID_00000132796551599236342980000013281483886505810111_);" cx="793.5" cy="903.4" r="149.4"/>
<circle class="st5" cx="252.1" cy="637" r="149.4"/>
<circle class="st5" cx="655.1" cy="498.4" r="149.4"/>
<circle class="st5" cx="390.5" cy="1042" r="149.4"/>
<circle class="st5" cx="793.5" cy="903.4" r="149.4"/>
<path class="st5" d="M1018.2,932.6l26.1,75.8c3.6,10.5-0.9,21.6-10,24.7l-754.4,259.4c-9.2,3.2-19.5-2.8-23.1-13.3L113.5,862.3
	c159.5,164.9,520.1,202.7,889.6,75.6C1008.1,936.2,1013.2,934.4,1018.2,932.6z"/>
<linearGradient id="SVGID_00000029735678398026929230000014635519103706037427_" gradientUnits="userSpaceOnUse" x1="1278.564" y1="-218.697" x2="2313.4192" y2="816.1582" gradientTransform="matrix(1 0 0 -1 0 1295.1498)">
	<stop  offset="1.400000e-02" style="stop-color:#FA003F"/>
	<stop  offset="0.365" style="stop-color:#FA0543"/>
	<stop  offset="0.769" style="stop-color:#FA134D"/>
	<stop  offset="1" style="stop-color:#FA1E56"/>
</linearGradient>
<path style="fill:url(#SVGID_00000029735678398026929230000014635519103706037427_);" d="M1064.4,699.7h1463.1
	c8.7,0,15.8,7.1,15.8,15.8v561.8c0,8.7-7.1,15.8-15.8,15.8H1064.4c-8.7,0-15.8-7.1-15.8-15.8V715.5
	C1048.6,706.8,1055.7,699.7,1064.4,699.7z"/>
<path class="st7" d="M1366.4,701.6h-250V611c0-6.6,5.4-12,12-12c67.4-7.3,142.8-7.3,226.1,0c6.6,0,12,5.4,12,12l0,0L1366.4,701.6z"
	/>
<path class="st7" d="M1733.6,701.6h-250V611c0-6.6,5.4-12,12-12l0,0c67.4-7.3,142.8-7.3,226.1,0c6.6,0,12,5.4,12,12c0,0,0,0,0,0
	L1733.6,701.6z"/>
<path class="st5" d="M2100.8,701.6h-250V611c0-6.6,5.4-12,12-12c67.4-7.3,142.8-7.3,226,0c6.6,0,12,5.4,12,12L2100.8,701.6z"/>
<path class="st5" d="M2467.9,701.6h-250V611c0-6.6,5.4-12,12-12c67.4-7.3,142.8-7.3,226.1,0c6.6,0,12,5.4,12,12c0,0,0,0,0,0V701.6z"
	/>
<rect x="1116.4" y="699.7" class="st7" width="250" height="2"/>
<rect x="1850.8" y="699.7" class="st7" width="250" height="2"/>
<rect x="2217.9" y="699.7" class="st7" width="250" height="2"/>
<g>
	<path class="st5" d="M2543.4,1215.7v61.6c0,8.7-7.1,15.8-15.8,15.8c0,0,0,0,0,0h-1463c-8.7,0-15.8-7.1-15.9-15.8c0,0,0,0,0,0V716.5
		C1110.8,993.4,1754.4,1211.8,2543.4,1215.7z"/>
	<rect x="1116.4" y="699.7" class="st5" width="250" height="2"/>
	<rect x="1850.8" y="699.7" class="st5" width="250" height="2"/>
	<rect x="2217.9" y="699.7" class="st5" width="250" height="2"/>
	<rect x="1116.4" y="699.7" class="st5" width="250" height="2"/>
	<rect x="1850.8" y="699.7" class="st5" width="250" height="2"/>
	<rect x="2217.9" y="699.7" class="st5" width="250" height="2"/>
	<rect x="1483.6" y="697.7" class="st5" width="250" height="2"/>
</g>
<rect x="1116.4" y="699.7" class="st7" width="250" height="2"/>
<rect x="1483.5" y="697.7" class="st7" width="250" height="2"/>
<rect x="1850.8" y="699.7" class="st7" width="250" height="2"/>
<rect x="2217.9" y="699.7" class="st7" width="250" height="2"/>
<linearGradient id="SVGID_00000016046801675047787640000000870737518627901312_" gradientUnits="userSpaceOnUse" x1="2498.7249" y1="579.6924" x2="4095.4658" y2="579.6924" gradientTransform="matrix(1 0 0 -1 -3.315985e-03 1295.1489)">
	<stop  offset="4.000000e-03" style="stop-color:#19A600"/>
	<stop  offset="0.345" style="stop-color:#59C10D"/>
	<stop  offset="0.645" style="stop-color:#8AD617"/>
	<stop  offset="0.872" style="stop-color:#A8E31D"/>
	<stop  offset="1" style="stop-color:#B3E81F"/>
</linearGradient>
<path style="fill:url(#SVGID_00000016046801675047787640000000870737518627901312_);" d="M2749.9,146.5l1336.2,595.9
	c8,3.6,11.6,12.9,8,20.9l-228.8,513.1c-3.6,8-12.9,11.6-20.9,8L2508.1,688.5c-8-3.6-11.6-12.9-8-20.9l228.8-513.1
	C2732.5,146.5,2741.9,142.9,2749.9,146.5z"/>
<linearGradient id="SVGID_00000109712315014644489150000013106364068817638787_" gradientUnits="userSpaceOnUse" x1="2796.4919" y1="1119.7452" x2="3062.7566" y2="1119.7452" gradientTransform="matrix(1 0 0 -1 0 1295.1498)">
	<stop  offset="4.000000e-03" style="stop-color:#19A600"/>
	<stop  offset="0.345" style="stop-color:#59C10D"/>
	<stop  offset="0.645" style="stop-color:#8AD617"/>
	<stop  offset="0.872" style="stop-color:#A8E31D"/>
	<stop  offset="1" style="stop-color:#B3E81F"/>
</linearGradient>
<path style="fill:url(#SVGID_00000109712315014644489150000013106364068817638787_);" d="M3024.8,271.2l-228.3-101.8l36.9-82.8
	c2.7-6,9.8-8.7,15.8-6.1c0,0,0,0,0,0c64.6,20.8,133.4,51.5,206.4,92.1c6,2.7,8.8,9.8,6.1,15.8c0,0,0,0,0,0L3024.8,271.2z"/>
<linearGradient id="SVGID_00000164504265078218723710000011507369761428556680_" gradientUnits="userSpaceOnUse" x1="3131.8379" y1="970.1889" x2="3398.1016" y2="970.1889" gradientTransform="matrix(1 0 0 -1 0 1295.1498)">
	<stop  offset="4.000000e-03" style="stop-color:#19A600"/>
	<stop  offset="0.345" style="stop-color:#59C10D"/>
	<stop  offset="0.645" style="stop-color:#8AD617"/>
	<stop  offset="0.872" style="stop-color:#A8E31D"/>
	<stop  offset="1" style="stop-color:#B3E81F"/>
</linearGradient>
<path style="fill:url(#SVGID_00000164504265078218723710000011507369761428556680_);" d="M3360.2,420.8L3131.8,319l36.9-82.8
	c2.7-6,9.8-8.7,15.8-6.1c0,0,0,0,0,0c64.6,20.8,133.4,51.5,206.4,92.1c6,2.7,8.8,9.8,6.1,15.8L3360.2,420.8z"/>
<linearGradient id="SVGID_00000075132766480132687080000002488651853593083036_" gradientUnits="userSpaceOnUse" x1="3467.1841" y1="820.6308" x2="3733.4478" y2="820.6308" gradientTransform="matrix(1 0 0 -1 0 1295.1498)">
	<stop  offset="4.000000e-03" style="stop-color:#19A600"/>
	<stop  offset="0.345" style="stop-color:#59C10D"/>
	<stop  offset="0.645" style="stop-color:#8AD617"/>
	<stop  offset="0.872" style="stop-color:#A8E31D"/>
	<stop  offset="1" style="stop-color:#B3E81F"/>
</linearGradient>
<path style="fill:url(#SVGID_00000075132766480132687080000002488651853593083036_);" d="M3695.5,570.4l-228.3-101.8l36.9-82.8
	c2.7-6,9.8-8.7,15.8-6.1c0,0,0,0,0,0c64.6,20.8,133.4,51.5,206.4,92.1c6,2.7,8.8,9.8,6.1,15.8L3695.5,570.4z"/>
<linearGradient id="SVGID_00000173144887747011130080000001609350359076533940_" gradientUnits="userSpaceOnUse" x1="3802.53" y1="671.0731" x2="4068.7937" y2="671.0731" gradientTransform="matrix(1 0 0 -1 0 1295.1498)">
	<stop  offset="4.000000e-03" style="stop-color:#19A600"/>
	<stop  offset="0.345" style="stop-color:#59C10D"/>
	<stop  offset="0.645" style="stop-color:#8AD617"/>
	<stop  offset="0.872" style="stop-color:#A8E31D"/>
	<stop  offset="1" style="stop-color:#B3E81F"/>
</linearGradient>
<path style="fill:url(#SVGID_00000173144887747011130080000001609350359076533940_);" d="M4030.8,719.9l-228.3-101.8l36.9-82.8
	c2.7-6,9.8-8.7,15.8-6.1c0,0,0,0,0,0c64.6,20.8,133.4,51.5,206.4,92.1c6,2.7,8.8,9.8,6.1,15.8L4030.8,719.9z"/>
<g class="st13">
	<path class="st14" d="M3890.3,1220.1l-25.1,56.3c-3.6,8-12.9,11.6-20.9,8c0,0,0,0,0,0L2508.1,688.5c-8-3.6-11.6-12.9-8-20.9
		c0,0,0,0,0,0l228.4-512.2C2672.5,433.6,3171.4,895.2,3890.3,1220.1z"/>
	
		<rect x="3246.2" y="242.2" transform="matrix(0.4073 -0.9133 0.9133 0.4073 1589.229 3183.2737)" class="st14" width="2" height="250"/>
</g>
<path class="st15" d="M3868.8,1268.4l-3.6,8c-3.6,8-12.9,11.6-20.9,8c0,0,0,0,0,0L2508.1,688.5c-8-3.6-11.6-12.9-8-20.9c0,0,0,0,0,0
	l66.1-148.1c263.3,228.6,619.5,453.5,1032.5,637.7C3689.3,1197.6,3779.3,1234.7,3868.8,1268.4z"/>
<rect x="2908.9" y="90.1" transform="matrix(0.4073 -0.9133 0.9133 0.4073 1530.0708 2787.8738)" class="st14" width="8.2" height="250"/>
<rect x="3579.6" y="389.2" transform="matrix(0.4073 -0.9133 0.9133 0.4073 1654.4106 3577.7405)" class="st14" width="8.2" height="250"/>
<rect x="3915" y="538.8" transform="matrix(0.4073 -0.9133 0.9133 0.4073 1716.5735 3972.6216)" class="st14" width="8.2" height="250"/>
<rect x="3244.2" y="239.6" transform="matrix(0.4073 -0.9133 0.9133 0.4073 1592.2314 3182.7534)" class="st14" width="8.2" height="250"/>
<path class="st16" d="M1366.4,108.1h-250V17.5c0-6.6,5.4-12,12-12c67.4-7.3,142.8-7.3,226.1,0c6.6,0,12,5.4,12,12V108.1z"/>
<path class="st16" d="M1733.6,108.1h-250V17.5c0-6.6,5.4-12,12-12c67.4-7.3,142.8-7.3,226.1,0c6.6,0,12,5.4,12,12L1733.6,108.1z"/>
<path class="st17" d="M1366.4,108.1h-250V17.5c0-6.6,5.4-12,12-12c67.4-7.3,142.8-7.3,226.1,0c6.6,0,12,5.4,12,12V108.1z"/>
<path class="st17" d="M1733.6,108.1h-250V17.5c0-6.6,5.4-12,12-12c67.4-7.3,142.8-7.3,226.1,0c6.6,0,12,5.4,12,12L1733.6,108.1z"/>
<rect x="1116.4" y="106.1" class="st18" width="250" height="2"/>
<rect x="1483.6" y="106.1" class="st18" width="250" height="2"/>
<rect x="1116.4" y="106.1" class="st19" width="250" height="2"/>
<rect x="1483.6" y="106.1" class="st19" width="250" height="2"/>
<path class="st20" d="M1042,1001.6l2.3,6.7c3.6,10.5-0.9,21.6-10,24.7l-754.4,259.4c-9.2,3.2-19.5-2.8-23.1-13.3L205,1128.5
	c207.9,30.6,465.5,4.5,728.1-85.8C970.2,1030,1006.6,1016.2,1042,1001.6z"/>
<g>
	<path class="st21" d="M2543.4,1268.6v8.8c0,8.7-7.1,15.8-15.8,15.8c0,0,0,0,0,0h-1463c-8.7,0-15.8-7.1-15.9-15.8c0,0,0,0,0,0
		v-162.2c333.6,101.5,750.5,161.9,1202.7,161.9C2350.6,1277,2447.9,1274.2,2543.4,1268.6z"/>
	<rect x="1116.4" y="699.7" class="st21" width="250" height="2"/>
	<rect x="1850.8" y="699.7" class="st21" width="250" height="2"/>
	<rect x="2217.9" y="699.7" class="st21" width="250" height="2"/>
	<rect x="1116.4" y="692.3" class="st21" width="250" height="6.7"/>
	<rect x="1850.8" y="692.3" class="st21" width="250" height="6.7"/>
	<rect x="2217.9" y="692.3" class="st21" width="250" height="6.7"/>
	<rect x="1483.5" y="692.3" class="st21" width="250" height="6.7"/>
</g>
<text transform="matrix(1 0 0 1 4251.9683 3401.575)" style="font-family:'MyriadPro-Regular'; font-size:12px;">d60240</text>
<text transform="matrix(1 0 0 1 4251.9683 3401.575)" style="font-family:'MyriadPro-Regular'; font-size:12px;">d60240</text>
<path class="st21" d="M932.8,957.5c-29.8,76.9-116.4,115.1-193.3,85.2s-115.1-116.4-85.2-193.3c1.8-4.6,3.8-9.1,6-13.4
	c-1.4,89.6,70.2,163.4,159.8,164.8c18.8,0.3,37.4-2.7,55.2-8.8C896.6,984.7,916.2,972.9,932.8,957.5z"/>
<path class="st21" d="M391.3,691.1C361.5,768,274.9,806.2,198,776.3C121.1,746.4,82.9,659.9,112.8,583c1.8-4.6,3.8-9,6-13.4
	c-1.4,89.6,70.1,163.4,159.8,164.8c18.8,0.3,37.4-2.7,55.2-8.8C355.1,718.3,374.8,706.5,391.3,691.1z"/>
<path class="st21" d="M775.6,586.8c-48.8,66.5-142.3,80.9-208.8,32.1c-46.7-34.2-69.4-92.4-58.3-149.2c1.6,10.4,4.1,20.6,7.5,30.6
	c30.9,89.9,128.9,137.7,218.8,106.8C749.2,602.2,762.9,595.3,775.6,586.8z"/>
<path class="st21" d="M532.9,1086.9c-24.7,78.7-108.6,122.4-187.3,97.7S223.2,1076,248,997.3c2.7-8.5,6.1-16.8,10.3-24.7
	c1.3,12.8,4.1,25.4,8.3,37.5c30.4,88.4,126.7,135.5,215,105.1C500.2,1108.8,517.6,1099.2,532.9,1086.9z"/>
<path class="st16" d="M1064.5,106.1h721.6c8.8,0,15.9,7.1,15.9,15.9v561.8c0,8.8-7.1,15.9-15.9,15.9h-721.6
	c-8.8,0-15.9-7.1-15.9-15.9V121.9C1048.6,113.2,1055.7,106.1,1064.5,106.1z"/>
<g>
	<rect x="1116.4" y="106.1" class="st17" width="250" height="2"/>
	<rect x="1483.6" y="106.1" class="st17" width="250" height="2"/>
	<path class="st17" d="M1801.9,620.6v63.1c0,8.7-7.1,15.8-15.8,15.9c0,0,0,0,0,0h-721.6c-8.7,0-15.8-7.1-15.9-15.8c0,0,0,0,0,0
		V336.6c87.9,163.6,385.3,284.2,738.7,284.2C1792.2,620.7,1797.1,620.7,1801.9,620.6z"/>
	<rect x="1116.4" y="106.1" class="st22" width="250" height="2"/>
	<rect x="1483.6" y="106.1" class="st22" width="250" height="2"/>
</g>
<g>
	<rect x="1116.4" y="106.1" class="st23" width="250" height="2"/>
	<rect x="1483.6" y="106.1" class="st23" width="250" height="2"/>
	<path class="st23" d="M1801.9,678.1v5.6c0,8.7-7.1,15.8-15.8,15.9c0,0,0,0,0,0h-721.6c-8.7,0-15.8-7.1-15.9-15.8c0,0,0,0,0,0V558.3
		c168.9,76,396.9,122.6,648.1,122.6C1732.2,680.9,1767.4,679.9,1801.9,678.1z"/>
	<rect x="1116.4" y="98.7" class="st23" width="250" height="7.4"/>
	<rect x="1483.6" y="98.7" class="st23" width="250" height="7.4"/>
</g>
</svg>
