<svg xmlns="http://www.w3.org/2000/svg" xmlns:xlink="http://www.w3.org/1999/xlink" viewBox="0 0 177.056 111.841"><defs><linearGradient id="a" x1="13.873" y1="105.641" x2="30.832" y2="88.682" gradientUnits="userSpaceOnUse"><stop offset="0" stop-color="#b0e61e"/><stop offset="1" stop-color="#b3e81f"/></linearGradient><linearGradient id="b" x1="85.195" y1="29.108" x2="100.314" y2="13.99" gradientUnits="userSpaceOnUse"><stop offset="0.026" stop-color="#fa003f"/><stop offset="1" stop-color="#fa396a"/></linearGradient></defs><g style="isolation:isolate"><path d="M103.814,30.956l-.106.143L101.09,34.63l-.225-.148,2.173-3.8.1-.173c.263-.4.628-.627.815-.5S104.078,30.555,103.814,30.956Z" fill="#a2d613"/><path d="M104.7,64.479l-.151.095-3.73,2.325-.155-.22,3.414-2.739.156-.124c.392-.276.814-.354.943-.17S105.092,64.2,104.7,64.479Z" fill="#a2d613"/><path d="M68.007,10.494l.018.178.418,4.376-.266.04-.929-4.277-.043-.2c-.072-.474.047-.886.269-.92S67.935,10.02,68.007,10.494Z" fill="#a2d613"/><path d="M55.668,33.874l.042.173,1.036,4.272-.258.078-1.527-4.1-.07-.187c-.138-.459-.079-.884.136-.949S55.529,33.415,55.668,33.874Z" fill="#a2d613"/><path d="M52.531,49.972l.085.156L54.708,54l-.229.141-2.524-3.577L51.84,50.4c-.251-.408-.3-.835-.111-.952S52.28,49.564,52.531,49.972Z" fill="#a2d613"/><path d="M92.322,12.69l-.062.1L90.734,15.2l-.152-.085,1.225-2.562.055-.116c.152-.272.377-.436.5-.365S92.473,12.419,92.322,12.69Z" fill="#a2d613"/><path d="M77.225,7.236l.047.106,1.159,2.6-.156.08-1.453-2.44-.066-.11c-.142-.277-.154-.555-.024-.622S77.083,6.96,77.225,7.236Z" fill="#1ca500"/><path d="M59.267,23.45l.068.093,1.684,2.3-.135.11-1.936-2.077-.088-.094c-.2-.24-.268-.51-.155-.6S59.07,23.21,59.267,23.45Z" fill="#a2d613"/><path d="M105.024,51.1l-.086.077-2.133,1.892-.123-.124,1.886-2.122.086-.1c.221-.218.483-.314.585-.211S105.245,50.883,105.024,51.1Z" fill="#a2d613"/><path d="M105.157,47.87l-.092.152-2.294,3.75-.237-.127,1.826-3.978.083-.181c.227-.422.57-.681.767-.575S105.384,47.448,105.157,47.87Z" fill="#a2d613"/><path d="M59.58,20.725l.071.164,1.74,4.036-.241.12-2.2-3.786-.1-.172c-.214-.429-.227-.858-.026-.958S59.366,20.3,59.58,20.725Z" fill="#a2d613"/><path d="M52.79,67.656l.123.129,3.036,3.179-.185.2-3.375-2.786-.154-.127c-.35-.328-.512-.725-.358-.889S52.44,67.328,52.79,67.656Z" fill="#a2d613"/><path d="M81.116,1.588l-.017.325-.445,8.016h-.492l-.5-7.978-.023-.363c0-.875.327-1.588.737-1.588S81.116.713,81.116,1.588Z" fill="#1ca500"/><path d="M77.593,2.6l.094.28L80,9.805l-.415.165-3.1-6.576-.141-.3c-.294-.74-.256-1.452.091-1.59S77.3,1.858,77.593,2.6Z" fill="#1ca500"/><path d="M83.482,3.361l-.074.263-1.825,6.492-.4-.089,1.04-6.635.047-.3c.159-.718.558-1.243.894-1.168S83.641,2.642,83.482,3.361Z" fill="#1ca500"/><path d="M99.979,72.949a.008.008,0,0,0-.008.008.261.261,0,0,1-.017.085c-.587,2.476-1.242,4.9-1.932,7.241-.17.57-.34,1.131-.5,1.684-.042.136-.085.255-.119.383v.009c-.076.238-.153.476-.229.714-1.634,5.207-3.412,9.946-5.08,13.885-.11.264-.221.528-.332.783s-.2.494-.314.732v.008c-.1.23-.2.459-.307.681-.119.272-.238.536-.357.8-.187.418-.374.817-.561,1.209-.154.34-.307.663-.46.978l-.008.009c-.145.306-.3.6-.434.893-.111.212-.213.425-.315.621a.009.009,0,0,1-.009.009,21.514,21.514,0,0,1-2.841,4.611c-.358.34-.706.655-1.064.936v.008a13.354,13.354,0,0,1-1.242.885c-.306.187-.6.357-.91.519a9.527,9.527,0,0,1-1.54.621h-.009q-.292.09-.587.153a.008.008,0,0,1-.008.009l-.247.051h-.009a6.714,6.714,0,0,1-1.216.144H79.3c-.127.009-.246.009-.374.009-.153-.009-.306-.009-.451-.026H78.42a2.02,2.02,0,0,1-.23-.025h-.008a1.355,1.355,0,0,1-.179-.017c-.085-.017-.153-.026-.238-.043h-.009a1.3,1.3,0,0,1-.255-.051,7.942,7.942,0,0,1-.782-.2c-.111-.034-.213-.077-.315-.119H76.4c-.162-.059-.323-.128-.476-.187a.288.288,0,0,0-.077-.034,8.008,8.008,0,0,1-1.8-1.183c-.051-.043-.093-.085-.136-.128-.17-.153-.332-.314-.485-.476a8.006,8.006,0,0,1-.545-.664q-1.965-2.653-3.7-5.283c-.289-.442-.57-.877-.851-1.31-.552-.876-1.1-1.753-1.616-2.621-.264-.433-.519-.868-.766-1.3-.34-.579-.663-1.157-.978-1.736-.476-.859-.936-1.727-1.378-2.586s-.868-1.727-1.276-2.578c-.273-.57-.536-1.132-.792-1.7-.51-1.131-.986-2.263-1.446-3.386v-.009Q59.4,84.286,58.8,82.614a77.77,77.77,0,0,1-4.365-34.049c.077-.791.17-1.565.264-2.34q.23-1.736.536-3.419c.136-.741.281-1.481.434-2.2.077-.366.153-.724.238-1.081.162-.714.341-1.421.519-2.118.162-.613.323-1.209.494-1.8.34-1.183.706-2.339,1.1-3.454.2-.562.392-1.106.6-1.651a.008.008,0,0,0,.008-.008c.349-.928.715-1.829,1.081-2.706s.757-1.727,1.157-2.544.8-1.625,1.217-2.39c.135-.247.272-.493.416-.74a1.544,1.544,0,0,1,.145-.256c3.4-5.862,8.261-10.363,13.646-11.689a13.529,13.529,0,0,1,1.532-.281A.763.763,0,0,1,78,9.854c.128-.017.264-.025.391-.034a2.073,2.073,0,0,1,.222-.017.328.328,0,0,1,.127-.017,1.977,1.977,0,0,1,.213-.008,3.7,3.7,0,0,1,.434-.017H79.4a7.037,7.037,0,0,1,.74.017.51.51,0,0,1,.11.008c.094,0,.188.009.281.017h.025a9.345,9.345,0,0,1,1.362.187.177.177,0,0,1,.068.009h.008a8.11,8.11,0,0,1,.8.17H82.8c.2.06.416.11.621.179.1.034.212.068.315.11h.008c5.522,1.83,11.128,7.47,15.918,18.616C105,41.487,103.536,58.111,99.979,72.949Z" fill="#1ca500"/><path d="M92.092,96.958c-.11.264-.221.528-.332.783s-.221.5-.331.749V98.5c-.094.23-.2.442-.29.664-.119.272-.238.536-.357.8-.187.418-.374.817-.561,1.209-.154.34-.307.663-.46.978l-.008.009c-.145.306-.3.6-.434.893-.111.212-.213.425-.315.621a.009.009,0,0,1-.009.009,21.514,21.514,0,0,1-2.841,4.611c-.358.34-.706.655-1.064.936v.008a13.354,13.354,0,0,1-1.242.885c-.306.187-.6.357-.91.519a9.527,9.527,0,0,1-1.54.621h-.009a5.759,5.759,0,0,1-.595.162l-.247.051h-.009a6.714,6.714,0,0,1-1.216.144H79.3c-.127.009-.246.009-.374.009-.153-.009-.306-.009-.451-.026H78.42a2.02,2.02,0,0,1-.23-.025h-.008a1.355,1.355,0,0,1-.179-.017c-.085-.017-.153-.026-.238-.043h-.009a1.3,1.3,0,0,1-.255-.051,7.942,7.942,0,0,1-.782-.2c-.111-.034-.213-.077-.315-.119H76.4c-.162-.059-.323-.128-.476-.187a.288.288,0,0,0-.077-.034,8.008,8.008,0,0,1-1.8-1.183c-.051-.043-.093-.085-.136-.119v-.009c-.17-.153-.332-.314-.485-.476a7.908,7.908,0,0,1-.553-.664q-1.965-2.653-3.693-5.283c-.289-.442-.57-.877-.851-1.31-.552-.876-1.1-1.753-1.616-2.621-.264-.433-.519-.868-.766-1.3-.34-.579-.663-1.157-.978-1.736-.476-.859-.936-1.727-1.378-2.586s-.868-1.727-1.276-2.578c-.273-.57-.536-1.132-.792-1.7-.51-1.131-1-2.263-1.446-3.386v-.009q-.688-1.683-1.276-3.343a77.77,77.77,0,0,1-4.365-34.049c.077-.791.17-1.565.264-2.34q.23-1.736.536-3.419c.136-.741.281-1.481.434-2.2.077-.366.153-.724.238-1.081.162-.714.341-1.421.519-2.118.162-.613.323-1.209.494-1.8.348-1.183.714-2.331,1.1-3.454.2-.562.392-1.106.6-1.651a.008.008,0,0,0,.008-.008c.349-.928.715-1.829,1.081-2.706s.757-1.727,1.157-2.544.8-1.625,1.217-2.39c.135-.247.272-.493.416-.74a1.544,1.544,0,0,1,.145-.256,62.608,62.608,0,0,0-.179,47.1q.894,2.2,1.957,4.263.357.714.74,1.4c.179.324.366.647.545.97A49.544,49.544,0,0,0,75.944,88.2c.46.408.936.808,1.413,1.191.1.085.2.161.306.246q.281.217.562.434a41.383,41.383,0,0,0,5.189,3.395c.332.179.655.357,1,.528.408.212.834.416,1.25.612a1.761,1.761,0,0,0,.213.1.324.324,0,0,0,.077.034c.017.009.025.017.033.017a2.809,2.809,0,0,0,.29.128h.008c.162.076.307.144.468.212.043.018.077.035.119.052.137.059.264.119.4.169A37.3,37.3,0,0,0,92.092,96.958Z" fill="#1ca500" opacity="0.3" style="mix-blend-mode:multiply"/><path d="M78.956,9.778l-.025.314c-.1.111-.2.221-.3.332C61.8,29.074,62.145,55.278,65.42,74.038c.094.519.187,1.038.281,1.548A158.733,158.733,0,0,0,76.8,110.954l-.391.187H76.4c-.162-.059-.323-.128-.476-.187l-.051.017-.026-.051A160.834,160.834,0,0,1,64.578,74.191c-.06-.323-.111-.655-.162-.978C61.277,54.376,61.243,28.529,77.91,9.965A1.014,1.014,0,0,1,78,9.854c.128-.017.264-.025.391-.034a2.073,2.073,0,0,1,.222-.017.328.328,0,0,1,.127-.017A1.977,1.977,0,0,1,78.956,9.778Z" fill="#b3e81f"/><path d="M91.216,74.582A190.433,190.433,0,0,1,80.53,111.26l-.255-.111-.332-.136c.272-.638,27.132-64.056,2.859-100.844.2.06.416.11.621.179.1.034.212.068.315.11h.008C90.68,21.323,97.367,41.129,91.216,74.582Z" fill="#b3e81f"/><path d="M79.73,111.294a2.322,2.322,0,0,0,.043.23l-.451.093H79.3l-.357.077c-.008-.026-.008-.042-.017-.068a.7.7,0,0,1-.017-.128c-.042-.2-.085-.391-.119-.6-.026-.136-.051-.281-.068-.425-2.935-17.91-1.055-87.742,1.421-100.691,0-.017.008-.034.008-.052l.06.009.323.068h.025l.426.085c-2.416,12.473-4.254,79.132-1.642,99v.009C79.458,109.8,79.586,110.6,79.73,111.294Z" fill="#b3e81f"/><path d="M78.369,10.382C61.8,28.427,61.455,53.866,65.156,74.616A158.956,158.956,0,0,0,76.3,110.767l-.383.187-.051.017-.026-.051a8.008,8.008,0,0,1-1.8-1.183c-.051-.043-.093-.085-.136-.119v-.009a162.858,162.858,0,0,1-10.635-35.35c-.315-1.8-.578-3.565-.817-5.309-3.233-24.52,1.506-44.734,13.825-58.789a13.529,13.529,0,0,1,1.532-.281A.763.763,0,0,1,78,9.854c.128-.017.264-.025.391-.034Z" fill="#1ca500" opacity="0.3" style="mix-blend-mode:multiply"/><path d="M90.859,74.684a193.366,193.366,0,0,1-10.584,36.465c-.085.2-.128.306-.136.324l-.409-.179-.578-.246-.366-.154-.213-.093c.009-.026.06-.137.145-.332.051-.145.136-.34.238-.587v-.009c.1-.272.239-.595.383-.978C83.6,98.03,103.272,43.248,81.415,10.288l.5-.3a.177.177,0,0,1,.068.009h.008a8.11,8.11,0,0,1,.8.17H82.8c.2.06.416.11.621.179C90.365,21.331,97,41.232,90.859,74.684Z" fill="#1ca500" opacity="0.3" style="mix-blend-mode:multiply"/><path d="M79.152,111.048c.025.127.051.255.076.382l-.323.068-.425.085-.06.017-.11.026-.12-.051h-.008a1.355,1.355,0,0,1-.179-.017c-.008.025-.017.034-.017.042l-.221-.085h-.009a1.3,1.3,0,0,1-.255-.051.114.114,0,0,1-.008-.051q-.1-.472-.179-1.021c-.749-4.637-1.174-12.634-1.37-22.188-.527-27.183.893-66.949,2.689-77.78.025-.187.059-.366.085-.527.008-.043.017-.077.025-.111a1.977,1.977,0,0,1,.213-.008,3.7,3.7,0,0,1,.434-.017H79.4a7.037,7.037,0,0,1,.74.017c0-.017.008-.034.008-.052l.06.009.042.051.188.179c-1.872,9.673-3.4,51.975-2.774,79.676.17,7.2.485,13.417.97,17.816.076.655.153,1.276.238,1.846.009.06.009.119.017.17.026.145.043.264.068.4v.009c.017.144.042.289.068.425C79.067,110.562,79.109,110.809,79.152,111.048Z" fill="#1ca500" opacity="0.3" style="mix-blend-mode:multiply"/><path d="M87.94,109.751c-3.932,3.793-10.148,2.936-8.119-6.852S93.268,75.738,102.4,71.578s22.581,7.341,8.88,18.378C101.522,97.818,92.253,105.591,87.94,109.751Z" fill="#1ca500"/><path d="M81.289,111.243l-.373-.39c.268-.256,26.856-25.741,33.649-36.661l.458.284C108.194,85.454,81.557,110.986,81.289,111.243Z" fill="#b3e81f"/><path d="M111.737,72.192A57.339,57.339,0,0,0,97.172,83.073a83.285,83.285,0,0,0-9.9,12.251c-.748,1.107-1.446,2.2-2.093,3.251-.025.051-.059.093-.085.144-.247.4-.485.792-.714,1.183-.3.5-.587,1-.86,1.48-.008,0,0,.009,0,.009-1.7,2.969-2.961,5.538-3.8,7.359-.111.23-.212.451-.3.655-.154.341-.29.638-.392.9-.1.2-.178.392-.238.544-.009.018-.017.026-.017.035-.145.34-.238.578-.289.7,0,.009,0,.017-.009.017a.34.34,0,0,0-.025.077l-.136-.051-.12-.051h-.008l-.162-.06-.076-.034c.017-.042.238-.621.672-1.633.085-.171.161-.349.255-.545.119-.272.255-.579.408-.9q.115-.255.256-.536c.264-.578.57-1.208.918-1.9a.061.061,0,0,1,.009-.034c.987-1.974,2.272-4.364,3.846-6.976.246-.417.51-.834.774-1.268.11-.17.221-.349.331-.528s.222-.34.332-.51c.324-.511.664-1.03,1-1.549A83.473,83.473,0,0,1,97.52,81.967a57.741,57.741,0,0,1,13.477-10c.1-.051.2-.111.315-.162.059-.034.119-.059.179-.093l.118.238Z" fill="#b3e81f"/><path d="M80.639,111.578l-1.176-1.23c.267-.256,26.8-25.69,33.558-36.549l1.445.9C107.6,85.739,81.737,110.528,80.639,111.578Z" fill="#1ca500" opacity="0.3" style="mix-blend-mode:multiply"/><path d="M111.15,72.26A56.663,56.663,0,0,0,97.4,82.35v.009a82.012,82.012,0,0,0-10.533,12.8c-.433.646-.851,1.276-1.25,1.905l-.255.409-.409.638c0,.008,0,.008-.008.017-.264.434-.528.859-.783,1.276-1.676,2.8-3,5.334-4,7.351-.221.451-.425.876-.6,1.268-.093.187-.179.374-.264.544-.144.332-.289.63-.408.91-.094.2-.17.383-.238.545-.349.783-.553,1.3-.63,1.5a.155.155,0,0,0-.017.043c-.008.025-.017.034-.017.042l-.221-.085h-.009l-.263-.1-.519-.2c.008-.025.127-.314.34-.825.23-.553.587-1.37,1.063-2.39.086-.179.162-.358.256-.545.136-.289.289-.6.442-.919.12-.247.238-.493.366-.749.808-1.625,1.821-3.539,3.037-5.632a.027.027,0,0,0,.009-.017c.876-1.506,1.855-3.105,2.935-4.756.153-.221.3-.451.451-.672.043-.068.094-.136.136-.2.034-.043.06-.094.094-.136.187-.281.383-.562.578-.843A80.887,80.887,0,0,1,98.022,80.283a56.392,56.392,0,0,1,12.4-8.857c.077-.042.162-.085.238-.128l.137.272.2.392Z" fill="#1ca500" opacity="0.3" style="mix-blend-mode:multiply"/><path d="M101.659,71.947c-6.3,3.7-11.915,10.845-14.878,19.908a37.324,37.324,0,0,0-1.287,19.532c-3.568,1.5-7.309-.584-5.676-8.489C81.8,93.377,92.663,76.671,101.659,71.947Z" fill="#1ca500" opacity="0.3" style="mix-blend-mode:multiply"/><path d="M31.311,111.345c4.4-2.841,16.748-10.9,28.038-12.829s13,8.077,3.516,10.923C51.065,112.98,31.311,111.345,31.311,111.345Z" fill="#a2d613"/><path d="M65.073,108.55a12.653,12.653,0,0,1-2.208.885c-11.8,3.541-31.554,1.911-31.554,1.911,1.9-1.227,5.28-3.428,9.416-5.68,2.135,3.19,9.769,4.908,18.548,3.927A43.616,43.616,0,0,0,65.073,108.55Z" fill="#a2d613" opacity="0.3" style="mix-blend-mode:multiply"/><path d="M32.635,103.286s-.509-25.445,14.534-31.748C59.512,66.367,63.274,77.672,57.95,86.2,52.676,94.638,40.677,102.2,32.635,103.286Z" fill="#a2d613"/><path d="M54.086,91.08c-6.016,6.3-15,11.334-21.448,12.2,0,0-.509-25.437,14.532-31.748a16.451,16.451,0,0,1,4.171-1.192,14.093,14.093,0,0,0-3.226,9.239C48.115,84.726,50.578,89.161,54.086,91.08Z" fill="#a2d613" opacity="0.3" style="mix-blend-mode:multiply"/><path d="M29.623,103.824S43.518,78.981,32,65.4c-9.45-11.142-19.11-1.835-18.346,9.177C14.411,85.483,22.265,98.814,29.623,103.824Z" fill="#a2d613"/><g opacity="0.3"><path d="M36.128,84.849a63.85,63.85,0,0,1-6.507,18.976C22.269,98.811,14.407,85.48,13.653,74.576c-.345-4.97,1.436-9.6,4.362-12.149a12.854,12.854,0,0,0-2.144,7.048c0,8.5,8.615,15.391,19.239,15.391C35.455,84.866,35.792,84.857,36.128,84.849Z" fill="#a2d613" style="mix-blend-mode:multiply"/></g><path d="M57.167,103.185c-.073.053-.155.105-.227.149-10.5,6.565-23.947,7.889-23.947,7.889a37.339,37.339,0,0,1,4.962-9.957c.654,3.856,4.789,6.836,10.869,4.978A73.373,73.373,0,0,0,57.167,103.185Z" fill="#b4d821"/><path d="M33.738,110.835C32.231,104.108,27.893,85.163,31,70.556S47.968,58.85,46.95,71.736C45.685,87.764,33.738,110.835,33.738,110.835Z" fill="#b3e81f"/><g opacity="0.3" style="mix-blend-mode:multiply"><path d="M42.853,89.336a177.758,177.758,0,0,1-9.115,21.5c-1.391-6.188-5.162-22.71-3.336-36.691C30.684,82.184,36.064,88.679,42.853,89.336Z" fill="#b3e81f"/></g><path d="M33.409,111.234S13.546,113.656,8.15,96.485,23.1,78.424,29.67,87.766C35.719,96.37,34.519,102.416,33.409,111.234Z" fill="url(#a)"/><path d="M34.274,103.86c-.1,2.568-.482,4.365-.863,7.372,0,0-19.867,2.428-25.265-14.743a15.418,15.418,0,0,1-.727-7.275c3.608,7.994,14.059,14.655,26.392,14.655C33.965,103.869,34.119,103.869,34.274,103.86Z" fill="#b3e81f" opacity="0.3" style="mix-blend-mode:multiply"/><path d="M26.7,110.979s-18.161,3.976-24.827-5.151c-5.47-7.489,2.094-11.612,8.963-9.281C17.643,98.856,24.775,105.774,26.7,110.979Z" fill="#d7ff45"/><path d="M26.7,110.982s-18.158,3.97-24.829-5.154C-.215,102.97-.406,100.6.558,98.886c1.963,6.468,10.487,11.342,20.693,11.342a30.341,30.341,0,0,0,4.953-.395A11.179,11.179,0,0,1,26.7,110.982Z" fill="#ceef43" opacity="0.4" style="mix-blend-mode:multiply"/><path d="M33.84,109s-6.428-16.856,2.1-24.409c6.994-6.2,12.208.507,10.7,7.377C45.137,98.774,38.943,106.487,33.84,109Z" fill="#d7ff45"/><path d="M40.027,103.974a21.812,21.812,0,0,1-6.189,5.031S27.885,93.377,35.056,85.48a18.286,18.286,0,0,0-.882,5.7C34.174,96.76,36.555,101.6,40.027,103.974Z" fill="#ceef43" opacity="0.4" style="mix-blend-mode:multiply"/><path d="M33,111.222c2.375-6.738,5.395-13.107,17.446-21.669,10.1-7.178,19.367,5.73,6.494,13.783C46.445,109.9,33,111.222,33,111.222Z" fill="#b3e81f"/><path d="M44.189,108.882a67.136,67.136,0,0,1-11.2,2.341,41.053,41.053,0,0,1,3.3-7.4C37.418,106.051,40.345,107.892,44.189,108.882Z" fill="#b3e81f" opacity="0.3" style="mix-blend-mode:multiply"/><ellipse cx="57.706" cy="75.518" rx="0.654" ry="1.244" transform="translate(-31.01 41.424) rotate(-31.593)" fill="#fff"/><ellipse cx="43.361" cy="64.704" rx="0.772" ry="1.468" transform="translate(-27.471 32.306) rotate(-31.593)" fill="#fff"/><ellipse cx="40.635" cy="64.704" rx="0.515" ry="0.979" transform="translate(-27.875 30.878) rotate(-31.593)" fill="#fff"/><ellipse cx="51.044" cy="98.089" rx="1.557" ry="2.227" transform="translate(-52.832 60.186) rotate(-42.462)" fill="#fff"/><ellipse cx="57.149" cy="89.516" rx="0.559" ry="0.8" transform="translate(-45.443 62.058) rotate(-42.462)" fill="#fff"/><ellipse cx="19.888" cy="104.416" rx="0.559" ry="0.8" transform="translate(-65.275 40.812) rotate(-42.462)" fill="#fff"/><circle cx="67.88" cy="44.733" r="8.954" fill="#fff"/><circle cx="71.108" cy="42.16" r="4.311" fill="#000016"/><circle cx="69.427" cy="43.328" r="1.03" fill="#fff"/><circle cx="89.984" cy="44.733" r="8.954" fill="#fff"/><circle cx="93.212" cy="42.16" r="4.311" fill="#000016"/><circle cx="91.531" cy="43.328" r="1.03" fill="#fff"/><path d="M122.461,105.184c-16.207-67.215-6.944-84.878-6.944-84.878,0,.022-.012.045-.012.068a.2.2,0,0,0-.011.079,22.655,22.655,0,0,0-.6,5.109.033.033,0,0,0,0,.045c-1.036,12.124-1.518,43.546,15.4,78.5C131.1,117.364,123.556,109.69,122.461,105.184Z" fill="#a2d613"/><path d="M115.516,20.307c-4.211,16.041,13.684,69.241,14.737,83.251s-6.689,6.191-7.79,1.625C106.252,37.973,115.516,20.307,115.516,20.307Z" fill="#a2d613"/><path d="M122.461,105.184c-16.207-67.215-6.944-84.878-6.944-84.878,0,.022-.012.045-.012.068a.2.2,0,0,0-.011.079c-.083.511-.354,2.293-.6,5.109a.033.033,0,0,0,0,.045c-1.036,12.124-1.518,43.546,15.4,78.5C131.1,117.364,123.556,109.69,122.461,105.184Z" fill="#a2d613" opacity="0.3" style="mix-blend-mode:multiply"/><path d="M129.6,110.729c1.171-.62,2.294-2.228,2.676-5.09,1.163-8.549,12.952-20.128,31.454-24.364a.248.248,0,0,1-.051,0,.119.119,0,0,1-.05,0C161.6,81.543,129.2,86.11,129.6,110.729Z" fill="#a2d613"/><path d="M163.726,81.276c-18.5,4.235-30.287,15.815-31.446,24.364-1.022,7.533-7.163,6.42-5.676,1.3C134.162,80.907,163.726,81.276,163.726,81.276Z" fill="#a2d613"/><path d="M129.6,110.729c-.4-24.619,32-29.186,34.029-29.447-1.884,0-29.728.511-37.025,25.655C125.68,110.112,127.694,111.746,129.6,110.729Z" fill="#a2d613"/><path d="M129.6,110.729c1.171-.62,2.294-2.228,2.676-5.09,1.163-8.549,12.952-20.128,31.454-24.364a.248.248,0,0,1-.051,0,.119.119,0,0,1-.05,0C161.6,81.543,129.2,86.11,129.6,110.729Z" fill="#a2d613" opacity="0.2" style="mix-blend-mode:multiply"/><path d="M130.1,36.63c4.486,12.688-6.363,56.776-6.265,68.156s5.821,4.578,6.4.822C138.771,50.312,130.1,36.63,130.1,36.63Z" fill="#a2d613"/><path d="M159.231,66.929c-23.58,10.017-27.79,26.8-27.79,37.632s-9.825,7.581-9.825,0C121.616,69.907,159.231,66.929,159.231,66.929Z" fill="#b3e81f"/><path d="M81.9,102.426c8.527-13.1,37.362-9.229,43.581,2.233.953,1.759,2.719,5.542.1,6.835-1.8.887-4.277-.074-5.7-1.217-1.187-.953-1.413-2.717-3.1-4.768-5.062-6.155-12.024-7.368-19.773-6.73a51.4,51.4,0,0,0-14.741,3.5C82.189,102.306,81.938,102.361,81.9,102.426Z" fill="#a2d613"/><path d="M159.231,67.155c-.012,0-.012.011-.023.011-23.552,10.024-27.766,26.791-27.766,37.62,0,6.119-3.143,7.742-5.873,6.63a7.019,7.019,0,0,1-3.955-6.63C121.614,70.129,159.231,67.155,159.231,67.155Z" fill="#b3e81f"/><path d="M159.208,67.166c-23.552,10.024-27.766,26.791-27.766,37.62,0,6.119-3.143,7.742-5.873,6.63C124.4,75.181,158.172,67.393,159.208,67.166Z" fill="#b3e81f" opacity="0.3" style="mix-blend-mode:multiply"/><path d="M126.6,111.79c-2.189-.079-4.66-2.633-4.99-6.3C119.754,85.5,96.92,55.088,96.2,54.146,96.92,54.884,125.875,85.113,126.6,111.79Z" fill="#b3e81f"/><path d="M126.6,111.79c-.729-26.677-29.684-56.906-30.4-57.644l-.012-.023c10.794,3.655,32.58,37.563,33.84,49.54C130.653,109.6,128.758,111.881,126.6,111.79Z" fill="#b3e81f"/><path d="M126.6,111.79c-2.189-.079-4.66-2.633-4.99-6.3C119.754,85.5,96.92,55.088,96.2,54.146,96.92,54.884,125.875,85.113,126.6,111.79Z" fill="#b3e81f" opacity="0.3" style="mix-blend-mode:multiply"/><path d="M126.193,111.5c-1.837-.489-3.943-2.362-5.45-6.21C116.211,93.8,95.908,81.481,68.8,81.481a.351.351,0,0,0,.071-.011.148.148,0,0,0,.071-.012C71.85,81.175,118.342,77.224,126.193,111.5Z" fill="#b3e81f"/><path d="M68.807,81.481c27.1,0,47.405,12.318,51.932,23.808,3.988,10.123,12.126,6.63,8.316,0C109.686,71.582,68.807,81.481,68.807,81.481Z" fill="#b3e81f"/><path d="M126.193,111.5c-7.851-34.272-54.343-30.321-57.25-30.038,2.613-.6,41.407-8.729,60.11,23.828C131.418,109.4,129.182,112.3,126.193,111.5Z" fill="#b3e81f"/><path d="M126.193,111.5c-1.837-.489-3.943-2.362-5.45-6.21C116.211,93.8,95.908,81.481,68.8,81.481a.351.351,0,0,0,.071-.011.148.148,0,0,0,.071-.012C71.85,81.175,118.342,77.224,126.193,111.5Z" fill="#b3e81f" opacity="0.3" style="mix-blend-mode:multiply"/><path d="M177.056,88.926c-12.527.3-32.148,6.07-38.738,15.026-6.947,9.442-14.137,8.376-12.421,5.685C143.371,82.225,177.056,88.926,177.056,88.926Z" fill="#b3e81f"/><path d="M177.051,88.928c-12.523.3-32.144,6.073-38.735,15.018-4.2,5.71-8.5,7.583-10.852,7.572C143.106,87.293,177.051,88.928,177.051,88.928Z" fill="#b3e81f" opacity="0.3" style="mix-blend-mode:multiply"/><path d="M177.051,88.928s-33.945-1.635-49.587,22.59c-1.53-.011-2.248-.817-1.566-1.884C143.365,82.23,177.051,88.928,177.051,88.928Z" fill="#b3e81f"/><path d="M123.25,111.779a7.411,7.411,0,0,1-3.378-1.5c-1.189-.954-1.412-2.725-3.1-4.768C111.7,99.349,104.747,98.146,97,98.781a51.4,51.4,0,0,0-14.748,3.5l-.189.056C84.656,100.95,115.388,85.227,123.25,111.779Z" fill="#a2d613" opacity="0.3" style="mix-blend-mode:multiply"/><path d="M102.613,27.486a8.762,8.762,0,0,1-2.621.4,8.537,8.537,0,0,1-6.84-3.386,7.993,7.993,0,0,1-3.063,9.146,7.9,7.9,0,0,1,.009-9.588,8.734,8.734,0,0,1-9.955,0A8.57,8.57,0,0,1,87,20.7a8.716,8.716,0,0,1,2.595.392,7.99,7.99,0,0,1-3.063-9.112,8.19,8.19,0,0,1,5.845,7.708,7.969,7.969,0,0,1,1.974-3.2,8.106,8.106,0,0,1,5.768-2.391h.3a8.178,8.178,0,0,1-5.65,7.768A8.4,8.4,0,0,1,102.613,27.486Z" fill="url(#b)"/><g style="mix-blend-mode:multiply"><path d="M91.808,32.029a8.017,8.017,0,0,1-1.719,1.616,7.922,7.922,0,0,1-1.616-4.781c0-.1,0-.2.008-.307A11.249,11.249,0,0,0,91.808,32.029Z" fill="#e5004c"/></g><path d="M89.962,24.142c.042-.026.093-.06.136-.085a.1.1,0,0,0-.043.059C90.021,24.125,90,24.134,89.962,24.142Z" fill="#e5004c"/><g style="mix-blend-mode:multiply"><path d="M89.962,24.142a8.712,8.712,0,0,1-9.819-.085,7.964,7.964,0,0,1,1.081-1.174,9.65,9.65,0,0,0,8.738,1.259Z" fill="#e5004c"/></g></g></svg>