<svg width="107" height="106" viewBox="0 0 107 106" fill="none" xmlns="http://www.w3.org/2000/svg">
<path d="M106.746 16.6742L90.1685 0.251947C89.1116 0.0837783 88.0427 -0.000471211 86.9722 2.00565e-06H20.022C18.9534 -0.000473992 17.8865 0.0837765 16.8315 0.251947L0.254332 16.6742C0.0845775 17.7213 -0.000466821 18.7801 1.08603e-05 19.8406V86.1593C-0.00095708 87.0788 0.0627778 87.9972 0.190752 88.9078L17.2534 105.811C18.1707 105.938 19.0958 106.001 20.022 106H86.9722C87.9003 106.001 88.8274 105.938 89.7466 105.811L106.809 88.9078C106.937 87.9972 107.001 87.0788 107 86.1593V19.8406C107 18.7801 106.915 17.7213 106.746 16.6742ZM80.2327 15.2713C84.7044 18.3842 88.5898 22.2507 91.7118 26.6947H80.2327V15.2713ZM26.7673 15.2713V26.6947H15.2882C18.4102 22.2507 22.2956 18.3842 26.7673 15.2713ZM11.5716 32.9933H26.7673V50.0282H7.06899C7.44178 44.1146 8.971 38.329 11.5716 32.9933ZM7.09211 56.3268H26.7673V73.3617H11.7508C9.09326 68.038 7.51074 62.2514 7.09211 56.3268ZM15.5367 79.6603H26.7673V90.7287C22.4155 87.699 18.6174 83.9558 15.5367 79.6603ZM50.321 98.9856C44.3462 98.5946 38.5056 97.0542 33.1254 94.4506V79.6603H50.321V98.9856ZM50.321 73.3617H33.1254V56.3268H50.321V73.3617ZM50.321 50.0282H33.1254V32.9933H50.321V50.0282ZM50.321 26.6947H33.1254V11.5494C38.5056 8.94576 44.3462 7.4054 50.321 7.01437V26.6947ZM73.8746 94.4506C68.4944 97.0542 62.6538 98.5946 56.679 98.9856V79.6603H73.8746V94.4506ZM73.8746 73.3617H56.679V56.3268H73.8746V73.3617ZM73.8746 50.0282H56.679V32.9933H73.8746V50.0282ZM73.8746 26.6947H56.679V7.01437C62.6538 7.4054 68.4944 8.94576 73.8746 11.5494V26.6947ZM80.2327 90.7287V79.6603H91.4633C88.3826 83.9558 84.5845 87.699 80.2327 90.7287ZM95.2492 73.3617H80.2327V56.3268H99.9079C99.4893 62.2514 97.9067 68.038 95.2492 73.3617ZM80.2327 50.0282V32.9933H95.4284C98.029 38.329 99.5582 44.1146 99.931 50.0282H80.2327Z" fill="#FFA800"/>
</svg>
