<?xml version="1.0" encoding="utf-8"?>
<!-- Generator: Adobe Illustrator 26.0.2, SVG Export Plug-In . SVG Version: 6.00 Build 0)  -->
<svg version="1.1" id="Layer_1" xmlns="http://www.w3.org/2000/svg" xmlns:xlink="http://www.w3.org/1999/xlink" x="0px" y="0px"
	 viewBox="0 0 1088.8 1088.9" style="enable-background:new 0 0 1088.8 1088.9;" xml:space="preserve">
<style type="text/css">
	.st0{fill:none;}
	.st1{fill:#1CA500;}
	.st2{fill:#A2D613;}
	.st3{fill:#6FCA12;}
	.st4{fill:#D7FF45;}
	.st5{fill:#FFFFFF;}
</style>
<path class="st0" d="M1052.8,558.8c0,121.6-41.9,233.4-112.2,321.8c-65.1,82-154.6,143.8-257.5,174.4c-46.9,14-96.6,21.5-148.1,21.5
	c-285.9,0-517.7-231.8-517.7-517.7c0-133.4,50.5-255.1,133.4-346.9l0,0c33.6-37.2,72.5-69.5,115.6-95.7
	C344.6,68.5,436.6,41.1,535,41.1C821,41.1,1052.8,272.9,1052.8,558.8z"/>
<g>
	<path class="st1" d="M1062.8,544.7c0,121.6-41.9,233.4-112.2,321.8c-65.1,82-154.6,143.8-257.5,174.4
		c-46.9,14-96.6,21.5-148.1,21.5c-285.9,0-517.7-231.8-517.7-517.7c0-133.4,50.5-255.1,133.4-346.9l0,0
		c33.6-37.2,72.5-69.5,115.6-95.7C354.6,54.4,446.6,27,545,27C831,27,1062.8,258.8,1062.8,544.7z"/>
	<path class="st2" d="M1062.8,544.7c0,121.6-41.9,233.4-112.2,321.8c-65.1,82-154.6,143.8-257.5,174.4c-20.5-13.1-29-33.3-21.7-49
		c17-36.5,46.2-116.7-53.5-128.8c-99.6-12.2-131.2-60.8-131.2-111.8s-2.4-102.1-63.2-80.2C331.1,778,268,717.3,258.2,663.8
		c-9.7-53.5,148.3-133.7,72.9-131.2c-75.3,2.4-21.9,89.9-143.4,43.8c-119.8-45.5-88-198.6-27-378.5l0,0
		c33.6-37.2,72.5-69.5,115.6-95.7C354.6,54.5,446.6,27.1,545,27.1C831,27,1062.8,258.8,1062.8,544.7z"/>
	<path class="st3" d="M1062.8,544.7c0,121.6-41.9,233.4-112.2,321.8c-65.1,82-154.6,143.8-257.5,174.4c-20.5-13.1-29-33.3-21.7-49
		c17-36.5,46.2-116.7-53.5-128.8c-99.6-12.2-131.2-60.8-131.2-111.8s-2.4-102.1-63.2-80.2C331.1,778,268,717.3,258.2,663.8
		c-9.7-53.5,148.3-133.7,72.9-131.2c-75.3,2.4-21.9,89.9-143.4,43.8c-119.8-45.5-88-198.6-27-378.5l0,0
		c33.6-37.2,72.5-69.5,115.6-95.7C354.6,54.5,446.6,27.1,545,27.1C831,27,1062.8,258.8,1062.8,544.7z"/>
	<path class="st2" d="M1062.8,544.7c0,121.6-41.9,233.4-112.2,321.8c-31.1-13.8-49.4-37.8-41-61.7c17-48.6,92.4-94.8,85.1-179.9
		c-14.7-171.5-89.9-36.5-121.5,24.3s-124,9.7-114.2-43.8c9.7-53.5,121.5-60.8,14.6-65.6c-107-4.9-126.4-48.6-138.5-102.1
		c-12.2-53.5-80.2-77.8-138.5-19.4c-58.3,58.3-111.8-17-80.2-48.6s118.5-62.9,41.3-102.1c-78.1-39.6-176.8,37.1-179.9-150.7
		c-0.1-5.7-0.5-10.6-1.4-14.8C354.7,54.4,446.7,27,545.1,27C831,27,1062.8,258.8,1062.8,544.7z"/>
	<path class="st4" d="M345.8,146.1c-2.5-44.7,95.1-32,124-36.5c63.2-9.7,121.5-34,226-12.2s216.3,121.5,109.4,94.8
		s-94.8,19.4-158,26.7s-136.1-75.3-201.7-53.5S348.2,189.8,345.8,146.1z"/>
	<path class="st4" d="M890.2,270c92.4,111.6,85.1,82.6,99.7,172.6s-38.9,72.9-43.8,4.9S841.6,331.1,817.3,294.6
		S860.5,234.1,890.2,270z"/>
</g>
<path class="st5" d="M544.4,1088.9c-73.5,0-144.8-14.4-211.9-42.8c-64.8-27.4-123.1-66.7-173-116.7c-50-50-89.2-108.2-116.7-173
	C14.4,689.3,0,618,0,544.5s14.4-144.8,42.8-211.9c27.4-64.8,66.7-123.1,116.7-173s108.2-89.2,173-116.7C399.6,14.4,470.9,0,544.4,0
	s144.8,14.4,211.9,42.8c64.8,27.4,123.1,66.7,173,116.7c50,50,89.2,108.2,116.7,173c28.4,67.1,42.8,138.4,42.8,211.9
	s-14.4,144.8-42.8,211.9c-27.4,64.8-66.7,123.1-116.7,173c-50,50-108.2,89.2-173,116.7C689.2,1074.5,617.9,1088.9,544.4,1088.9z
	 M544.4,53.4c-66.3,0-130.6,13-191.1,38.6c-58.5,24.7-111,60.1-156.1,105.2S116.7,294.8,92,353.3c-25.6,60.5-38.6,124.8-38.6,191.1
	S66.4,675,92,735.5c24.7,58.5,60.1,111,105.2,156.1s97.6,80.5,156.1,105.2c60.5,25.6,124.8,38.6,191.1,38.6s130.6-13,191.1-38.6
	c58.5-24.7,111-60.1,156.1-105.2c45.1-45.1,80.5-97.6,105.2-156.1c25.6-60.5,38.6-124.8,38.6-191.1s-13-130.6-38.6-191.1
	c-24.7-58.5-60.1-111-105.2-156.1C846.5,152.1,794,116.7,735.5,92C675,66.4,610.7,53.4,544.4,53.4z"/>
</svg>
