<?xml version="1.0" encoding="utf-8"?>
<!-- Generator: Adobe Illustrator 26.0.2, SVG Export Plug-In . SVG Version: 6.00 Build 0)  -->
<svg version="1.1" id="Layer_1" xmlns="http://www.w3.org/2000/svg" xmlns:xlink="http://www.w3.org/1999/xlink" x="0px" y="0px"
	 viewBox="0 0 1091.6 1091.6" style="enable-background:new 0 0 1091.6 1091.6;" xml:space="preserve">
<style type="text/css">
	.st0{fill:none;}
	.st1{fill:#B7003F;}
	.st2{fill:#FA003F;}
	.st3{fill:#FFAB15;}
	.st4{fill:#FFFFFF;}
</style>
<path class="st0" d="M1040.1,552.9c0,32.6-3.1,64.5-9.1,95.4v0c-5.5,28.7-13.5,56.4-23.7,83.1l0,0c-15.2,39.8-35.3,77.2-59.6,111.5
	c-8.7,12.2-17.9,24.1-27.7,35.5c-47.9,56.1-108,101.5-176.2,132.1h0c-4.4,2-8.7,3.9-13.1,5.7c-31.1,12.9-63.7,22.8-97.5,29.2
	c-8.3,1.6-16.6,2.9-25,4.1c-22.7,3.2-45.9,4.8-69.5,4.8c-97,0-187.6-27.6-264.4-75.3v0c-19.4-12-37.8-25.4-55.3-39.8
	c-111-92-181.7-230.8-181.7-386.2c0-40.5,4.8-79.8,13.8-117.5c2.5-10.5,5.4-20.9,8.6-31.2c12.6-40.5,30.1-78.7,51.9-114.1
	c6.2-10,12.6-19.7,19.5-29.2c37.4-52.2,84.6-96.9,138.9-131.4c4.9-3.1,9.9-6.2,14.9-9.1c74.4-43.8,161.1-68.8,253.7-68.8
	c32.7,0,64.7,3.1,95.7,9.1c13.8,2.7,27.4,5.9,40.7,9.7c75.4,21.3,143.6,59.8,200.1,110.9c4.1,3.7,8.1,7.5,12.1,11.3
	c85.4,82.6,141.5,195.4,151.2,321.1c0.9,12.3,1.5,24.8,1.5,37.3C1040.1,551.6,1040.1,552.2,1040.1,552.9z"/>
<g>
	<path class="st1" d="M1040.1,552.9c0,32.6-3.1,64.5-9.1,95.4v0c-5.5,28.7-13.5,56.4-23.7,83.1l0,0c-15.2,39.8-35.3,77.2-59.6,111.5
		c-8.7,12.2-17.9,24.1-27.7,35.5c-47.9,56.1-108,101.5-176.2,132.1h0c-4.4,2-8.7,3.9-13.1,5.7c-31.1,12.9-63.7,22.8-97.5,29.2
		c-8.3,1.6-16.6,2.9-25,4.1c-22.7,3.2-45.9,4.8-69.5,4.8c-97,0-187.6-27.6-264.4-75.3v0c-19.4-12-37.8-25.4-55.3-39.8
		c-111-92-181.7-230.8-181.7-386.2c0-40.5,4.8-79.8,13.8-117.5c2.5-10.5,5.4-20.9,8.6-31.2c12.6-40.5,30.1-78.7,51.9-114.1
		c6.2-10,12.6-19.7,19.5-29.2c37.4-52.2,84.6-96.9,138.9-131.4c4.9-3.1,9.9-6.2,14.9-9.1c74.4-43.8,161.1-68.8,253.7-68.8
		c32.7,0,64.7,3.1,95.7,9.1c13.8,2.7,27.4,5.9,40.7,9.7c75.4,21.3,143.6,59.8,200.1,110.9c4.1,3.7,8.1,7.5,12.1,11.3
		c85.4,82.6,141.5,195.4,151.2,321.1c0.9,12.3,1.5,24.8,1.5,37.3C1040.1,551.6,1040.1,552.2,1040.1,552.9z"/>
	<path class="st2" d="M625.1,180.3c81.2,24.3,100.8,71.3,155.7,173.1c63.4,117.5,177.9,119.6,181.4,209.9
		c5.6,142.2-94.1,155-127.2,198.8c-104.6,138.6-143.9,154.3-296,130.8c-114.2-17.7-232.5,123-297.9-136
		C196.9,581.5,135.3,571,175.8,432.4c36.6-125.6,116.5-153.1,209.6-182.5S540.8,155.1,625.1,180.3z"/>
	<path class="st3" d="M1031,648.2c-2.7-12.4-7.8-24.8-15.8-36.4c-13.2-19.5-30.8-32.6-52.9-40.1c-35.9-12.3-83.5-9.9-142.8,3.1
		c-77.9,17.1-342,138.3-402.6-30.1c-60.6-168.4,36.9-170.3,104.6-165c67.7,5.4,46.3-43,167.5-25.6c53.9,7.7,81.2,11.4,106.2,23.1
		l0,0h0c31.3,14.6,59.1,41.7,130.9,104.7c47.6,41.8,84.3,63.9,113.8,69c0-12.5-0.6-25-1.5-37.3c-72.8-0.3-179.1-124-255.7-156.5h0
		c-8.8-3.8-17.3-6.3-25.2-7.3c-84.8-10.6-92.9-30.8-202.7-168c-0.8-1-1.6-2-2.4-2.9c-96-117.6-137.3-26.7-110.3,47.9
		c3.4,9.4,7.9,18.5,13.5,26.9c50.4,76.1-93.4,146.4-110.2,14.6c-0.2-1.8-0.4-3.5-0.7-5.2c-12.3-95-20.1-107.5-59.8-142.8
		c-5,2.9-10,6-14.9,9.1c40,49.1,76.8,128.3,6.9,143.2c-52.2,11.1-97.5,13.6-145.9-11.8c-6.8,9.5-13.3,19.2-19.5,29.2
		c39.7,10.9,79.8,18.3,122.7,36.5c9.1,3.8,18.3,8.2,27.6,13.1c65.4,34.4,90.5,110.4,68.8,137.9c-21.7,27.5-70,23.6-150.3-19.8
		c-3.2-1.7-6.6-3.5-10.1-5.3c-29-14.7-68.8-31.4-110.6-48.3c-3.2,10.3-6,20.7-8.6,31.2c47.3,19.2,93.2,41.9,111.9,60.9
		c9.4,9.5,11.9,18,4.5,24.7c-1.4,1.3-2.9,2.7-4.5,4.2C127.4,559.1,55,645,189.6,711.6c16.8,8.3,31.2,13.5,43.7,16.1
		c91.9,19.1,77.4-100.5,118.1-116.1c46.2-17.7,153.7,148.5,124.5,196.8c-22,36.4-142.5,7.5-214.1,13.2c-23.5,1.9-41.7,7.5-49.5,20.3
		c-12.1,20-5.7,58,6.8,97.1c17.5,14.5,36,27.8,55.3,39.8c-14.5-47.2-24.3-94.5-13.8-107.8c3.9-5,11-8.3,20.5-10.4
		c43.2-9.6,136.9,6.8,212.5,19.2c16.9,2.8,30.8,7,42.5,12.5l0,0h0c52,24.7,57.7,75.2,70.2,136.6c1.3,6.3,1.9,13.1,2,20.4
		c8.4-1.2,16.7-2.5,25-4.1c9.1-47.6,11.2-88.4-5.8-110c-8.3-10.5-14.7-22.1-19.3-34.3c-21.2-55.7-5.8-123.6,37.6-147.3
		c42.1-22.9,121.2-17.1,203.1-5.8h0c21.1,2.9,42.5,6.2,63.4,9.5c41.7,6.5,74.4-5.2,95.2-26l0,0C1028.8,710,1037.6,679,1031,648.2
		L1031,648.2z M289.4,664c-21.3,26.1-38.3,35.3-69.1,23.5c-13.1-5-28.6-13.8-48-26.7c-54-35.8-34.4-95.3-6.4-116.4
		c5.8-4.4,11.9-7.1,17.8-7.6C292.7,527.2,319.8,626.8,289.4,664z M869.3,732.7L869.3,732.7c-73-8.4-161.7-33.6-186.2-32.5
		c-46.9,2.1-146.2,124.7-198,17.4c-51.8-107.3-16.1-90.9,4.7-83.4c73.7,26.5,101.9,21.9,148.1,23.5c52.6,1.8,239.6-71,310.7-7.5
		c8.7,7.8,15.7,17.7,20.5,30C989.8,733.9,936.1,740.4,869.3,732.7z"/>
	<path class="st3" d="M875.3,181.3c-43.6,32.3-85.5,56.1-116.7,40.9c-53-25.8-58-98.5-83.4-151.9c-13.4-3.8-26.9-7-40.7-9.7
		c15.3,18.5,33.2,48.6,49.2,97.6c37,114.1,81.2,142.1,197.1,40.2c2.3-2,4.5-3.9,6.7-5.9C883.4,188.7,879.4,185,875.3,181.3z"/>
	<path class="st3" d="M947.8,842.9c-8.7,12.2-17.9,24.1-27.7,35.5c-17.1-6.6-37.7-10.7-61.2-8.4c-73,7.1-94.2-18.8-105.9,82.4
		c-2.9,25.3-6,44.1-9,58.1h0c-8.9,42-16.9,40.7-16.9,40.7c2.3-13.1,3.4-24.7,3.7-35c2.3-73.9-37.5-85.2-5.5-138.7
		c0.6-0.9,1.1-1.9,1.7-2.8c11.3-17.9,24.4-27.2,40.3-31.7C806.2,832.1,861.8,850.1,947.8,842.9z"/>
</g>
<path class="st3" d="M875.3,469.7c-16.5-42.4-96.5-107.5-143.6-55.7s-120-18.8-188.3,4.7c-56.9,19.6-65.9,140.5,33,131.1
	c98.9-9.4,138.9-56.5,223.6-40c84.7,16.5,164.8,51.8,169.5,18.8S891.8,512.1,875.3,469.7z M771.8,494
	c-28.6-1.3-184.7,29.4-216.5-2.4c-21.2-21.2-14.1-40-7.1-51.8c14.2-23.6,122.4,14.1,150.6,4.7s131.1-23.2,157.7,40
	C875.3,529.3,823.5,496.4,771.8,494z"/>
<path class="st4" d="M545.8,1091.6c-73.7,0-145.2-14.4-212.5-42.9c-65-27.5-123.4-66.8-173.5-117c-50.1-50.1-89.5-108.5-117-173.5
	C14.4,691,0,619.5,0,545.8c0-73.7,14.4-145.2,42.9-212.5c27.5-65,66.8-123.4,117-173.5c50.1-50.1,108.5-89.5,173.5-117
	C400.7,14.4,472.1,0,545.8,0S691,14.4,758.3,42.9c65,27.5,123.4,66.8,173.5,117c50.1,50.1,89.5,108.5,117,173.5
	c28.5,67.3,42.9,138.8,42.9,212.5c0,73.7-14.4,145.2-42.9,212.5c-27.5,65-66.8,123.4-117,173.5c-50.1,50.1-108.5,89.5-173.5,117
	C691,1077.2,619.5,1091.6,545.8,1091.6z M545.8,53.6c-66.5,0-130.9,13-191.6,38.7c-58.6,24.8-111.2,60.3-156.5,105.5
	c-45.2,45.2-80.7,97.9-105.5,156.5c-25.7,60.7-38.7,125.1-38.7,191.6s13,130.9,38.7,191.6c24.8,58.6,60.3,111.2,105.5,156.5
	c45.2,45.2,97.9,80.7,156.5,105.5c60.7,25.7,125.1,38.7,191.6,38.7s130.9-13,191.6-38.7C796,974.5,848.6,939,893.8,893.8
	c45.2-45.2,80.7-97.9,105.5-156.5c25.7-60.7,38.7-125.1,38.7-191.6s-13-130.9-38.7-191.6c-24.8-58.6-60.3-111.2-105.5-156.5
	c-45.2-45.2-97.9-80.7-156.5-105.5C676.7,66.6,612.3,53.6,545.8,53.6z"/>
</svg>
