<?xml version="1.0" encoding="utf-8"?>
<!-- Generator: Adobe Illustrator 26.0.2, SVG Export Plug-In . SVG Version: 6.00 Build 0)  -->
<svg version="1.1" id="Layer_1" xmlns="http://www.w3.org/2000/svg" xmlns:xlink="http://www.w3.org/1999/xlink" x="0px" y="0px"
	 viewBox="0 0 1094 1094" style="enable-background:new 0 0 1094 1094;" xml:space="preserve">
<style type="text/css">
	.st0{fill:url(#SVGID_1_);}
	.st1{fill:#FFAB15;}
	.st2{fill:none;stroke:#FFFFFF;stroke-width:12.474;stroke-linecap:round;stroke-miterlimit:10;}
	.st3{fill:none;stroke:#FFFFFF;stroke-width:53.553;stroke-miterlimit:10;}
</style>
<linearGradient id="SVGID_1_" gradientUnits="userSpaceOnUse" x1="199.6838" y1="193.2704" x2="905.7172" y2="899.3038" gradientTransform="matrix(1 0 0 -1 0 1094.6228)">
	<stop  offset="0" style="stop-color:#BC6B00"/>
	<stop  offset="1" style="stop-color:#CC7C0E"/>
</linearGradient>
<circle class="st0" cx="552.7" cy="548.3" r="499.2"/>
<path class="st1" d="M810.5,332.2c-36.2-37.8-70.5-66.3-111.7-82.3c-39.8-15.5-84.8-18.4-137.9-18.4c-95.3,0-180.7,32.5-241,92
	c-60.4,59.6-93.8,144.5-93.8,240c0,78.8,26.4,151.6,75.6,203.5c49.7,52.4,120.7,81.8,200.2,81.8c66.1,0,127.4-23.8,170.9-67.2
	s67.2-104.7,67.2-170.9c0-55.5-19.3-107.1-55.6-143.7c-36.3-36.6-87.9-56.2-143.3-56.6c0,0,1.9-1.9,1.9-1.9s-1.8,1.8-1.8,1.8
	c-38.3,0-74.2,12.4-99.4,37.5s-37.5,61.1-37.5,99.4c0,35.9,10.5,69.8,32.9,94.5c22.6,24.8,55.6,38.4,90.9,41.8
	c2,0.2,9.8,0.6,11.9,0.6c0.2,0,0.9-0.1,1.1-0.1c13.1-1.2,26.3-4.2,34.7-13.3c8.3-9.1,10.2-22.4,10.2-35.7s-1.9-26.6-10.2-35.7
	c-8.4-9.2-21.6-12.2-34.7-13.3c0,0,0.2-0.1,0.2-0.1c-10.1,0-18-7.3-24.6-13.9s-13.9-14.5-13.9-24.6c0-9.9,7.1-17.6,13.5-24.2
	c6.4-6.6,13.8-14,23.7-14.4c0,0,0,0.1,0.1,0.1c27.6,0,51.3,14.4,69.4,32.5s32.5,41.9,32.5,69.5c0,38-18.6,71.2-43.6,96.2
	s-58.1,43.6-96.2,43.6c-50.8,0-97.5-23.7-132.9-56.9c-35.8-33.6-61.8-78.7-61.8-130c0-67.2,32.4-129.9,78.4-177.1
	c46.2-47.5,108-81.2,175.4-81.2c48.1,0,86.7,10.3,118.8,21.1c46.8,15.8,80.4,37.3,102.3,62.5c31.1,35.8,51.3,75.5,66.5,115.5
	c15.7,41.4,26.3,84.6,24.2,130.9c0,0,0-0.2,0-0.2c0,0.2,0,1.1,0,1.4c0,5.6-0.9,12,2.8,15.6s10,2.8,15.6,2.8c5,0,10.8,1.4,14.4-1.6
	c3.6-3.1,3.1-9.1,3.8-14c0-0.1,0.2,0.3,0.2,0.3c2.6-57.9,0.6-114.2-14.5-165.4C879,419.9,849.4,372.8,810.5,332.2z M454.3,512.7
	c0-0.1,3.7,0.3,3.7,0.2s-3.6-1-3.5-1.1c0,0.1-0.1,0.9-0.1,1.1c0,0.1,3.7,0.5,3.7,0.6c0-0.1,0-0.7-0.1-0.8S454.3,512.8,454.3,512.7
	L454.3,512.7z"/>
<path class="st2" d="M283.1,870.1c-33.5-28.2-62.5-61.5-85.8-98.6"/>
<path class="st2" d="M911.5,327.7c9.8,15.8,18.5,32.3,26.1,49.3"/>
<path class="st2" d="M715.1,160.1c68.2,28.5,127.7,74.3,172.6,133"/>
<circle class="st3" cx="547" cy="547" r="518.5"/>
</svg>
