<svg xmlns="http://www.w3.org/2000/svg" viewBox="0 0 284.755 160.031"><g style="isolation:isolate"><path d="M28.971,120.192a15.89,15.89,0,0,1,2.975-28.355A14.17,14.17,0,1,1,54.178,74.612,15.893,15.893,0,1,1,66.562,102a11.4,11.4,0,0,1-16.434,14.417l-.058-.037A15.872,15.872,0,0,1,28.971,120.192Z" fill="#fff1d2"/><g opacity="0.6" style="mix-blend-mode:multiply"><path d="M28.971,120.192a15.89,15.89,0,0,1,2.975-28.355A14.17,14.17,0,1,1,54.178,74.612,15.893,15.893,0,1,1,66.562,102a11.4,11.4,0,0,1-16.434,14.417l-.058-.037A15.872,15.872,0,0,1,28.971,120.192Z" fill="#d8c6a3"/></g><path d="M277.177,118.04a16.139,16.139,0,0,1,5.117,22.241,16.707,16.707,0,0,1-2.322,2.907,9.479,9.479,0,0,1-11.162,15.09,9.3,9.3,0,0,1-3.262-2.931A12.576,12.576,0,1,1,252.8,134.87a16.125,16.125,0,0,1,24.376-16.83Z" fill="#fff1d2"/><g opacity="0.7" style="mix-blend-mode:multiply"><path d="M277.177,118.04a16.139,16.139,0,0,1,5.117,22.241,16.707,16.707,0,0,1-2.322,2.907,9.479,9.479,0,0,1-11.162,15.09,9.3,9.3,0,0,1-3.262-2.931A12.576,12.576,0,1,1,252.8,134.87a16.125,16.125,0,0,1,24.376-16.83Z" fill="#e8e8e8"/></g><path d="M134.307,49.567a20.429,20.429,0,0,0-1.347-28.855,21.175,21.175,0,0,0-3.822-2.752A12,12,0,0,0,110.385,3.374a11.776,11.776,0,0,0-2.976,4.684,15.918,15.918,0,1,0-8.554,29.307,20.409,20.409,0,0,0,35.452,12.2Z" fill="#fff1d2"/><path d="M123.114,37.578a9.4,9.4,0,0,0-.621-13.285,9.725,9.725,0,0,0-1.759-1.266,5.524,5.524,0,0,0-8.634-6.716,5.415,5.415,0,0,0-1.37,2.157,7.328,7.328,0,1,0-3.938,13.492,9.4,9.4,0,0,0,16.322,5.618Z" fill="#ffab15"/><g opacity="0.3" style="mix-blend-mode:multiply"><path d="M134.307,49.567a20.429,20.429,0,0,0-1.347-28.855,21.175,21.175,0,0,0-3.822-2.752A12,12,0,0,0,110.385,3.374a11.776,11.776,0,0,0-2.976,4.684,15.918,15.918,0,1,0-8.554,29.307,20.409,20.409,0,0,0,35.452,12.2Z" fill="#e8e8e8"/></g><path d="M118.979,88.428a21.972,21.972,0,0,1-13.262,28.094,20.714,20.714,0,0,1-3.024.844A14.012,14.012,0,0,1,77.985,130.36,18.593,18.593,0,0,1,63.667,96.631a13.869,13.869,0,0,1-3.716-5.062A14.012,14.012,0,0,1,84.687,78.577a21.991,21.991,0,0,1,34.292,9.851Z" fill="#fff1d2"/><path d="M102.447,95.418a10.871,10.871,0,0,1-6.561,13.9,10.2,10.2,0,0,1-1.5.417,6.932,6.932,0,0,1-12.224,6.429,9.2,9.2,0,0,1-7.084-16.687,6.931,6.931,0,1,1,10.4-8.932,10.877,10.877,0,0,1,16.965,4.874Z" fill="#ffab15"/><path d="M132.479,59.253A21.566,21.566,0,0,1,94.841,73.608,17.981,17.981,0,1,1,81.487,42.545a9.117,9.117,0,0,1-.13-1.611,11.689,11.689,0,0,1,23.153-2.279,21.592,21.592,0,0,1,27.969,20.6Z" fill="#fff1d2"/><path d="M110.979,58.091a9.636,9.636,0,0,1-16.817,6.414A8.034,8.034,0,1,1,88.2,50.626a4.023,4.023,0,0,1-.058-.72,5.223,5.223,0,0,1,10.345-1.018,9.649,9.649,0,0,1,12.5,9.2Z" fill="#ffab15"/><path d="M3.12,149.255A21.565,21.565,0,0,1,27.866,117.47a17.981,17.981,0,1,1,27.522,19.641,9.142,9.142,0,0,1,.946,1.311,11.689,11.689,0,0,1-18.619,13.95,21.594,21.594,0,0,1-34.6-3.117Z" fill="#fff1d2"/><path d="M22.109,139.1a9.635,9.635,0,0,1,11.056-14.2,8.034,8.034,0,1,1,12.3,8.775,4.116,4.116,0,0,1,.423.586,5.223,5.223,0,0,1-8.319,6.233A9.649,9.649,0,0,1,22.109,139.1Z" fill="#ffab15"/><path d="M167.989,65.9A20.561,20.561,0,1,1,129.172,78.71,16.038,16.038,0,0,1,133.394,48.3a10.543,10.543,0,1,1,20.56-4.188A13.1,13.1,0,0,1,167.989,65.9Z" fill="#fff1d2"/><g opacity="0.3" style="mix-blend-mode:multiply"><path d="M167.989,65.9A20.561,20.561,0,1,1,129.172,78.71,16.038,16.038,0,0,1,133.394,48.3a10.543,10.543,0,1,1,20.56-4.188A13.1,13.1,0,0,1,167.989,65.9Z" fill="#d8c6a3"/></g><path d="M235.072,157.243a16.459,16.459,0,1,1-13.6-29.761,12.838,12.838,0,0,1,24.564.691,8.34,8.34,0,0,1,2.438-.646,8.439,8.439,0,0,1,2.7,16.638,10.487,10.487,0,0,1-16.1,13.078Z" fill="#fff1d2"/><path d="M234.516,148.09a7.838,7.838,0,1,1-6.477-14.173,6.114,6.114,0,0,1,11.7.329,4.019,4.019,0,1,1,2.446,7.616,4.994,4.994,0,0,1-7.667,6.228Z" fill="#ffab15"/><path d="M155.357,107.506a17.676,17.676,0,0,1-31.526,3.45A15.762,15.762,0,1,1,99.865,90.85a17.678,17.678,0,1,1,26.85-19.919A12.68,12.68,0,0,1,146.261,85.4l-.027.072A17.654,17.654,0,0,1,155.357,107.506Z" fill="#fff1d2"/><path d="M139.645,99.745a9.016,9.016,0,0,1-16.081,1.76A8.04,8.04,0,1,1,111.34,91.249a9.017,9.017,0,1,1,13.695-10.16,6.468,6.468,0,0,1,9.971,7.379l-.014.037A9,9,0,0,1,139.645,99.745Z" fill="#ffab15"/><g opacity="0.6" style="mix-blend-mode:multiply"><path d="M155.357,107.506a17.676,17.676,0,0,1-31.526,3.45A15.762,15.762,0,1,1,99.865,90.85a17.678,17.678,0,1,1,26.85-19.919A12.68,12.68,0,0,1,146.261,85.4l-.027.072A17.654,17.654,0,0,1,155.357,107.506Z" fill="#d8c6a3"/></g><path d="M34.37,133.868a15.667,15.667,0,0,1,24.744-13.341A13.971,13.971,0,1,1,85.5,129.053a15.67,15.67,0,1,1-15.414,25.309A11.239,11.239,0,0,1,49.21,149l0-.068A15.65,15.65,0,0,1,34.37,133.868Z" fill="#fff1d2"/><path d="M49.861,135.005A7.991,7.991,0,0,1,62.482,128.2a7.126,7.126,0,1,1,13.459,4.35,7.993,7.993,0,1,1-7.862,12.91,5.733,5.733,0,0,1-10.649-2.738v-.035A7.982,7.982,0,0,1,49.861,135.005Z" fill="#ffab15"/><g opacity="0.6" style="mix-blend-mode:multiply"><path d="M34.37,133.868a15.667,15.667,0,0,1,24.744-13.341A13.971,13.971,0,1,1,85.5,129.053a15.67,15.67,0,1,1-15.414,25.309A11.239,11.239,0,0,1,49.21,149l0-.068A15.65,15.65,0,0,1,34.37,133.868Z" fill="#d8c6a3"/></g><path d="M157.188,130.41a16.392,16.392,0,0,0-26.382-13,14.618,14.618,0,1,0-27.262,9.926,16.4,16.4,0,1,0,17.086,25.872,11.76,11.76,0,0,0,21.622-6.411v-.072A16.372,16.372,0,0,0,157.188,130.41Z" fill="#fff1d2"/><g opacity="0.3" style="mix-blend-mode:multiply"><path d="M157.188,130.41a16.392,16.392,0,0,0-26.382-13,14.618,14.618,0,1,0-27.262,9.926,16.4,16.4,0,1,0,17.086,25.872,11.76,11.76,0,0,0,21.622-6.411v-.072A16.372,16.372,0,0,0,157.188,130.41Z" fill="#e8e8e8"/></g><path d="M200.534,107.507A22,22,0,0,1,177.2,128.081a22.874,22.874,0,0,1-4.993-.9,12.922,12.922,0,0,1-25.336-3.585,12.691,12.691,0,0,1,1.395-5.813,17.145,17.145,0,1,1,16.273-28.575,21.982,21.982,0,0,1,36,18.3Z" fill="#fff1d2"/><path d="M182.871,107.826a10.129,10.129,0,0,1-10.745,9.472,10.5,10.5,0,0,1-2.3-.412,5.949,5.949,0,0,1-11.664-1.651,5.848,5.848,0,0,1,.642-2.676A7.893,7.893,0,1,1,166.3,99.4a10.121,10.121,0,0,1,16.574,8.423Z" fill="#ffab15"/><path d="M205.2,138.087a19.845,19.845,0,0,1-33.373,16.136,16.546,16.546,0,1,1-14.7-27.424,8.429,8.429,0,0,1-.246-1.467,10.756,10.756,0,0,1,21.047-3.919,19.871,19.871,0,0,1,27.27,16.674Z" fill="#fff1d2"/><path d="M185.4,138.721a8.867,8.867,0,0,1-14.911,7.21,7.393,7.393,0,1,1-6.567-12.253,3.638,3.638,0,0,1-.11-.656,4.806,4.806,0,0,1,9.4-1.75,8.877,8.877,0,0,1,12.184,7.449Z" fill="#ffab15"/><g opacity="0.4" style="mix-blend-mode:multiply"><path d="M205.2,138.087a19.845,19.845,0,0,1-33.373,16.136,16.546,16.546,0,1,1-14.7-27.424,8.429,8.429,0,0,1-.246-1.467,10.756,10.756,0,0,1,21.047-3.919,19.871,19.871,0,0,1,27.27,16.674Z" fill="#d8c6a3"/></g></g></svg>