<svg xmlns="http://www.w3.org/2000/svg" viewBox="0 0 292.185 164.115"><g style="isolation:isolate"><circle cx="81.987" cy="82.123" r="81.987" fill="#f4f4f4"/><circle cx="61.369" cy="83.846" r="40.938" fill="#1ca500"/><circle cx="60.165" cy="83.846" r="21.673" fill="#000016"/><path d="M75.622,122.238a40.936,40.936,0,0,1-39.492-70.6,44.593,44.593,0,0,0,36.121,70.749C73.383,122.382,74.515,122.334,75.622,122.238Z" fill="#1ca500" style="mix-blend-mode:multiply"/><path d="M92.961,109.884A47.03,47.03,0,0,0,95.8,93.774,46.578,46.578,0,0,0,41.909,47.828a40.941,40.941,0,0,1,51.052,62.056Z" fill="#b3e81f"/><circle cx="62.265" cy="95.029" r="4.816" fill="#fff"/><path d="M117.355,156.1A82,82,0,0,1,8.027,46.744,97.707,97.707,0,0,0,104.905,156.89,96.783,96.783,0,0,0,117.355,156.1Z" fill="#f4f4f4" style="mix-blend-mode:multiply"/><circle cx="83.384" cy="59.649" r="5.418" fill="#fff"/><circle cx="99.779" cy="47.258" r="7.826" fill="#fff"/><path d="M245.059,156.189c.313-.024.6-.048.915-.1a82.059,82.059,0,0,1-60.154,4.19q-1.734-.505-3.4-1.156c-.626-.217-1.252-.457-1.878-.7-.843-.337-1.686-.675-2.528-1.036a81.99,81.99,0,1,1,67.041-1.2Z" fill="#cecece"/><path d="M146.134,133.192a72.525,72.525,0,0,1-5.418,6.141,86.74,86.74,0,0,1-.145-114.554,77.824,77.824,0,0,1,5.467,6.141,82.02,82.02,0,0,0,.1,102.272Z" fill="#e5e5e5" style="mix-blend-mode:multiply"/><path d="M163.978,82.116A81.937,81.937,0,0,1,146.3,133c-.048.049-.1.121-.169.193a82.02,82.02,0,0,1-.1-102.272A81.717,81.717,0,0,1,163.978,82.116Z" fill="#f4f4f4"/><path d="M292.185,81.972A82.054,82.054,0,0,1,185.82,160.283q-1.734-.505-3.4-1.156c-.626-.217-1.252-.457-1.878-.7-.843-.337-1.686-.675-2.528-1.036A81.986,81.986,0,1,1,292.185,81.972Z" fill="#f4f4f4"/><ellipse cx="237.194" cy="50.415" rx="33.601" ry="40.77" transform="translate(15.27 148.15) rotate(-35.768)" fill="#1ca500"/><ellipse cx="236.648" cy="50.721" rx="17.492" ry="21.169" transform="translate(14.988 147.889) rotate(-35.768)" fill="#000016"/><path d="M258.808,84.923c-15,8.814-36.338,2.528-48.884-14.858-13.149-18.278-11.608-41.877,3.443-52.737a28.325,28.325,0,0,1,12.065-4.961c-10.452,7.585-17.074,18.783-17.074,31.257,0,22.805,22.107,41.323,49.39,41.323C258.11,84.947,258.447,84.947,258.808,84.923Z" fill="#1ca500" style="mix-blend-mode:multiply"/><path d="M261.023,83.5a27.413,27.413,0,0,1-3.66,2.216c14.424-13.775,15.99-38.362,3.781-59.071q1.734,1.95,3.323,4.118C277.615,49.042,276.074,72.642,261.023,83.5Z" fill="#b3e81f"/><circle cx="210.189" cy="45.316" r="6.02" fill="#fff"/><circle cx="188.257" cy="49.986" r="7.826" fill="#fff"/><circle cx="245.069" cy="54.802" r="4.816" fill="#fff"/><path d="M245.492,156.093a82.059,82.059,0,0,1-60.154,4.19q-1.734-.505-3.395-1.156c-.627-.217-1.252-.457-1.879-.7a82.008,82.008,0,0,1-51.918-76.313,81.363,81.363,0,0,1,8.019-35.375,97.68,97.68,0,0,0,96.878,110.147,91.494,91.494,0,0,0,11.534-.7C244.89,156.165,245.179,156.141,245.492,156.093Z" fill="#f4f4f4" style="mix-blend-mode:multiply"/></g></svg>