<svg xmlns="http://www.w3.org/2000/svg" xmlns:xlink="http://www.w3.org/1999/xlink" viewBox="0 0 271.934 171.773"><defs><linearGradient id="a" x1="21.306" y1="162.25" x2="47.354" y2="136.202" gradientUnits="userSpaceOnUse"><stop offset="0" stop-color="#b0e61e"/><stop offset="1" stop-color="#b3e81f"/></linearGradient><linearGradient id="b" x1="130.848" y1="44.707" x2="154.068" y2="21.486" gradientUnits="userSpaceOnUse"><stop offset="0.026" stop-color="#fa003f"/><stop offset="1" stop-color="#fa396a"/></linearGradient></defs><g style="isolation:isolate"><path d="M159.444,47.543l-.163.22-4.021,5.424-.345-.228,3.337-5.836.152-.265c.405-.615.965-.964,1.252-.774S159.849,46.928,159.444,47.543Z" fill="#a2d613"/><path d="M160.805,99.031l-.232.145-5.73,3.571-.238-.338L159.85,98.2l.238-.191c.6-.423,1.251-.543,1.45-.261S161.407,98.608,160.805,99.031Z" fill="#a2d613"/><path d="M104.45,16.118l.026.272.643,6.721-.409.062L103.283,16.6l-.065-.3c-.11-.728.072-1.362.413-1.413S104.339,15.39,104.45,16.118Z" fill="#a2d613"/><path d="M85.5,52.025l.065.266,1.591,6.562-.4.119-2.346-6.3-.106-.286c-.213-.705-.123-1.359.207-1.458S85.285,51.32,85.5,52.025Z" fill="#a2d613"/><path d="M80.681,76.75l.13.24,3.213,5.938-.352.217L79.8,77.652,79.62,77.4c-.386-.628-.465-1.282-.172-1.463S80.3,76.123,80.681,76.75Z" fill="#a2d613"/><path d="M141.794,19.491l-.095.15-2.344,3.7-.234-.131L141,19.276l.086-.179c.233-.417.578-.67.774-.561S142.026,19.074,141.794,19.491Z" fill="#a2d613"/><path d="M118.606,11.114l.073.162,1.78,4-.239.122-2.231-3.747-.1-.17c-.218-.425-.236-.852-.037-.955S118.388,10.689,118.606,11.114Z" fill="#1ca500"/><path d="M91.026,36.016l.105.143,2.586,3.535-.207.17-2.974-3.19-.135-.145c-.3-.369-.411-.783-.238-.925S90.723,35.647,91.026,36.016Z" fill="#a2d613"/><path d="M161.3,78.486l-.133.118-3.276,2.906-.189-.191,2.9-3.259.132-.148c.339-.336.741-.483.9-.324S161.642,78.15,161.3,78.486Z" fill="#a2d613"/><path d="M161.507,73.522l-.142.233-3.523,5.76-.364-.2,2.8-6.11.128-.277c.348-.649.875-1.046,1.179-.883S161.856,72.873,161.507,73.522Z" fill="#a2d613"/><path d="M91.507,31.831l.108.251,2.673,6.2-.37.184-3.373-5.815-.153-.264c-.329-.659-.35-1.318-.041-1.472S91.178,31.172,91.507,31.831Z" fill="#a2d613"/><path d="M81.078,103.911l.189.2,4.662,4.884-.283.3-5.184-4.279-.236-.194c-.537-.5-.786-1.115-.55-1.366S80.541,103.407,81.078,103.911Z" fill="#a2d613"/><path d="M124.583,2.439l-.027.5-.683,12.312h-.756L122.343,3l-.035-.557c0-1.345.5-2.439,1.133-2.439S124.583,1.094,124.583,2.439Z" fill="#1ca500"/><path d="M119.172,3.991l.145.431,3.546,10.638-.638.253-4.76-10.1-.217-.459c-.45-1.137-.391-2.231.141-2.442S118.722,2.854,119.172,3.991Z" fill="#1ca500"/><path d="M128.216,5.161l-.113.405-2.8,9.971-.619-.137,1.6-10.19.072-.463c.245-1.1.857-1.909,1.374-1.794S128.461,4.058,128.216,5.161Z" fill="#1ca500"/><path d="M153.554,112.039a.013.013,0,0,0-.013.013.391.391,0,0,1-.026.131c-.9,3.8-1.908,7.527-2.966,11.12-.262.876-.523,1.738-.772,2.587-.065.209-.13.392-.182.588v.013q-.177.549-.353,1.1c-2.509,8-5.24,15.275-7.8,21.326-.17.405-.34.809-.51,1.2s-.313.758-.483,1.123v.013c-.157.353-.314.706-.471,1.046-.182.418-.365.823-.548,1.228-.288.641-.575,1.254-.862,1.855-.236.524-.471,1.02-.706,1.5l-.014.012c-.222.471-.457.928-.666,1.372-.17.327-.326.653-.483.954a.013.013,0,0,1-.014.013c-1.894,3.725-3.449,6.194-4.364,7.083-.549.522-1.084,1.006-1.633,1.437v.013a20.655,20.655,0,0,1-1.908,1.359c-.47.288-.928.549-1.4.8a14.672,14.672,0,0,1-2.365.954H125c-.3.091-.6.17-.9.235a.013.013,0,0,1-.013.013l-.379.079H123.7a10.457,10.457,0,0,1-1.868.222h-.04c-.2.013-.379.013-.575.013-.235-.013-.47-.013-.692-.039h-.078a3.5,3.5,0,0,1-.353-.04h-.014a1.968,1.968,0,0,1-.274-.026c-.13-.026-.235-.039-.366-.065h-.013a2.193,2.193,0,0,1-.392-.078c-.405-.079-.81-.2-1.2-.314-.17-.052-.327-.118-.484-.183h-.012c-.249-.091-.5-.2-.732-.288a.484.484,0,0,0-.118-.052,12.291,12.291,0,0,1-2.757-1.816c-.079-.066-.144-.131-.209-.2-.261-.235-.51-.483-.745-.731a12.438,12.438,0,0,1-.836-1.02q-3.02-4.077-5.685-8.115c-.444-.679-.875-1.346-1.306-2.012-.85-1.346-1.685-2.692-2.483-4.025q-.608-1-1.176-2c-.522-.888-1.019-1.777-1.5-2.665-.732-1.32-1.438-2.653-2.117-3.973s-1.333-2.652-1.961-3.959c-.417-.876-.823-1.738-1.215-2.613-.783-1.738-1.515-3.476-2.221-5.2v-.013q-1.038-2.568-1.96-5.136a119.422,119.422,0,0,1-6.7-52.294c.117-1.215.261-2.4.405-3.593q.352-2.665.823-5.253c.209-1.137.431-2.274.666-3.384.118-.562.236-1.111.366-1.66.249-1.1.523-2.182.8-3.253.248-.941.5-1.856.758-2.771.523-1.816,1.085-3.593,1.686-5.3.3-.862.6-1.7.914-2.535,0,0,.014,0,.014-.013.535-1.424,1.1-2.809,1.659-4.155s1.163-2.653,1.777-3.907,1.228-2.5,1.869-3.672c.209-.379.418-.758.64-1.137a2.45,2.45,0,0,1,.222-.392c5.214-9,12.689-15.916,20.959-17.954a21.137,21.137,0,0,1,2.353-.431,1.171,1.171,0,0,1,.287-.04c.2-.025.4-.039.6-.052a2.991,2.991,0,0,1,.34-.025.493.493,0,0,1,.2-.027,2.853,2.853,0,0,1,.327-.013,5.7,5.7,0,0,1,.666-.026h.013a11.065,11.065,0,0,1,1.137.026.754.754,0,0,1,.17.013c.143,0,.288.013.431.027h.039a14.275,14.275,0,0,1,2.091.287.306.306,0,0,1,.1.012h.013c.419.066.824.157,1.228.262h.014c.313.092.64.17.954.274.157.053.326.105.483.17h.013c8.481,2.81,17.092,11.473,24.448,28.591C161.263,63.718,159.016,89.251,153.554,112.039Z" fill="#1ca500"/><path d="M141.441,148.915c-.17.405-.34.809-.51,1.2s-.339.77-.509,1.149v.014c-.144.352-.3.679-.445,1.019-.182.418-.365.823-.548,1.228-.288.641-.575,1.254-.862,1.855-.236.524-.471,1.02-.706,1.5l-.014.012c-.222.471-.457.928-.666,1.372-.17.327-.326.653-.483.954a.013.013,0,0,1-.014.013c-1.894,3.725-3.449,6.194-4.364,7.083-.549.522-1.084,1.006-1.633,1.437v.013a20.655,20.655,0,0,1-1.908,1.359c-.47.288-.928.549-1.4.8a14.672,14.672,0,0,1-2.365.954H125a8.753,8.753,0,0,1-.915.248l-.379.079H123.7a10.457,10.457,0,0,1-1.868.222h-.04c-.2.013-.379.013-.575.013-.235-.013-.47-.013-.692-.039h-.078a3.5,3.5,0,0,1-.353-.04h-.014a1.968,1.968,0,0,1-.274-.026c-.13-.026-.235-.039-.366-.065h-.013a2.193,2.193,0,0,1-.392-.078c-.405-.079-.81-.2-1.2-.314-.17-.052-.327-.118-.484-.183h-.012c-.249-.091-.5-.2-.732-.288a.484.484,0,0,0-.118-.052,12.291,12.291,0,0,1-2.757-1.816c-.079-.066-.144-.131-.209-.183v-.013c-.261-.235-.51-.483-.745-.731a12.6,12.6,0,0,1-.849-1.02q-3.02-4.077-5.672-8.115c-.444-.679-.875-1.346-1.306-2.012-.85-1.346-1.685-2.692-2.483-4.025q-.608-1-1.176-2c-.522-.888-1.019-1.777-1.5-2.665-.732-1.32-1.438-2.653-2.117-3.973s-1.333-2.652-1.961-3.959c-.417-.876-.823-1.738-1.215-2.613-.783-1.738-1.529-3.476-2.221-5.2v-.013q-1.059-2.587-1.96-5.136a119.422,119.422,0,0,1-6.7-52.294c.117-1.215.261-2.4.405-3.593q.352-2.665.823-5.253c.209-1.137.431-2.274.666-3.384.118-.562.236-1.111.366-1.66.249-1.1.523-2.182.8-3.253.248-.941.5-1.856.758-2.771.536-1.816,1.1-3.58,1.686-5.3.3-.862.6-1.7.914-2.535,0,0,.014,0,.014-.013.535-1.424,1.1-2.809,1.659-4.155s1.163-2.653,1.777-3.907,1.228-2.5,1.869-3.672c.209-.379.418-.758.64-1.137a2.45,2.45,0,0,1,.222-.392,96.153,96.153,0,0,0-.274,72.339c.914,2.247,1.921,4.429,3,6.546q.549,1.1,1.137,2.156c.275.5.562.994.836,1.49a76.079,76.079,0,0,0,15.733,19.379c.7.627,1.437,1.241,2.169,1.829.157.131.313.248.47.379l.863.666a63.666,63.666,0,0,0,7.971,5.214c.509.274,1.006.549,1.529.81.627.327,1.28.64,1.92.941a2.591,2.591,0,0,0,.327.157.453.453,0,0,0,.118.052c.026.013.039.026.052.026a4.12,4.12,0,0,0,.444.2h.013c.248.117.471.222.719.327.065.026.118.052.183.078.209.091.405.183.614.261A57.462,57.462,0,0,0,141.441,148.915Z" fill="#1ca500" opacity="0.3" style="mix-blend-mode:multiply"/><path d="M121.266,15.017l-.039.484c-.157.169-.314.339-.458.509-25.847,28.643-25.323,68.889-20.293,97.7.144.8.288,1.594.431,2.378a243.673,243.673,0,0,0,17.04,54.319l-.6.288h-.012c-.249-.091-.5-.2-.732-.288l-.079.027-.039-.079a246.94,246.94,0,0,1-17.3-56.41c-.092-.5-.17-1.006-.249-1.5-4.821-28.93-4.874-68.627,20.724-97.139a1.676,1.676,0,0,1,.144-.171c.2-.025.4-.039.6-.052a2.991,2.991,0,0,1,.34-.025.493.493,0,0,1,.2-.027A2.853,2.853,0,0,1,121.266,15.017Z" fill="#b3e81f"/><path d="M140.1,114.548a292.43,292.43,0,0,1-16.412,56.332l-.392-.17-.509-.209c.417-.98,41.67-98.381,4.39-154.883.313.092.64.17.954.274.157.053.326.105.483.17h.013C139.272,32.749,149.543,63.169,140.1,114.548Z" fill="#b3e81f"/><path d="M122.455,170.933a3.391,3.391,0,0,0,.065.352l-.692.144h-.04l-.549.117c-.012-.039-.012-.065-.026-.1a1.014,1.014,0,0,1-.026-.2c-.065-.3-.131-.6-.183-.928-.039-.209-.078-.431-.1-.653-4.508-27.507-1.621-134.76,2.182-154.648,0-.026.013-.052.013-.078l.092.013.5.105h.039l.653.13c-3.71,19.156-6.533,121.536-2.521,152.048v.012C122.036,168.632,122.233,169.861,122.455,170.933Z" fill="#b3e81f"/><path d="M120.364,15.945C94.922,43.66,94.387,82.73,100.071,114.6a244.007,244.007,0,0,0,17.118,55.522l-.588.287-.079.027-.039-.079a12.291,12.291,0,0,1-2.757-1.816c-.079-.066-.144-.131-.209-.183v-.013a250.175,250.175,0,0,1-16.334-54.293c-.483-2.757-.888-5.475-1.254-8.154-4.966-37.659,2.312-68.706,21.233-90.293a21.137,21.137,0,0,1,2.353-.431,1.171,1.171,0,0,1,.287-.04c.2-.025.4-.039.6-.052Z" fill="#1ca500" opacity="0.3" style="mix-blend-mode:multiply"/><path d="M139.547,114.705a297.028,297.028,0,0,1-16.256,56.005c-.13.3-.2.47-.209.5l-.627-.274-.889-.379-.562-.236-.327-.143c.014-.04.092-.21.223-.51.078-.222.209-.523.366-.9v-.013c.157-.418.366-.914.588-1.5C128.4,150.561,158.611,66.422,125.042,15.8l.771-.457a.306.306,0,0,1,.1.012h.013c.419.066.824.157,1.228.262h.014c.313.092.64.17.954.274C138.789,32.762,148.981,63.326,139.547,114.705Z" fill="#1ca500" opacity="0.3" style="mix-blend-mode:multiply"/><path d="M121.566,170.554c.039.195.079.391.117.587l-.5.105-.653.131-.091.026-.17.039-.183-.079h-.014a1.968,1.968,0,0,1-.274-.026c-.013.04-.026.052-.026.066l-.34-.131h-.013a2.193,2.193,0,0,1-.392-.078.171.171,0,0,1-.013-.079q-.156-.726-.275-1.568c-1.149-7.121-1.8-19.4-2.1-34.078-.81-41.75,1.372-102.824,4.129-119.459.039-.287.091-.562.131-.81.013-.066.026-.118.039-.17a2.853,2.853,0,0,1,.327-.013,5.7,5.7,0,0,1,.666-.026h.013a11.065,11.065,0,0,1,1.137.026c0-.026.013-.052.013-.078l.092.013.065.078.288.275c-2.875,14.856-5.227,79.826-4.261,122.372.262,11.054.745,20.607,1.49,27.362.118,1.006.235,1.96.366,2.835.013.092.013.184.026.262.039.222.066.405.105.614v.013c.026.222.065.444.1.654Q121.468,170,121.566,170.554Z" fill="#1ca500" opacity="0.3" style="mix-blend-mode:multiply"/><path d="M135.064,168.562c-6.04,5.826-15.587,4.51-12.47-10.523s20.653-41.717,34.681-48.106,34.681,11.275,13.639,28.227C155.924,150.235,141.688,162.173,135.064,168.562Z" fill="#1ca500"/><path d="M124.848,170.854l-.572-.6c.411-.393,41.247-39.534,51.681-56.307l.7.437C166.171,131.246,125.26,170.459,124.848,170.854Z" fill="#b3e81f"/><path d="M171.613,110.876a88.139,88.139,0,0,0-22.371,16.713,127.822,127.822,0,0,0-15.21,18.816c-1.15,1.7-2.222,3.372-3.214,4.992-.039.079-.092.144-.131.222-.379.614-.745,1.216-1.1,1.817-.457.77-.9,1.528-1.32,2.273-.012,0,0,.013,0,.013-2.613,4.56-4.547,8.507-5.84,11.3-.171.353-.327.693-.458,1.006-.235.523-.444.98-.6,1.386-.157.313-.274.6-.366.835-.013.027-.026.04-.026.053-.222.523-.366.889-.444,1.072,0,.012,0,.026-.013.026a.577.577,0,0,0-.04.117l-.208-.078-.183-.079h-.014l-.248-.091-.117-.052c.026-.065.365-.954,1.032-2.509.131-.262.248-.536.392-.837.183-.417.392-.888.627-1.385q.177-.391.392-.823c.406-.889.876-1.855,1.411-2.914a.1.1,0,0,1,.013-.052c1.516-3.031,3.489-6.7,5.907-10.715.379-.64.784-1.281,1.189-1.947.17-.261.339-.536.509-.81l.51-.784c.5-.784,1.019-1.581,1.542-2.378a128.152,128.152,0,0,1,16.542-20.176,88.706,88.706,0,0,1,20.7-15.367c.157-.078.313-.169.484-.248.091-.052.182-.091.274-.143l.182.366Z" fill="#b3e81f"/><path d="M123.851,171.368l-1.807-1.889c.411-.392,41.166-39.456,51.54-56.133l2.219,1.38C165.255,131.683,125.536,169.755,123.851,171.368Z" fill="#1ca500" opacity="0.3" style="mix-blend-mode:multiply"/><path d="M170.711,110.981a87.02,87.02,0,0,0-21.116,15.5v.013a125.934,125.934,0,0,0-16.177,19.653c-.667.993-1.307,1.96-1.921,2.927l-.392.628-.627.98c0,.013,0,.013-.013.025-.405.667-.811,1.32-1.2,1.96-2.575,4.3-4.613,8.193-6.142,11.29-.339.693-.653,1.346-.928,1.948-.143.287-.274.575-.405.835-.222.51-.444.968-.627,1.4-.144.3-.261.588-.366.837-.536,1.2-.849,2-.967,2.3a.22.22,0,0,0-.026.065c-.013.04-.026.052-.026.066l-.34-.131h-.013l-.405-.157-.8-.3c.013-.039.2-.484.522-1.268.353-.849.9-2.1,1.634-3.672.131-.274.248-.548.392-.836.209-.444.444-.915.68-1.411.183-.379.365-.758.561-1.15,1.242-2.5,2.8-5.436,4.665-8.651a.042.042,0,0,0,.013-.026c1.347-2.313,2.849-4.769,4.509-7.3.235-.34.457-.693.692-1.032.066-.1.144-.21.209-.314.052-.065.091-.144.144-.209.287-.431.588-.862.888-1.294A124.19,124.19,0,0,1,150.549,123.3a86.59,86.59,0,0,1,19.038-13.6c.118-.065.248-.131.366-.2l.209.418.314.6Z" fill="#1ca500" opacity="0.3" style="mix-blend-mode:multiply"/><path d="M156.134,110.5c-9.681,5.686-18.3,16.657-22.851,30.576-3.47,10.619-3.969,21.158-1.976,30-5.48,2.307-11.226-.9-8.718-13.037C125.628,143.414,142.318,117.756,156.134,110.5Z" fill="#1ca500" opacity="0.3" style="mix-blend-mode:multiply"/><path d="M48.089,171.011c6.752-4.363,25.724-16.747,43.062-19.7s19.971,12.4,5.4,16.776C78.429,173.522,48.089,171.011,48.089,171.011Z" fill="#a2d613"/><path d="M99.944,166.717a19.308,19.308,0,0,1-3.392,1.36c-18.118,5.438-48.462,2.934-48.462,2.934,2.917-1.884,8.109-5.263,14.46-8.723,3.28,4.9,15.005,7.539,28.488,6.031A66.814,66.814,0,0,0,99.944,166.717Z" fill="#a2d613" opacity="0.3" style="mix-blend-mode:multiply"/><path d="M50.122,158.632s-.781-39.079,22.324-48.759C91.4,101.931,97.18,119.294,89,132.385,80.9,145.351,62.474,156.962,50.122,158.632Z" fill="#a2d613"/><path d="M83.069,139.887c-9.241,9.679-23.045,17.407-32.941,18.739,0,0-.782-39.066,22.318-48.759a25.183,25.183,0,0,1,6.407-1.831A21.64,21.64,0,0,0,73.9,122.225C73.9,130.127,77.681,136.939,83.069,139.887Z" fill="#a2d613" opacity="0.3" style="mix-blend-mode:multiply"/><path d="M45.5,159.459s21.34-38.155,3.651-59.013C34.634,83.333,19.8,97.626,20.971,114.54,22.134,131.291,34.2,151.764,45.5,159.459Z" fill="#a2d613"/><g opacity="0.3"><path d="M55.488,130.316c-2.345,15.454-9.994,29.145-9.994,29.145-11.292-7.7-23.366-28.176-24.525-44.923-.53-7.633,2.206-14.741,6.7-18.658A19.737,19.737,0,0,0,24.375,106.7c0,13.058,13.232,23.64,29.549,23.64C54.455,130.343,54.971,130.329,55.488,130.316Z" fill="#a2d613" style="mix-blend-mode:multiply"/></g><path d="M87.8,158.478c-.111.081-.237.162-.349.229C71.33,168.79,50.672,170.823,50.672,170.823a57.355,57.355,0,0,1,7.621-15.293c1.005,5.923,7.356,10.5,16.694,7.646A112.673,112.673,0,0,0,87.8,158.478Z" fill="#b4d821"/><path d="M51.817,170.228c-2.315-10.333-8.977-39.43-4.2-61.864s26.053-17.978,24.491,1.812C70.166,134.793,51.817,170.228,51.817,170.228Z" fill="#b3e81f"/><g opacity="0.3" style="mix-blend-mode:multiply"><path d="M65.816,137.208a273.032,273.032,0,0,1-14,33.022c-2.136-9.5-7.929-34.88-5.123-56.351C47.127,126.223,55.39,136.2,65.816,137.208Z" fill="#b3e81f"/></g><path d="M51.311,170.841s-30.506,3.718-38.793-22.653,22.963-27.739,33.05-13.392C54.859,148.011,53.017,157.3,51.311,170.841Z" fill="url(#a)"/><path d="M52.64,159.515c-.153,3.944-.74,6.7-1.326,11.321,0,0-30.512,3.729-38.8-22.643a23.7,23.7,0,0,1-1.117-11.173c5.542,12.277,21.593,22.508,40.534,22.508C52.166,159.528,52.4,159.528,52.64,159.515Z" fill="#b3e81f" opacity="0.3" style="mix-blend-mode:multiply"/><path d="M41.013,170.448s-27.892,6.106-38.13-7.912c-8.4-11.5,3.216-17.833,13.766-14.253C27.1,151.829,38.051,162.454,41.013,170.448Z" fill="#d7ff45"/><path d="M41.013,170.452s-27.888,6.1-38.133-7.916c-3.21-4.388-3.5-8.036-2.024-10.661,3.015,9.934,16.108,17.419,31.783,17.419a46.608,46.608,0,0,0,7.607-.605A17.159,17.159,0,0,1,41.013,170.452Z" fill="#ceef43" opacity="0.4" style="mix-blend-mode:multiply"/><path d="M51.974,167.413s-9.874-25.89,3.22-37.489c10.742-9.517,18.751.777,16.429,11.329C69.324,151.7,59.811,163.549,51.974,167.413Z" fill="#d7ff45"/><path d="M61.475,159.69a33.462,33.462,0,0,1-9.505,7.727s-9.142-24,1.871-36.132a28.091,28.091,0,0,0-1.354,8.75C52.487,148.611,56.144,156.041,61.475,159.69Z" fill="#ceef43" opacity="0.4" style="mix-blend-mode:multiply"/><path d="M50.678,170.822c3.647-10.349,8.286-20.13,26.794-33.281,15.518-11.025,29.745,8.8,9.973,21.169C71.334,168.79,50.678,170.822,50.678,170.822Z" fill="#b3e81f"/><path d="M67.868,167.228a103.135,103.135,0,0,1-17.2,3.595,63.235,63.235,0,0,1,5.067-11.362C57.47,162.88,61.964,165.707,67.868,167.228Z" fill="#b3e81f" opacity="0.3" style="mix-blend-mode:multiply"/><ellipse cx="88.628" cy="115.985" rx="1.005" ry="1.91" transform="matrix(0.852, -0.524, 0.524, 0.852, -47.627, 63.621)" fill="#fff"/><ellipse cx="66.597" cy="99.376" rx="1.186" ry="2.255" transform="translate(-42.191 49.618) rotate(-31.593)" fill="#fff"/><ellipse cx="62.409" cy="99.376" rx="0.791" ry="1.503" transform="translate(-42.812 47.424) rotate(-31.593)" fill="#fff"/><ellipse cx="78.397" cy="150.651" rx="2.391" ry="3.421" transform="translate(-81.143 92.437) rotate(-42.462)" fill="#fff"/><ellipse cx="87.773" cy="137.483" rx="0.859" ry="1.229" transform="translate(-69.794 95.313) rotate(-42.462)" fill="#fff"/><ellipse cx="30.545" cy="160.369" rx="0.859" ry="1.229" transform="translate(-100.253 62.681) rotate(-42.462)" fill="#fff"/><path d="M188.084,161.548C163.191,58.316,177.418,31.187,177.418,31.187c0,.035-.018.07-.018.105a.281.281,0,0,0-.018.121,34.838,34.838,0,0,0-.922,7.846.052.052,0,0,0,0,.07c-1.591,18.621-2.332,66.88,23.645,120.562C201.352,180.255,189.765,168.469,188.084,161.548Z" fill="#a2d613"/><path d="M177.416,31.189c-6.467,24.637,21.018,106.344,22.634,127.862s-10.272,9.508-11.964,2.5C163.189,58.321,177.416,31.189,177.416,31.189Z" fill="#a2d613"/><path d="M188.084,161.548C163.191,58.316,177.418,31.187,177.418,31.187c0,.035-.018.07-.018.105a.281.281,0,0,0-.018.121c-.127.785-.542,3.522-.922,7.846a.052.052,0,0,0,0,.07c-1.591,18.621-2.332,66.88,23.645,120.562C201.352,180.255,189.765,168.469,188.084,161.548Z" fill="#a2d613" opacity="0.3" style="mix-blend-mode:multiply"/><path d="M199.047,170.064c1.8-.953,3.524-3.422,4.111-7.817,1.786-13.13,19.892-30.915,48.308-37.42a.369.369,0,0,1-.077.006.18.18,0,0,1-.077,0C248.191,125.238,198.435,132.254,199.047,170.064Z" fill="#a2d613"/><path d="M251.46,124.829c-28.411,6.5-46.516,24.289-48.3,37.42-1.569,11.569-11,9.86-8.718,2C206.054,124.262,251.46,124.829,251.46,124.829Z" fill="#a2d613"/><path d="M199.047,170.064c-.612-37.81,49.144-44.826,52.265-45.226-2.894,0-45.659.785-56.865,39.4C193.027,169.117,196.121,171.626,199.047,170.064Z" fill="#a2d613"/><path d="M199.047,170.064c1.8-.953,3.524-3.422,4.111-7.817,1.786-13.13,19.892-30.915,48.308-37.42a.369.369,0,0,1-.077.006.18.18,0,0,1-.077,0C248.191,125.238,198.435,132.254,199.047,170.064Z" fill="#a2d613" opacity="0.2" style="mix-blend-mode:multiply"/><path d="M199.807,56.258c6.891,19.488-9.772,87.2-9.621,104.679s8.939,7.031,9.83,1.262C213.133,77.272,199.807,56.258,199.807,56.258Z" fill="#a2d613"/><path d="M244.557,102.794c-36.215,15.385-42.682,41.165-42.682,57.8s-15.09,11.642-15.09,0C186.785,107.368,244.557,102.794,244.557,102.794Z" fill="#b3e81f"/><path d="M125.78,157.312c13.1-20.115,57.382-14.175,66.933,3.43,1.465,2.7,4.177,8.511.147,10.5-2.762,1.362-6.567-.115-8.755-1.87-1.824-1.463-2.17-4.173-4.76-7.323-7.775-9.453-18.468-11.316-30.37-10.335a78.86,78.86,0,0,0-22.639,5.373C126.23,157.127,125.845,157.212,125.78,157.312Z" fill="#a2d613"/><path d="M244.557,103.141c-.018,0-.018.017-.036.017-36.173,15.395-42.644,41.146-42.644,57.779,0,9.4-4.827,11.891-9.021,10.183-3.218-1.308-6.074-5.109-6.074-10.183C186.782,107.709,244.557,103.141,244.557,103.141Z" fill="#b3e81f"/><path d="M244.521,103.158c-36.173,15.395-42.644,41.146-42.644,57.779,0,9.4-4.827,11.891-9.021,10.183C191.066,115.467,242.93,103.507,244.521,103.158Z" fill="#b3e81f" opacity="0.3" style="mix-blend-mode:multiply"/><path d="M194.447,171.7c-3.362-.122-7.159-4.045-7.665-9.677-2.856-30.7-37.926-77.411-39.029-78.858C148.856,84.294,193.326,130.722,194.447,171.7Z" fill="#b3e81f"/><path d="M194.447,171.7c-1.121-40.973-45.591-87.4-46.694-88.535l-.018-.034c16.577,5.613,50.038,57.691,51.972,76.085C200.665,168.33,197.755,171.834,194.447,171.7Z" fill="#b3e81f"/><path d="M194.447,171.7c-3.362-.122-7.159-4.045-7.665-9.677-2.856-30.7-37.926-77.411-39.029-78.858C148.856,84.294,193.326,130.722,194.447,171.7Z" fill="#b3e81f" opacity="0.3" style="mix-blend-mode:multiply"/><path d="M193.814,171.242c-2.82-.75-6.056-3.627-8.37-9.538-6.959-17.644-38.143-36.561-79.775-36.561a.534.534,0,0,0,.109-.017.24.24,0,0,0,.108-.017C110.351,124.673,181.757,118.605,193.814,171.242Z" fill="#b3e81f"/><path d="M105.678,125.144c41.625,0,72.808,18.919,79.76,36.565,6.125,15.548,18.624,10.183,12.772,0C168.462,109.94,105.678,125.144,105.678,125.144Z" fill="#b3e81f"/><path d="M193.814,171.242c-12.057-52.637-83.463-46.569-87.928-46.133,4.013-.925,63.6-13.408,92.321,36.6C201.84,168.016,198.406,172.479,193.814,171.242Z" fill="#b3e81f"/><path d="M193.814,171.242c-2.82-.75-6.056-3.627-8.37-9.538-6.959-17.644-38.143-36.561-79.775-36.561a.534.534,0,0,0,.109-.017.24.24,0,0,0,.108-.017C110.351,124.673,181.757,118.605,193.814,171.242Z" fill="#b3e81f" opacity="0.3" style="mix-blend-mode:multiply"/><path d="M271.934,136.578c-19.24.457-49.376,9.323-59.5,23.078-10.67,14.5-21.712,12.865-19.077,8.732C220.2,126.287,271.934,136.578,271.934,136.578Z" fill="#b3e81f"/><path d="M271.926,136.581c-19.234.453-49.369,9.328-59.492,23.066-6.454,8.77-13.052,11.647-16.667,11.63C219.791,134.07,271.926,136.581,271.926,136.581Z" fill="#b3e81f" opacity="0.3" style="mix-blend-mode:multiply"/><path d="M271.926,136.581s-52.135-2.511-76.159,34.7c-2.35-.018-3.453-1.256-2.405-2.895C220.189,126.294,271.926,136.581,271.926,136.581Z" fill="#b3e81f"/><path d="M189.3,171.677a11.358,11.358,0,0,1-5.188-2.3c-1.826-1.465-2.17-4.185-4.755-7.323-7.791-9.467-18.475-11.315-30.369-10.339a78.96,78.96,0,0,0-22.651,5.37c-.055.018-.181.053-.29.088C130.02,155.045,177.219,130.9,189.3,171.677Z" fill="#a2d613" opacity="0.3" style="mix-blend-mode:multiply"/><path d="M157.6,42.214a13.447,13.447,0,0,1-4.024.614,13.113,13.113,0,0,1-10.506-5.2,12.278,12.278,0,0,1-4.7,14.047,12.135,12.135,0,0,1,.014-14.726,13.415,13.415,0,0,1-15.289,0,13.156,13.156,0,0,1,10.532-5.161,13.4,13.4,0,0,1,3.985.6,12.272,12.272,0,0,1-4.7-13.995,12.58,12.58,0,0,1,8.976,11.839,12.267,12.267,0,0,1,3.032-4.914,12.452,12.452,0,0,1,8.859-3.672h.458a12.559,12.559,0,0,1-8.677,11.93A12.9,12.9,0,0,1,157.6,42.214Z" fill="url(#b)"/><g style="mix-blend-mode:multiply"><path d="M141,49.192a12.274,12.274,0,0,1-2.64,2.482,12.171,12.171,0,0,1-2.482-7.343c0-.157,0-.314.013-.471A17.3,17.3,0,0,0,141,49.192Z" fill="#e5004c"/></g><path d="M138.169,37.078c.065-.038.143-.091.209-.13a.148.148,0,0,0-.066.092C138.26,37.052,138.221,37.066,138.169,37.078Z" fill="#e5004c"/><g style="mix-blend-mode:multiply"><path d="M138.169,37.078a13.377,13.377,0,0,1-15.08-.13,12.2,12.2,0,0,1,1.66-1.8,14.807,14.807,0,0,0,13.42,1.933Z" fill="#e5004c"/></g></g></svg>