<svg xmlns="http://www.w3.org/2000/svg" xmlns:xlink="http://www.w3.org/1999/xlink" viewBox="0 0 389.3 190.363"><defs><linearGradient id="a" x1="2462.333" y1="5305.953" x2="2748.415" y2="5019.87" gradientTransform="translate(-2410.724 -5067.731)" gradientUnits="userSpaceOnUse"><stop offset="0.026" stop-color="#ff8b00"/><stop offset="0.349" stop-color="#ff8b00"/><stop offset="0.557" stop-color="#ffad35"/><stop offset="0.756" stop-color="#ffc962"/><stop offset="0.91" stop-color="#ffdb7d"/><stop offset="1" stop-color="#ffe187"/></linearGradient><linearGradient id="b" x1="18.669" y1="95.182" x2="370.63" y2="95.182" gradientUnits="userSpaceOnUse"><stop offset="0" stop-color="#ffab15"/><stop offset="0.157" stop-color="#ffb939"/><stop offset="0.449" stop-color="#ffd175"/><stop offset="0.696" stop-color="#ffe2a2"/><stop offset="0.888" stop-color="#ffedbd"/><stop offset="1" stop-color="#fff1c7"/></linearGradient><linearGradient id="c" x1="226.992" y1="133.581" x2="252.438" y2="108.136" gradientUnits="userSpaceOnUse"><stop offset="0" stop-color="#ffc969"/><stop offset="0.25" stop-color="#ffc25f"/><stop offset="0.676" stop-color="#ffb044"/><stop offset="1" stop-color="#ff9f2b"/></linearGradient><linearGradient id="d" x1="233.073" y1="42.458" x2="257.587" y2="17.944" xlink:href="#c"/><linearGradient id="e" x1="173.751" y1="47.981" x2="199.258" y2="22.474" xlink:href="#c"/><linearGradient id="f" x1="233.095" y1="74.78" x2="258.601" y2="49.273" xlink:href="#c"/><linearGradient id="g" x1="200.556" y1="75.022" x2="226.062" y2="49.515" xlink:href="#c"/><linearGradient id="h" x1="141.188" y1="80.299" x2="166.696" y2="54.791" xlink:href="#c"/><linearGradient id="i" x1="168.211" y1="74.78" x2="193.718" y2="49.274" xlink:href="#c"/><linearGradient id="j" x1="200.556" y1="140.131" x2="226.062" y2="114.625" xlink:href="#c"/><linearGradient id="k" x1="168.211" y1="139.889" x2="193.718" y2="114.383" xlink:href="#c"/><linearGradient id="l" x1="233.095" y1="106.914" x2="258.601" y2="81.408" xlink:href="#c"/><linearGradient id="m" x1="200.556" y1="107.156" x2="226.062" y2="81.65" xlink:href="#c"/><linearGradient id="n" x1="135.767" y1="107.014" x2="161.273" y2="81.508" xlink:href="#c"/><linearGradient id="o" x1="135.767" y1="140.094" x2="161.273" y2="114.588" xlink:href="#c"/><linearGradient id="p" x1="168.211" y1="106.914" x2="193.718" y2="81.408" xlink:href="#c"/><linearGradient id="q" x1="103.102" y1="139.889" x2="128.609" y2="114.383" xlink:href="#c"/><linearGradient id="r" x1="75.8" y1="145.237" x2="101.308" y2="119.728" xlink:href="#c"/><linearGradient id="s" x1="195.021" y1="166.578" x2="219.624" y2="141.976" xlink:href="#c"/><linearGradient id="t" x1="168.211" y1="172.969" x2="193.718" y2="147.462" xlink:href="#c"/><linearGradient id="u" x1="135.767" y1="173.173" x2="161.273" y2="147.667" xlink:href="#c"/><linearGradient id="v" x1="103.102" y1="172.969" x2="128.609" y2="147.462" xlink:href="#c"/><linearGradient id="w" x1="70.658" y1="173.173" x2="96.164" y2="147.667" xlink:href="#c"/><linearGradient id="x" x1="42.992" y1="178.065" x2="68.501" y2="152.557" xlink:href="#c"/><linearGradient id="y" x1="108.555" y1="112.367" x2="134.061" y2="86.86" xlink:href="#c"/><linearGradient id="z" x1="200.559" y1="42.439" x2="226.066" y2="16.932" xlink:href="#c"/><linearGradient id="aa" x1="266.515" y1="42.946" x2="292.025" y2="17.436" xlink:href="#c"/><linearGradient id="ab" x1="267.742" y1="28.821" x2="267.794" y2="28.821" xlink:href="#c"/><linearGradient id="ac" x1="278.117" y1="40.709" x2="281.246" y2="40.709" xlink:href="#c"/><linearGradient id="ad" x1="298.456" y1="42.439" x2="323.964" y2="16.932" xlink:href="#c"/><linearGradient id="ae" x1="266.01" y1="74.88" x2="291.516" y2="49.373" xlink:href="#c"/><linearGradient id="af" x1="292.369" y1="68.696" x2="317.878" y2="43.188" xlink:href="#c"/><linearGradient id="ag" x1="259.925" y1="100.934" x2="285.432" y2="75.428" xlink:href="#c"/><linearGradient id="ah" x1="324.716" y1="36.356" x2="350.221" y2="10.85" xlink:href="#c"/></defs><path d="M382.879,0H188.357a10.382,10.382,0,0,0-7.286,2.985L1.925,179.386a6.409,6.409,0,0,0,4.5,10.975H198.635a16.02,16.02,0,0,0,11.24-4.6l177.5-174.781A6.408,6.408,0,0,0,382.879,0Z" fill="url(#a)"/><path d="M234.669,161.341,209.878,185.75a16.013,16.013,0,0,1-11.247,4.613H6.421a6.407,6.407,0,0,1-4.493-10.976l66.746-65.734a94.882,94.882,0,0,0,22.713,36.723C126.13,185.13,183.228,187.61,234.669,161.341Z" fill="#e57200"/><path d="M369.4,15.674,201.984,180.523a4.1,4.1,0,0,1-2.877,1.181H22.776A4.1,4.1,0,0,1,19.9,174.69L187.315,9.841a4.1,4.1,0,0,1,2.877-1.18H366.523A4.1,4.1,0,0,1,369.4,15.674Z" fill="url(#b)"/><path d="M258.605,114.307v.012l-1.793,1.759-4.364,4.3L238.21,134.4l-3.083,3.039a1.2,1.2,0,0,0,.69.489,1.041,1.041,0,0,1-.735-.456l-2.115,2.082a1.085,1.085,0,0,1-.189-.624V115.1a1.145,1.145,0,0,1,1.146-1.147H257.77a1.125,1.125,0,0,1,.812.334C258.593,114.285,258.593,114.3,258.605,114.307Z" fill="url(#c)"/><path d="M258.916,19.727V41.736a1.021,1.021,0,0,1-1.024,1.024H233.8a1.021,1.021,0,0,1-1.024-1.024v-24.1a1.019,1.019,0,0,1,.6-.934,1.058,1.058,0,0,1,.423-.09h22a1.05,1.05,0,0,1,.412.09.889.889,0,0,1,.312.189c.59.579,1.18,1.168,1.759,1.759.111.111.234.233.345.356a1.019,1.019,0,0,1,.267.523A1.236,1.236,0,0,1,258.916,19.727Z" fill="url(#d)"/><path d="M194.037,17.7V41.658a1.1,1.1,0,0,1-1.091,1.1H168.989a1.1,1.1,0,0,1-1.1-1.1V39.42l2.1-2.07.112-.112,1.9-1.87,13.949-13.726,2.972-2.939,2.038-2h2.315a1.1,1.1,0,0,0-.423-.09h.089a1.058,1.058,0,0,1,.423.09A1.085,1.085,0,0,1,194.037,17.7Z" fill="url(#e)"/><path d="M193.937,17.69V38.564a21.957,21.957,0,0,0-7.982-16.922l2.972-2.939,2.038-2h2.315A1.078,1.078,0,0,1,193.937,17.69Z" fill="#e57200"/><path d="M191.933,19.749v19.86a1.045,1.045,0,0,1-1.046,1.047H171.038a1.045,1.045,0,0,1-1.047-1.047V37.35l.112-.112,1.9-1.87,13.949-13.726,2.972-2.939h1.96A1.052,1.052,0,0,1,191.933,19.749Z" fill="#ff8b00"/><path d="M180.433,40.656h-9.262a1.068,1.068,0,0,1-1.068-1.068v-2.35l1.9-1.87A11.9,11.9,0,0,0,180.433,40.656Z" fill="#e57200"/><rect x="232.774" y="48.952" width="26.149" height="26.149" rx="1.097" fill="url(#f)"/><path d="M257.947,48.952a1.08,1.08,0,0,1,1.08,1.08V70.911a21.956,21.956,0,0,0-21.958-21.959Z" fill="#e57200"/><rect x="234.874" y="51.052" width="21.948" height="21.948" rx="1.047" fill="#ff8b00"/><path d="M245.312,73h-9.259a1.064,1.064,0,0,1-1.064-1.063V62.268A11.926,11.926,0,0,0,245.312,73Z" fill="#e57200"/><rect x="200.235" y="49.194" width="26.149" height="26.149" rx="1.097" fill="url(#g)"/><path d="M225.2,49.194a1.081,1.081,0,0,1,1.081,1.08V71.153A21.957,21.957,0,0,0,204.32,49.194Z" fill="#e57200"/><rect x="202.335" y="51.294" width="21.948" height="21.948" rx="1.047" fill="#ff8b00"/><path d="M212.774,73.242h-9.26a1.063,1.063,0,0,1-1.063-1.063V62.51A11.926,11.926,0,0,0,212.774,73.242Z" fill="#e57200"/><path d="M161.6,50.152V74.109a1.1,1.1,0,0,1-1.1,1.091H136.539a1.093,1.093,0,0,1-1.091-1.091V71.37l2.1-2.07.111-.112,1.7-1.68,13.86-13.649,2.75-2.7,2.137-2.1H160.5A1.1,1.1,0,0,1,161.6,50.152Z" fill="url(#h)"/><path d="M161.486,50.13V71.014a21.978,21.978,0,0,0-8.26-17.155l2.75-2.7,2.137-2.1h2.293A1.081,1.081,0,0,1,161.486,50.13Z" fill="#e57200"/><path d="M159.493,52.2V72.049a1.044,1.044,0,0,1-1.046,1.046H138.6a1.044,1.044,0,0,1-1.046-1.046V69.3l.111-.112,1.7-1.68,13.86-13.649,2.75-2.7h2.471A1.045,1.045,0,0,1,159.493,52.2Z" fill="#ff8b00"/><path d="M147.983,73.1h-9.262a1.057,1.057,0,0,1-1.058-1.057v-2.85l1.7-1.68A11.936,11.936,0,0,0,147.983,73.1Z" fill="#e57200"/><rect x="167.89" y="48.952" width="26.149" height="26.149" rx="1.097" fill="url(#i)"/><path d="M192.854,48.952a1.081,1.081,0,0,1,1.08,1.081V70.911a21.957,21.957,0,0,0-21.959-21.959Z" fill="#e57200"/><rect x="169.991" y="51.052" width="21.948" height="21.948" rx="1.047" fill="#ff8b00"/><path d="M180.429,73H171.17a1.064,1.064,0,0,1-1.064-1.064V62.268A11.926,11.926,0,0,0,180.429,73Z" fill="#e57200"/><rect x="200.235" y="114.303" width="26.149" height="26.149" rx="1.097" fill="url(#j)"/><path d="M225.2,114.3a1.081,1.081,0,0,1,1.081,1.081v20.878A21.957,21.957,0,0,0,204.32,114.3Z" fill="#e57200"/><rect x="202.335" y="116.403" width="21.948" height="21.948" rx="1.047" fill="#ff8b00"/><path d="M212.774,138.352h-9.26a1.064,1.064,0,0,1-1.063-1.064v-9.669A11.927,11.927,0,0,0,212.774,138.352Z" fill="#e57200"/><rect x="167.89" y="114.062" width="26.149" height="26.149" rx="1.097" fill="url(#k)"/><path d="M192.854,114.062a1.08,1.08,0,0,1,1.08,1.08V136.02a21.956,21.956,0,0,0-21.959-21.958Z" fill="#e57200"/><rect x="169.991" y="116.161" width="21.948" height="21.948" rx="1.047" fill="#ff8b00"/><path d="M180.429,138.11H171.17a1.064,1.064,0,0,1-1.064-1.064v-9.668A11.926,11.926,0,0,0,180.429,138.11Z" fill="#e57200"/><rect x="232.774" y="81.087" width="26.149" height="26.149" rx="1.097" fill="url(#l)"/><path d="M257.737,81.087a1.079,1.079,0,0,1,1.08,1.08v20.878a21.956,21.956,0,0,0-21.958-21.958Z" fill="#e57200"/><rect x="234.874" y="83.186" width="21.948" height="21.948" rx="1.047" fill="#ff8b00"/><path d="M245.312,105.135h-9.259a1.064,1.064,0,0,1-1.064-1.064V94.4A11.926,11.926,0,0,0,245.312,105.135Z" fill="#e57200"/><rect x="200.235" y="81.329" width="26.149" height="26.149" rx="1.097" fill="url(#m)"/><path d="M225.2,81.329a1.08,1.08,0,0,1,1.081,1.08v20.878A21.956,21.956,0,0,0,204.32,81.329Z" fill="#e57200"/><rect x="202.335" y="83.429" width="21.948" height="21.948" rx="1.047" fill="#ff8b00"/><path d="M212.774,105.377h-9.26a1.063,1.063,0,0,1-1.063-1.064V94.645A11.926,11.926,0,0,0,212.774,105.377Z" fill="#e57200"/><rect x="135.446" y="81.187" width="26.149" height="26.149" rx="1.097" fill="url(#n)"/><path d="M160.409,81.187a1.08,1.08,0,0,1,1.081,1.08v20.878a21.956,21.956,0,0,0-21.959-21.958Z" fill="#e57200"/><rect x="137.546" y="83.287" width="21.948" height="21.948" rx="1.047" fill="#ff8b00"/><path d="M147.985,105.235h-9.26a1.063,1.063,0,0,1-1.063-1.064V94.5A11.926,11.926,0,0,0,147.985,105.235Z" fill="#e57200"/><rect x="135.446" y="114.266" width="26.149" height="26.149" rx="1.097" fill="url(#o)"/><path d="M160.409,114.266a1.081,1.081,0,0,1,1.081,1.081v20.878a21.957,21.957,0,0,0-21.959-21.959Z" fill="#e57200"/><rect x="137.546" y="116.366" width="21.948" height="21.948" rx="1.047" fill="#ff8b00"/><path d="M147.985,138.315h-9.26a1.064,1.064,0,0,1-1.063-1.064v-9.669A11.926,11.926,0,0,0,147.985,138.315Z" fill="#e57200"/><rect x="167.89" y="81.087" width="26.149" height="26.149" rx="1.097" fill="url(#p)"/><path d="M192.854,81.087a1.081,1.081,0,0,1,1.08,1.08v20.879a21.957,21.957,0,0,0-21.959-21.959Z" fill="#e57200"/><rect x="169.991" y="83.187" width="21.948" height="21.948" rx="1.047" fill="#ff8b00"/><path d="M180.429,105.135H171.17a1.064,1.064,0,0,1-1.064-1.064V94.4A11.926,11.926,0,0,0,180.429,105.135Z" fill="#e57200"/><rect x="102.781" y="114.062" width="26.149" height="26.149" rx="1.097" fill="url(#q)"/><path d="M127.745,114.062a1.08,1.08,0,0,1,1.08,1.08V136.02a21.956,21.956,0,0,0-21.959-21.958Z" fill="#e57200"/><rect x="104.881" y="116.161" width="21.948" height="21.948" rx="1.047" fill="#ff8b00"/><path d="M115.32,138.11h-9.259A1.064,1.064,0,0,1,105,137.046v-9.668A11.926,11.926,0,0,0,115.32,138.11Z" fill="#e57200"/><path d="M96.485,115.365v23.957a1.093,1.093,0,0,1-1.091,1.091H71.437a1.1,1.1,0,0,1-1.1-1.091v-3.841l2.1-2.07.111-.112,1.314-1.291L87.5,118.583l2.249-2.216,2.137-2.1h3.507A1.1,1.1,0,0,1,96.485,115.365Z" fill="url(#r)"/><path d="M96.384,115.343v20.884A22.017,22.017,0,0,0,87.5,118.583l2.249-2.216,2.137-2.1h3.418A1.088,1.088,0,0,1,96.384,115.343Z" fill="#e57200"/><path d="M94.38,117.413v19.849a1.055,1.055,0,0,1-1.046,1.058H73.485a1.055,1.055,0,0,1-1.046-1.058v-3.851l.111-.112,1.314-1.291L87.5,118.583l2.249-2.216h3.584A1.044,1.044,0,0,1,94.38,117.413Z" fill="#ff8b00"/><path d="M82.881,138.32H73.619a1.07,1.07,0,0,1-1.069-1.069V133.3l1.314-1.291A11.924,11.924,0,0,0,82.881,138.32Z" fill="#e57200"/><path d="M222.892,149.486l-3.74,3.673-14.116,13.905-2.583,2.549v.757a1.057,1.057,0,0,0,1.058,1.057h-.134a1.051,1.051,0,0,1-1.046-1.046v-.657l-2.093,2.071V148.484a1.1,1.1,0,0,1,1.091-1.1h23.7Z" fill="url(#s)"/><path d="M222.892,149.486l-3.74,3.673a21.9,21.9,0,0,0-14.829-5.777H225.03Z" fill="#e57200"/><path d="M222.892,149.486l-3.74,3.673-14.116,13.905-2.583,2.549v.757a1.057,1.057,0,0,0,1.058,1.057h-.134a1.051,1.051,0,0,1-1.046-1.046V150.532a1.051,1.051,0,0,1,1.046-1.046Z" fill="#ff8b00"/><path d="M202.453,160.7a11.761,11.761,0,0,0,2.583,6.368l-2.583,2.549Z" fill="#e57200"/><rect x="167.89" y="147.141" width="26.149" height="26.149" rx="1.097" fill="url(#t)"/><path d="M192.854,147.141a1.081,1.081,0,0,1,1.08,1.08V169.1a21.957,21.957,0,0,0-21.959-21.959Z" fill="#e57200"/><rect x="169.991" y="149.241" width="21.948" height="21.948" rx="1.047" fill="#ff8b00"/><path d="M180.429,171.19H171.17a1.064,1.064,0,0,1-1.064-1.064v-9.669A11.928,11.928,0,0,0,180.429,171.19Z" fill="#e57200"/><rect x="135.446" y="147.346" width="26.149" height="26.149" rx="1.097" fill="url(#u)"/><path d="M160.409,147.346a1.081,1.081,0,0,1,1.081,1.08v20.879a21.957,21.957,0,0,0-21.959-21.959Z" fill="#e57200"/><rect x="137.546" y="149.446" width="21.948" height="21.948" rx="1.047" fill="#ff8b00"/><path d="M147.985,171.394h-9.26a1.063,1.063,0,0,1-1.063-1.063v-9.669A11.926,11.926,0,0,0,147.985,171.394Z" fill="#e57200"/><rect x="102.781" y="147.141" width="26.149" height="26.149" rx="1.097" fill="url(#v)"/><path d="M127.745,147.141a1.081,1.081,0,0,1,1.08,1.08V169.1a21.957,21.957,0,0,0-21.959-21.959Z" fill="#e57200"/><rect x="104.881" y="149.241" width="21.948" height="21.948" rx="1.047" fill="#ff8b00"/><path d="M115.32,171.19h-9.259A1.064,1.064,0,0,1,105,170.126v-9.669A11.928,11.928,0,0,0,115.32,171.19Z" fill="#e57200"/><rect x="70.337" y="147.346" width="26.149" height="26.149" rx="1.097" fill="url(#w)"/><path d="M95.3,147.346a1.08,1.08,0,0,1,1.08,1.08v20.879a21.956,21.956,0,0,0-21.958-21.959Z" fill="#e57200"/><rect x="72.437" y="149.446" width="21.948" height="21.948" rx="1.047" fill="#ff8b00"/><path d="M82.876,171.394h-9.26a1.064,1.064,0,0,1-1.064-1.063v-9.669A11.928,11.928,0,0,0,82.876,171.394Z" fill="#e57200"/><path d="M40,165.36l-.111.1-2.1,2.081V172.4a1.1,1.1,0,0,0,1.091,1.1H62.832a1.1,1.1,0,0,0,1.1-1.1V148.439a1.1,1.1,0,0,0-1.1-1.091H58.29l-2.127,2.093-1.825,1.8L40.979,164.392Z" fill="url(#x)"/><path d="M56.163,149.441l2.127-2.093h4.452a1.074,1.074,0,0,1,1.08,1.08V169.3a21.944,21.944,0,0,0-9.484-18.056Z" fill="#e57200"/><path d="M40.979,164.392l13.359-13.147,1.825-1.8h4.62a1.053,1.053,0,0,1,1.047,1.047v19.86a1.045,1.045,0,0,1-1.047,1.046H40.934a1.044,1.044,0,0,1-1.046-1.046v-4.887l.111-.1Z" fill="#ff8b00"/><path d="M40.979,164.392a11.887,11.887,0,0,0,9.34,7H41.057A1.067,1.067,0,0,1,40,170.325V165.36Z" fill="#e57200"/><path d="M128.935,82.18v23.956a1.1,1.1,0,0,1-1.1,1.1H103.876a1.1,1.1,0,0,1-1.091-1.1v-2.6l2.093-2.06.123-.122,1.748-1.726,13.882-13.67,2.816-2.773,2.126-2.092h2.26A1.1,1.1,0,0,1,128.935,82.18Z" fill="url(#y)"/><path d="M128.824,82.169v20.873a21.927,21.927,0,0,0-8.193-17.088l2.816-2.773,2.126-2.092h2.171A1.074,1.074,0,0,1,128.824,82.169Z" fill="#e57200"/><path d="M126.831,84.228v19.86a1.045,1.045,0,0,1-1.046,1.047h-19.86a1.046,1.046,0,0,1-1.047-1.047v-2.616l.123-.122,1.748-1.726,13.882-13.67,2.816-2.773h2.338A1.052,1.052,0,0,1,126.831,84.228Z" fill="#ff8b00"/><path d="M115.32,105.135h-9.262A1.057,1.057,0,0,1,105,104.077V101.35l1.748-1.726A11.958,11.958,0,0,0,115.32,105.135Z" fill="#e57200"/><path d="M226.388,17.7V41.658a1.1,1.1,0,0,1-1.1,1.1H201.329a1.1,1.1,0,0,1-1.091-1.1V17.7a1.085,1.085,0,0,1,.668-1,1.1,1.1,0,0,1,.423-.09h23.957a1.119,1.119,0,0,1,.434.09A1.087,1.087,0,0,1,226.388,17.7Z" fill="url(#z)"/><path d="M226.276,17.69V38.564a21.972,21.972,0,0,0-12.6-19.861,21.461,21.461,0,0,0-7.437-2c-.634-.056-1.269-.09-1.915-.09H225.2a1.108,1.108,0,0,1,.424.09A1.062,1.062,0,0,1,226.276,17.69Z" fill="#e57200"/><rect x="202.335" y="18.708" width="21.948" height="21.948" rx="1.047" fill="#ff8b00"/><path d="M212.564,40.656H203.3a1.063,1.063,0,0,1-1.063-1.064V29.924A11.926,11.926,0,0,0,212.564,40.656Z" fill="#e57200"/><path d="M258.605,114.307v.012l-1.793,1.759-4.364,4.3a21.9,21.9,0,0,0-14.271-6.424c-.423-.033-.846-.044-1.28-.044H257.77a1.045,1.045,0,0,1,.812.378C258.593,114.285,258.593,114.3,258.605,114.307Z" fill="#e57200"/><path d="M256.812,116.044v.034l-4.364,4.3L238.21,134.4l-3.083,3.039a1.133,1.133,0,0,1-.245-.735V116.044Z" fill="#ff8b00"/><path d="M238.21,134.4l-3.083,3.039a1.2,1.2,0,0,0,.69.489,1.041,1.041,0,0,1-.735-.456,1.071,1.071,0,0,1-.156-.423.7.7,0,0,1-.011-.156v-9.674A11.874,11.874,0,0,0,238.21,134.4Z" fill="#e57200"/><path d="M258.916,19.727V33.821a18.575,18.575,0,0,0-9.9-15.118,18.317,18.317,0,0,0-6.49-2c-.312-.045-.624-.067-.947-.09H255.8a1.05,1.05,0,0,1,.412.09.889.889,0,0,1,.312.189c.59.579,1.18,1.168,1.759,1.759.111.111.234.233.345.356h.011a1.048,1.048,0,0,1,.256.523A1.236,1.236,0,0,1,258.916,19.727Z" fill="#e57200"/><path d="M241.583,16.61h-2.46c.412-.033.813-.044,1.225-.044S241.171,16.577,241.583,16.61Z" fill="#e57200"/><path d="M258.97,35.185c0,.462-.021.914-.053,1.365V33.82C258.949,34.271,258.97,34.723,258.97,35.185Z" fill="#e57200"/><path d="M234.879,39.612V19.751a1.044,1.044,0,0,1,1.044-1.043h19.02a1.06,1.06,0,0,1,.742.3q.418.411.83.83a1.061,1.061,0,0,1,.3.742V39.612a1.044,1.044,0,0,1-1.044,1.044h-19.85A1.044,1.044,0,0,1,234.879,39.612Z" fill="#ff8b00"/><path d="M245.2,40.656h-9.259a1.064,1.064,0,0,1-1.064-1.064V29.924A11.926,11.926,0,0,0,245.2,40.656Z" fill="#e57200"/><path d="M291.835,17.69V41.68a1.088,1.088,0,0,1-1.08,1.08H266.776a1.081,1.081,0,0,1-1.08-1.08V19.749a1.1,1.1,0,0,1,.3-.756c.679-.713,1.37-1.4,2.082-2.082a.9.9,0,0,1,.323-.211,1.115,1.115,0,0,1,.434-.09h21.92a1.107,1.107,0,0,1,.423.09A1.08,1.08,0,0,1,291.835,17.69Z" fill="url(#aa)"/><path d="M267.742,28.821c0-.367.021-.746.052-1.1v2.2C267.763,29.567,267.742,29.189,267.742,28.821Z" fill="url(#ab)"/><path d="M281.246,40.656a11.708,11.708,0,0,1-3.129,0Z" fill="url(#ac)"/><path d="M291.835,17.69V38.564A21.955,21.955,0,0,0,271.8,16.7c-.634-.056-1.28-.09-1.925-.09h20.884a1.107,1.107,0,0,1,.423.09A1.08,1.08,0,0,1,291.835,17.69Z" fill="#e57200"/><path d="M267.794,39.52v-18.9a1.145,1.145,0,0,1,.327-.8c.27-.275.53-.536.785-.787a1.128,1.128,0,0,1,.794-.323h18.9a1.136,1.136,0,0,1,1.137,1.136V39.52a1.137,1.137,0,0,1-1.137,1.136H268.93A1.137,1.137,0,0,1,267.794,39.52Z" fill="#ff8b00"/><path d="M278.117,40.656h-9.259a1.064,1.064,0,0,1-1.064-1.064V29.924A11.926,11.926,0,0,0,278.117,40.656Z" fill="#e57200"/><path d="M324.285,17.7V41.658a1.1,1.1,0,0,1-1.1,1.1H299.226a1.1,1.1,0,0,1-1.091-1.1V17.7a1.087,1.087,0,0,1,.668-1,1.107,1.107,0,0,1,.423-.09h23.957a1.111,1.111,0,0,1,.434.09A1.085,1.085,0,0,1,324.285,17.7Z" fill="url(#ad)"/><path d="M324.174,17.69V38.564a21.976,21.976,0,0,0-12.6-19.861,21.455,21.455,0,0,0-7.436-2c-.635-.056-1.269-.09-1.915-.09h20.873a1.1,1.1,0,0,1,.423.09A1.061,1.061,0,0,1,324.174,17.69Z" fill="#e57200"/><rect x="300.233" y="18.708" width="21.948" height="21.948" rx="1.047" fill="#ff8b00"/><path d="M310.672,40.656h-9.26a1.064,1.064,0,0,1-1.064-1.064V29.924A11.927,11.927,0,0,0,310.672,40.656Z" fill="#e57200"/><rect x="265.688" y="49.052" width="26.149" height="26.149" rx="1.097" fill="url(#ae)"/><path d="M290.652,49.052a1.08,1.08,0,0,1,1.08,1.08V71.011a21.957,21.957,0,0,0-21.959-21.959Z" fill="#e57200"/><rect x="267.789" y="51.152" width="21.948" height="21.948" rx="1.047" fill="#ff8b00"/><path d="M278.227,73.1h-9.259a1.063,1.063,0,0,1-1.064-1.063V62.368A11.926,11.926,0,0,0,278.227,73.1Z" fill="#e57200"/><path d="M324.219,49.707l-.078.077-2.015,1.982-4.041,3.985L303.913,69.7l-3.128,3.084a1.025,1.025,0,0,0,.623.211h-.133a1,1,0,0,1-.546-.156l-2.1,2.071h-.011a1.073,1.073,0,0,1-.479-.9V50.052a1.1,1.1,0,0,1,1.091-1.1h23.957A1.07,1.07,0,0,1,324.219,49.707Z" fill="url(#af)"/><path d="M324.141,49.784l-2.015,1.982-4.041,3.985a21.607,21.607,0,0,0-6.49-4.7,21.831,21.831,0,0,0-9.374-2.1h20.873A1.075,1.075,0,0,1,324.141,49.784Z" fill="#e57200"/><path d="M322.126,51.766l-4.041,3.985L303.913,69.7l-3.128,3.084a1.025,1.025,0,0,0,.623.211h-.133a1,1,0,0,1-.546-.156,1.048,1.048,0,0,1-.5-.89V52.1a1.052,1.052,0,0,1,1.047-1.046h19.86A1.037,1.037,0,0,1,322.126,51.766Z" fill="#ff8b00"/><path d="M300.351,62.264a11.819,11.819,0,0,0,3.562,7.436l-3.128,3.084a1.019,1.019,0,0,1-.434-.846Z" fill="#e57200"/><path d="M291.69,81.745l-.067.056-2.037,2-4.086,4.03L271.318,101.8l-3.14,3.094a1.085,1.085,0,0,0,.791.346h-.134a.979.979,0,0,1-.712-.29l-2.1,2.071h-.011a1.083,1.083,0,0,1-.323-.78V82.28a1.1,1.1,0,0,1,1.1-1.091h23.957a.241.241,0,0,1,.122.022A1.019,1.019,0,0,1,291.69,81.745Z" fill="url(#ag)"/><path d="M289.586,83.805l-4.086,4.03a21.941,21.941,0,0,0-15.73-6.646h20.885a1.242,1.242,0,0,1,.211.022,1.08,1.08,0,0,1,.757.59Z" fill="#e57200"/><path d="M289.586,83.805l-4.086,4.03L271.318,101.8l-3.14,3.094a1.085,1.085,0,0,0,.791.346h-.134a.979.979,0,0,1-.712-.29,1.02,1.02,0,0,1-.334-.757V84.328a1.051,1.051,0,0,1,1.046-1.046H288.7A1.029,1.029,0,0,1,289.586,83.805Z" fill="#ff8b00"/><path d="M267.9,94.5a11.8,11.8,0,0,0,3.418,7.292l-3.14,3.094a1.1,1.1,0,0,1-.278-.723Z" fill="#e57200"/><path d="M356.625,17.7v.089l-.1.1-2,1.982-3.852,3.785L336.408,37.706l-2.983,2.928a1.249,1.249,0,0,0,.2.022h-.078a.419.419,0,0,1-.122-.011l-2.115,2.082a1.1,1.1,0,0,1-.835-1.069V17.7a1.085,1.085,0,0,1,.668-1,1.111,1.111,0,0,1,.434-.09h23.957a1.107,1.107,0,0,1,.423.09A1.087,1.087,0,0,1,356.625,17.7Z" fill="url(#ah)"/><path d="M356.524,17.69v.2l-2,1.982-3.852,3.785A21.889,21.889,0,0,0,336.486,16.7c-.634-.056-1.28-.09-1.926-.09h20.885a1.107,1.107,0,0,1,.423.09A1.079,1.079,0,0,1,356.524,17.69Z" fill="#e57200"/><path d="M354.521,19.749v.123l-3.852,3.785L336.408,37.706l-2.983,2.928a1.041,1.041,0,0,1-.846-1.025V19.749a1.053,1.053,0,0,1,1.046-1.046h19.849A1.053,1.053,0,0,1,354.521,19.749Z" fill="#ff8b00"/><path d="M336.408,37.706l-2.983,2.928a1.249,1.249,0,0,0,.2.022h-.078a.419.419,0,0,1-.122-.011,1.062,1.062,0,0,1-.946-1.057V29.925a7.093,7.093,0,0,0,.1.712A11.771,11.771,0,0,0,336.408,37.706Z" fill="#e57200"/><path d="M333.425,40.634v.011a.419.419,0,0,0,.122.011h.078A1.249,1.249,0,0,1,333.425,40.634ZM301.019,72.918a1.332,1.332,0,0,1-.234-.134l-.056.055a.976.976,0,0,0,.512.146A.9.9,0,0,1,301.019,72.918Zm.222.067a.046.046,0,0,0,.034.01h.133A.942.942,0,0,1,301.241,72.985Zm-66.114,64.456-.045.033a1.041,1.041,0,0,0,.735.456A1.2,1.2,0,0,1,235.127,137.441ZM202.453,170.37v-.757l-.122.111v.657a1.051,1.051,0,0,0,1.046,1.046h.134A1.057,1.057,0,0,1,202.453,170.37Zm65.725-65.481-.055.056a.979.979,0,0,0,.712.29h.134A1.085,1.085,0,0,1,268.178,104.889ZM355.534,16.61H331.577a1.111,1.111,0,0,0-.434.09h24.814A1.107,1.107,0,0,0,355.534,16.61Zm-32.351,0H299.226a1.107,1.107,0,0,0-.423.09h24.814A1.111,1.111,0,0,0,323.183,16.61Zm-32.428,0h-21.92a1.115,1.115,0,0,0-.434.09h22.777A1.107,1.107,0,0,0,290.755,16.61Zm-34.956,0H241.583c-.412-.033-.824-.044-1.235-.044s-.813.011-1.225.044H233.8a1.058,1.058,0,0,0-.423.09h22.832A1.05,1.05,0,0,0,255.8,16.61Zm-30.513,0H201.329a1.1,1.1,0,0,0-.423.09H225.72A1.119,1.119,0,0,0,225.286,16.61Zm-32.34,0h-.089a1.1,1.1,0,0,1,.423.09h.089A1.058,1.058,0,0,0,192.946,16.61ZM56.163,149.441l-1.825,1.8M40.979,164.392l-.98.968" fill="none"/></svg>