<svg xmlns="http://www.w3.org/2000/svg" xmlns:xlink="http://www.w3.org/1999/xlink" viewBox="0 0 274 274"><defs><linearGradient id="a" x1="40.172" y1="233.828" x2="233.828" y2="40.172" gradientUnits="userSpaceOnUse"><stop offset="0.026" stop-color="#ff8b00"/><stop offset="0.349" stop-color="#ff8b00"/><stop offset="0.557" stop-color="#ffad35"/><stop offset="0.756" stop-color="#ffc962"/><stop offset="0.91" stop-color="#ffdb7d"/><stop offset="1" stop-color="#ffe187"/></linearGradient><linearGradient id="b" x1="48.228" y1="225.772" x2="225.772" y2="48.228" gradientUnits="userSpaceOnUse"><stop offset="0" stop-color="#ffab15"/><stop offset="0.157" stop-color="#ffb939"/><stop offset="0.449" stop-color="#ffd175"/><stop offset="0.696" stop-color="#ffe2a2"/><stop offset="0.888" stop-color="#ffedbd"/><stop offset="1" stop-color="#fff1c7"/></linearGradient><linearGradient id="c" x1="220.975" y1="44.307" x2="221.19" y2="44.307" gradientUnits="userSpaceOnUse"><stop offset="0" stop-color="#ffc969"/><stop offset="0.25" stop-color="#ffc25f"/><stop offset="0.676" stop-color="#ffb044"/><stop offset="1" stop-color="#ff9f2b"/></linearGradient><linearGradient id="d" x1="220.975" y1="229.688" x2="221.19" y2="229.688" xlink:href="#c"/><linearGradient id="e" x1="229.568" y1="221.08" x2="229.783" y2="221.08" xlink:href="#c"/><linearGradient id="f" x1="229.568" y1="52.914" x2="229.783" y2="52.914" xlink:href="#c"/><linearGradient id="g" x1="184.437" y1="241.843" x2="201.967" y2="224.313" xlink:href="#c"/><linearGradient id="h" x1="142.553" y1="254.711" x2="172.214" y2="225.051" xlink:href="#c"/><linearGradient id="i" x1="103.534" y1="252.971" x2="129.714" y2="226.791" xlink:href="#c"/><linearGradient id="j" x1="75.323" y1="238.553" x2="86.272" y2="227.604" xlink:href="#c"/><linearGradient id="k" x1="35.448" y1="198.692" x2="46.404" y2="187.735" xlink:href="#c"/><linearGradient id="l" x1="54.65" y1="219.355" x2="88.456" y2="185.548" xlink:href="#c"/><linearGradient id="m" x1="185.325" y1="220.059" x2="220.054" y2="185.329" xlink:href="#c"/><linearGradient id="n" x1="224.305" y1="201.982" x2="241.842" y2="184.445" xlink:href="#c"/><linearGradient id="o" x1="225.046" y1="172.218" x2="254.721" y2="142.543" xlink:href="#c"/><linearGradient id="p" x1="21.022" y1="170.474" x2="47.21" y2="144.287" xlink:href="#c"/><linearGradient id="q" x1="226.794" y1="129.711" x2="252.974" y2="103.531" xlink:href="#c"/><linearGradient id="r" x1="227.599" y1="86.277" x2="238.555" y2="75.321" xlink:href="#c"/><linearGradient id="s" x1="187.728" y1="46.391" x2="198.676" y2="35.442" xlink:href="#c"/><linearGradient id="t" x1="185.949" y1="88.048" x2="219.38" y2="54.617" xlink:href="#c"/><linearGradient id="u" x1="144.297" y1="47.2" x2="170.47" y2="21.027" xlink:href="#c"/><linearGradient id="v" x1="101.79" y1="48.947" x2="131.457" y2="19.28" xlink:href="#c"/><linearGradient id="w" x1="72.033" y1="49.681" x2="89.563" y2="32.151" xlink:href="#c"/><linearGradient id="x" x1="32.151" y1="89.57" x2="49.694" y2="72.027" xlink:href="#c"/><linearGradient id="y" x1="53.93" y1="88.717" x2="88.72" y2="53.927" xlink:href="#c"/><linearGradient id="z" x1="19.282" y1="131.455" x2="48.95" y2="101.787" xlink:href="#c"/><linearGradient id="aa" x1="55.602" y1="69.456" x2="55.674" y2="69.456" xlink:href="#c"/><linearGradient id="ab" x1="69.752" y1="85.668" x2="74.02" y2="85.668" xlink:href="#c"/><linearGradient id="ac" x1="97.487" y1="88.023" x2="132.272" y2="53.238" xlink:href="#c"/><linearGradient id="ad" x1="185.974" y1="132.133" x2="220.759" y2="97.348" xlink:href="#c"/><linearGradient id="ae" x1="141.598" y1="132.463" x2="176.383" y2="97.678" xlink:href="#c"/><linearGradient id="af" x1="53.24" y1="132.27" x2="88.025" y2="97.485" xlink:href="#c"/><linearGradient id="ag" x1="97.487" y1="132.134" x2="132.272" y2="97.349" xlink:href="#c"/><linearGradient id="ah" x1="141.598" y1="221.258" x2="176.383" y2="186.473" xlink:href="#c"/><linearGradient id="ai" x1="97.487" y1="220.928" x2="132.272" y2="186.143" xlink:href="#c"/><linearGradient id="aj" x1="185.974" y1="175.958" x2="220.759" y2="141.173" xlink:href="#c"/><linearGradient id="ak" x1="141.598" y1="176.288" x2="176.383" y2="141.503" xlink:href="#c"/><linearGradient id="al" x1="53.24" y1="176.094" x2="88.025" y2="141.309" xlink:href="#c"/><linearGradient id="am" x1="97.487" y1="175.958" x2="132.272" y2="141.173" xlink:href="#c"/><linearGradient id="an" x1="141.598" y1="88.023" x2="176.383" y2="53.238" xlink:href="#c"/></defs><circle cx="137" cy="137" r="137" fill="url(#a)"/><path d="M164.548,271.206A136.244,136.244,0,0,1,137.007,274c-75.547,0-137-61.455-137-137A136.3,136.3,0,0,1,2.8,109.457,198.108,198.108,0,0,0,164.548,271.206Z" fill="#e57200"/><circle cx="137" cy="137" r="125.543" fill="url(#b)"/><path d="M221.19,44.207v.2a2.63,2.63,0,0,0-.215-.2Z" fill="url(#c)"/><path d="M221.19,44.207v.2a2.63,2.63,0,0,0-.215-.2Z" fill="#ff8b00"/><path d="M221.19,229.587v.2h-.215A2.481,2.481,0,0,0,221.19,229.587Z" fill="url(#d)"/><path d="M221.19,229.587v.2h-.215A2.481,2.481,0,0,0,221.19,229.587Z" fill="#ff8b00"/><path d="M229.783,220.965v.23h-.215A1.56,1.56,0,0,0,229.783,220.965Z" fill="url(#e)"/><path d="M229.783,220.965v.23h-.215A1.56,1.56,0,0,0,229.783,220.965Z" fill="#ff8b00"/><path d="M229.783,52.8v.229a1.508,1.508,0,0,0-.215-.229Z" fill="url(#f)"/><path d="M229.783,52.8v.229a1.508,1.508,0,0,0-.215-.229Z" fill="#ff8b00"/><path d="M207.441,229.788a115.52,115.52,0,0,1-21.9,13.161V229.788Z" fill="url(#g)"/><path d="M188.408,232.652h9.972a112.761,112.761,0,0,1-9.972,5.731Z" fill="#ff8b00"/><path d="M176.951,229.788v16.7a115.489,115.489,0,0,1-35.647,6.975V229.788Z" fill="url(#h)"/><path d="M132.71,229.788v23.674a115.577,115.577,0,0,1-35.661-6.975v-16.7Z" fill="url(#i)"/><path d="M88.456,229.788v13.161a115.528,115.528,0,0,1-21.9-13.161Z" fill="url(#j)"/><path d="M85.592,238.384a113.182,113.182,0,0,1-9.973-5.732h9.973Z" fill="#ff8b00"/><path d="M44.216,185.548V207.46a115.637,115.637,0,0,1-13.161-21.912Z" fill="url(#k)"/><path d="M41.352,198.4a112.809,112.809,0,0,1-5.732-9.983h5.732Z" fill="#ff8b00"/><polygon points="88.456 185.548 88.456 221.195 56.49 221.195 52.809 217.514 52.809 185.548 88.456 185.548" fill="url(#l)"/><polygon points="57.676 218.33 55.674 216.328 55.674 188.412 85.592 188.412 85.592 218.33 57.676 218.33" fill="#ff8b00"/><path d="M221.19,187.113v29.766a1.582,1.582,0,0,1-.437,1.095q-1.359,1.421-2.784,2.784a1.585,1.585,0,0,1-1.095.437H187.109a1.565,1.565,0,0,1-1.565-1.566V187.113a1.565,1.565,0,0,1,1.565-1.565h32.516A1.565,1.565,0,0,1,221.19,187.113Z" fill="url(#m)"/><path d="M242.945,185.548a115.642,115.642,0,0,1-13.162,21.912V185.548Z" fill="url(#n)"/><path d="M232.648,188.412h5.732a113.041,113.041,0,0,1-5.732,9.982Z" fill="#ff8b00"/><path d="M253.472,141.294a115.577,115.577,0,0,1-6.975,35.661H229.783V141.294Z" fill="url(#o)"/><path d="M44.216,141.294v35.661H27.5a115.577,115.577,0,0,1-6.975-35.661Z" fill="url(#p)"/><path d="M253.472,132.7H229.783V97.054H246.5A115.477,115.477,0,0,1,253.472,132.7Z" fill="url(#q)"/><path d="M242.959,88.461H229.783V66.549A115.673,115.673,0,0,1,242.959,88.461Z" fill="url(#r)"/><path d="M232.648,85.6V75.607a112.907,112.907,0,0,1,5.745,9.989Z" fill="#ff8b00"/><path d="M207.441,44.207h-21.9V31.045A115.524,115.524,0,0,1,207.441,44.207Z" fill="url(#s)"/><path d="M188.408,41.341v-5.73a112.878,112.878,0,0,1,9.971,5.73Z" fill="#ff8b00"/><path d="M221.19,57.046v30.02a1.4,1.4,0,0,1-1.394,1.395H186.938a1.4,1.4,0,0,1-1.394-1.395V54.194a1.394,1.394,0,0,1,1.394-1.394h30.006a1.408,1.408,0,0,1,.975.389q1.473,1.405,2.882,2.881A1.413,1.413,0,0,1,221.19,57.046Z" fill="url(#t)"/><path d="M176.951,27.507v16.7H141.3V20.533A115.488,115.488,0,0,1,176.951,27.507Z" fill="url(#u)"/><path d="M132.71,20.533V44.207H97.049v-16.7A115.576,115.576,0,0,1,132.71,20.533Z" fill="url(#v)"/><path d="M88.456,31.045V44.207h-21.9A115.532,115.532,0,0,1,88.456,31.045Z" fill="url(#w)"/><path d="M75.62,41.341a112.9,112.9,0,0,1,9.972-5.731v5.731Z" fill="#ff8b00"/><path d="M44.216,66.549V88.461H31.041A115.669,115.669,0,0,1,44.216,66.549Z" fill="url(#x)"/><path d="M35.607,85.6a113.157,113.157,0,0,1,5.745-9.989V85.6Z" fill="#ff8b00"/><path d="M88.456,54.274V86.986a1.475,1.475,0,0,1-1.474,1.475h-32.7a1.476,1.476,0,0,1-1.475-1.475V57.08a1.489,1.489,0,0,1,.416-1.033c.929-.965,1.868-1.912,2.83-2.834a1.5,1.5,0,0,1,1.034-.413H86.982A1.474,1.474,0,0,1,88.456,54.274Z" fill="url(#y)"/><path d="M44.216,97.054V132.7H20.528A115.477,115.477,0,0,1,27.5,97.054Z" fill="url(#z)"/><path d="M55.6,69.456c0-.5.029-1.017.072-1.5V70.96C55.631,70.473,55.6,69.957,55.6,69.456Z" fill="url(#aa)"/><path d="M74.02,85.6a15.884,15.884,0,0,1-4.268,0Z" fill="url(#ab)"/><path d="M86.983,52.8a1.472,1.472,0,0,1,1.473,1.473V82.747A29.944,29.944,0,0,0,58.509,52.8Z" fill="#e57200"/><path d="M55.674,84.047V58.266a1.562,1.562,0,0,1,.446-1.089c.368-.375.723-.731,1.07-1.073a1.54,1.54,0,0,1,1.084-.441H84.043a1.55,1.55,0,0,1,1.549,1.55V84.047A1.549,1.549,0,0,1,84.043,85.6H57.223A1.548,1.548,0,0,1,55.674,84.047Z" fill="#ff8b00"/><path d="M69.752,85.6H57.124a1.45,1.45,0,0,1-1.45-1.451V70.96A16.264,16.264,0,0,0,69.752,85.6Z" fill="#e57200"/><rect x="97.049" y="52.8" width="35.661" height="35.661" rx="1.495" fill="url(#ac)"/><path d="M131.094,52.8a1.472,1.472,0,0,1,1.473,1.473V82.747A29.944,29.944,0,0,0,102.62,52.8Z" fill="#e57200"/><rect x="99.914" y="55.663" width="29.932" height="29.933" rx="1.428" fill="#ff8b00"/><path d="M114.15,85.6H101.522a1.451,1.451,0,0,1-1.451-1.451V70.96A16.266,16.266,0,0,0,114.15,85.6Z" fill="#e57200"/><rect x="185.536" y="96.91" width="35.661" height="35.661" rx="1.495" fill="url(#ad)"/><path d="M219.868,96.91a1.474,1.474,0,0,1,1.473,1.473v28.474A29.945,29.945,0,0,0,191.394,96.91Z" fill="#e57200"/><rect x="188.401" y="99.774" width="29.932" height="29.933" rx="1.428" fill="#ff8b00"/><path d="M202.637,129.707H190.009a1.451,1.451,0,0,1-1.451-1.451V115.07A16.267,16.267,0,0,0,202.637,129.707Z" fill="#e57200"/><rect x="141.16" y="97.24" width="35.661" height="35.661" rx="1.495" fill="url(#ae)"/><path d="M175.205,97.24a1.473,1.473,0,0,1,1.473,1.473v28.474A29.944,29.944,0,0,0,146.731,97.24Z" fill="#e57200"/><rect x="144.025" y="100.104" width="29.932" height="29.933" rx="1.428" fill="#ff8b00"/><path d="M158.261,130.037H145.633a1.451,1.451,0,0,1-1.451-1.451V115.4A16.267,16.267,0,0,0,158.261,130.037Z" fill="#e57200"/><rect x="52.802" y="97.047" width="35.661" height="35.661" rx="1.495" fill="url(#af)"/><path d="M86.847,97.047A1.472,1.472,0,0,1,88.32,98.52v28.474A29.944,29.944,0,0,0,58.373,97.047Z" fill="#e57200"/><rect x="55.667" y="99.91" width="29.932" height="29.933" rx="1.428" fill="#ff8b00"/><path d="M69.9,129.843H57.275a1.451,1.451,0,0,1-1.451-1.45V115.207A16.264,16.264,0,0,0,69.9,129.843Z" fill="#e57200"/><rect x="97.049" y="96.911" width="35.661" height="35.661" rx="1.495" fill="url(#ag)"/><path d="M131.094,96.911a1.472,1.472,0,0,1,1.473,1.473v28.474A29.944,29.944,0,0,0,102.62,96.911Z" fill="#e57200"/><rect x="99.914" y="99.774" width="29.932" height="29.933" rx="1.428" fill="#ff8b00"/><path d="M114.15,129.707H101.522a1.451,1.451,0,0,1-1.451-1.451V115.071A16.266,16.266,0,0,0,114.15,129.707Z" fill="#e57200"/><rect x="141.16" y="186.035" width="35.661" height="35.661" rx="1.495" fill="url(#ah)"/><path d="M175.205,186.035a1.473,1.473,0,0,1,1.473,1.473v28.474a29.944,29.944,0,0,0-29.947-29.947Z" fill="#e57200"/><rect x="144.025" y="188.899" width="29.932" height="29.933" rx="1.428" fill="#ff8b00"/><path d="M158.261,218.832H145.633a1.451,1.451,0,0,1-1.451-1.451V204.2A16.267,16.267,0,0,0,158.261,218.832Z" fill="#e57200"/><rect x="97.049" y="185.705" width="35.661" height="35.661" rx="1.495" fill="url(#ai)"/><path d="M131.094,185.705a1.473,1.473,0,0,1,1.473,1.474v28.473a29.944,29.944,0,0,0-29.947-29.947Z" fill="#e57200"/><rect x="99.914" y="188.569" width="29.932" height="29.933" rx="1.428" fill="#ff8b00"/><path d="M114.15,218.5H101.522a1.451,1.451,0,0,1-1.451-1.451V203.866A16.266,16.266,0,0,0,114.15,218.5Z" fill="#e57200"/><rect x="185.536" y="140.735" width="35.661" height="35.661" rx="1.495" fill="url(#aj)"/><path d="M219.581,140.735a1.472,1.472,0,0,1,1.473,1.473v28.474a29.944,29.944,0,0,0-29.947-29.947Z" fill="#e57200"/><rect x="188.401" y="143.598" width="29.932" height="29.933" rx="1.428" fill="#ff8b00"/><path d="M202.637,173.531H190.009a1.451,1.451,0,0,1-1.451-1.45V158.9A16.265,16.265,0,0,0,202.637,173.531Z" fill="#e57200"/><rect x="141.16" y="141.065" width="35.661" height="35.661" rx="1.495" fill="url(#ak)"/><path d="M175.205,141.065a1.472,1.472,0,0,1,1.473,1.473v28.474a29.944,29.944,0,0,0-29.947-29.947Z" fill="#e57200"/><rect x="144.025" y="143.928" width="29.932" height="29.933" rx="1.428" fill="#ff8b00"/><path d="M158.261,173.862H145.633a1.451,1.451,0,0,1-1.451-1.451V159.225A16.267,16.267,0,0,0,158.261,173.862Z" fill="#e57200"/><rect x="52.802" y="140.871" width="35.661" height="35.661" rx="1.495" fill="url(#al)"/><path d="M86.847,140.871a1.473,1.473,0,0,1,1.473,1.473v28.474a29.944,29.944,0,0,0-29.947-29.947Z" fill="#e57200"/><rect x="55.667" y="143.735" width="29.932" height="29.933" rx="1.428" fill="#ff8b00"/><path d="M69.9,173.668H57.275a1.451,1.451,0,0,1-1.451-1.451V159.031A16.266,16.266,0,0,0,69.9,173.668Z" fill="#e57200"/><rect x="97.049" y="140.735" width="35.661" height="35.661" rx="1.495" fill="url(#am)"/><path d="M131.094,140.735a1.473,1.473,0,0,1,1.473,1.473v28.474a29.944,29.944,0,0,0-29.947-29.947Z" fill="#e57200"/><rect x="99.914" y="143.599" width="29.932" height="29.933" rx="1.428" fill="#ff8b00"/><path d="M114.15,173.532H101.522a1.451,1.451,0,0,1-1.451-1.451V158.9A16.267,16.267,0,0,0,114.15,173.532Z" fill="#e57200"/><rect x="141.16" y="52.8" width="35.661" height="35.661" rx="1.495" fill="url(#an)"/><path d="M175.205,52.8a1.472,1.472,0,0,1,1.473,1.473V82.747A29.944,29.944,0,0,0,146.731,52.8Z" fill="#e57200"/><rect x="144.025" y="55.663" width="29.932" height="29.933" rx="1.428" fill="#ff8b00"/><path d="M157.974,85.6H145.346a1.45,1.45,0,0,1-1.45-1.451V70.96A16.264,16.264,0,0,0,157.974,85.6Z" fill="#e57200"/><path d="M250.464,129.822v.014h-.33A2.6,2.6,0,0,0,250.464,129.822Z" fill="#e57200"/><path d="M41.352,129.736v.1h-1.79A14.757,14.757,0,0,0,41.352,129.736Z" fill="#e57200"/><path d="M71.858,218.33H57.679l-2.005-2V204.152A16.326,16.326,0,0,0,71.858,218.33Z" fill="#e57200"/><path d="M219.627,185.5a1.473,1.473,0,0,1,1.473,1.473v28.474A29.944,29.944,0,0,0,191.153,185.5Z" fill="#e57200"/><path d="M188.408,216.587V188.412h29.918v27.954c-.642.662-1.3,1.319-1.965,1.964h-26.21A1.743,1.743,0,0,1,188.408,216.587Z" fill="#ff8b00"/><path d="M202.539,218.294H189.911a1.451,1.451,0,0,1-1.451-1.451V203.657A16.267,16.267,0,0,0,202.539,218.294Z" fill="#e57200"/><path d="M176.951,27.507v16.27a21.622,21.622,0,0,0-15.6-20.766A115.473,115.473,0,0,1,176.951,27.507Z" fill="#e57200"/><path d="M176.936,44.207a4.129,4.129,0,0,0,.015-.43v.43Z" fill="#e57200"/><path d="M161.354,23.011c-1.26-.273-2.535-.516-3.824-.745A21.018,21.018,0,0,1,161.354,23.011Z" fill="#e57200"/><path d="M144.168,41.341V23.54a112.571,112.571,0,0,1,29.918,5.987V41.341Z" fill="#ff8b00"/><path d="M157.68,41.342H144.189V29.527a.258.258,0,0,1,.1-.029A13.5,13.5,0,0,0,157.68,41.342Z" fill="#e57200"/><path d="M132.71,20.533V41.227a20.691,20.691,0,0,0-13.534-19.42A113.942,113.942,0,0,1,132.71,20.533Z" fill="#e57200"/><path d="M99.914,41.341V29.529a112.722,112.722,0,0,1,29.932-5.989v17.8Z" fill="#ff8b00"/><path d="M113.405,41.342H99.914V29.527a.249.249,0,0,1,.1-.029A13.5,13.5,0,0,0,113.405,41.342Z" fill="#e57200"/><path d="M176.951,229.788v16.7c-.015,0-.029.014-.044.014a17.8,17.8,0,0,0-17.773-16.713Z" fill="#e57200"/><path d="M132.71,229.788s-.143,21.024-.143,19.664A19.669,19.669,0,0,0,112.9,229.788Z" fill="#e57200"/><path d="M129.846,250.454a112.681,112.681,0,0,1-29.932-5.988V232.652h29.932Z" fill="#ff8b00"/><path d="M110.5,247.561c-3.566-.845-7.1-1.891-10.583-3.093V232.652h.1A18.462,18.462,0,0,0,110.5,247.561Z" fill="#e57200"/><path d="M144.168,232.652h29.918v11.815a112.492,112.492,0,0,1-29.918,5.987Z" fill="#ff8b00"/><path d="M157.029,248.908a110.629,110.629,0,0,1-12.861,1.546v-17.8h.2A20.674,20.674,0,0,0,157.029,248.908Z" fill="#e57200"/><path d="M221.19,57.053v19.22A25.381,25.381,0,0,0,197.545,52.8h19.392a1.477,1.477,0,0,1,.988.386q1.461,1.419,2.879,2.879A1.477,1.477,0,0,1,221.19,57.053Z" fill="#e57200"/><path d="M195.87,52.742c.558,0,1.116.015,1.675.058h-3.351C194.752,52.757,195.311,52.742,195.87,52.742Z" fill="#e57200"/><path d="M221.262,78.135c0,.63-.029,1.246-.072,1.862V76.273C221.233,76.889,221.262,77.505,221.262,78.135Z" fill="#e57200"/><path d="M188.408,84.173V57.087a1.424,1.424,0,0,1,1.423-1.424h25.94a1.445,1.445,0,0,1,1.011.411q.571.561,1.132,1.132a1.444,1.444,0,0,1,.412,1.012V84.173A1.423,1.423,0,0,1,216.9,85.6H189.831A1.423,1.423,0,0,1,188.408,84.173Z" fill="#ff8b00"/><path d="M202.479,85.6H189.852a1.45,1.45,0,0,1-1.451-1.451V70.96A16.264,16.264,0,0,0,202.479,85.6Z" fill="#e57200"/><path d="M44.216,97.054v17.6a19.951,19.951,0,0,0-16.8-17.372c.029-.072.057-.157.086-.229Z" fill="#e57200"/><path d="M44.019,141.294v17.6a19.951,19.951,0,0,0-16.8-17.372c.029-.072.057-.157.086-.229Z" fill="#e57200"/><path d="M44.36,117.033a18.629,18.629,0,0,1-.144,2.377v-4.755A18.656,18.656,0,0,1,44.36,117.033Z" fill="#e57200"/><path d="M23.535,129.837a112.571,112.571,0,0,1,5.988-29.919H41.352v29.919Z" fill="#ff8b00"/><path d="M39.562,129.836H23.536c.214-3.423.573-6.817,1.1-10.2A16.008,16.008,0,0,0,39.562,129.836Z" fill="#e57200"/><path d="M29.524,174.09a112.707,112.707,0,0,1-5.989-29.931H41.352V174.09Z" fill="#ff8b00"/><path d="M41.352,174.062v.028H29.523c-1.132-3.251-2.092-6.544-2.908-9.867A17.294,17.294,0,0,0,41.352,174.062Z" fill="#e57200"/><path d="M229.783,97.054h.158a.553.553,0,0,0-.158.014Z" fill="#e57200"/><path d="M250.378,109.872A20.691,20.691,0,0,0,232.49,97.054H246.5A117.327,117.327,0,0,1,250.378,109.872Z" fill="#e57200"/><path d="M231.216,97.011c.429,0,.859.014,1.274.043h-2.549C230.356,97.025,230.786,97.011,231.216,97.011Z" fill="#e57200"/><path d="M232.648,129.837V99.918h11.828a112.518,112.518,0,0,1,5.989,29.919Z" fill="#ff8b00"/><path d="M248,129.836H232.648V114.489A15.352,15.352,0,0,0,248,129.836Z" fill="#e57200"/><path d="M253.472,141.294a114.267,114.267,0,0,1-1.4,14.278,23.551,23.551,0,0,0-14.508-14.278Z" fill="#e57200"/><path d="M232.648,174.09V144.159h17.817a112.746,112.746,0,0,1-5.989,29.931Z" fill="#ff8b00"/><path d="M244.933,174.173H232.648V161.888A12.29,12.29,0,0,0,244.933,174.173Z" fill="#e57200"/></svg>