<svg xmlns="http://www.w3.org/2000/svg" xmlns:xlink="http://www.w3.org/1999/xlink" viewBox="0 0 285.987 279.4"><defs><linearGradient id="a" x1="42.469" y1="242.149" x2="243.522" y2="41.096" gradientUnits="userSpaceOnUse"><stop offset="0.026" stop-color="#ff8b00"/><stop offset="0.349" stop-color="#ff8b00"/><stop offset="0.557" stop-color="#ffad35"/><stop offset="0.756" stop-color="#ffc962"/><stop offset="0.91" stop-color="#ffdb7d"/><stop offset="1" stop-color="#ffe187"/></linearGradient><linearGradient id="b" x1="51.944" y1="233.404" x2="234.043" y2="51.306" gradientUnits="userSpaceOnUse"><stop offset="0" stop-color="#ffab15"/><stop offset="0.157" stop-color="#ffb939"/><stop offset="0.449" stop-color="#ffd175"/><stop offset="0.696" stop-color="#ffe2a2"/><stop offset="0.888" stop-color="#ffedbd"/><stop offset="1" stop-color="#fff1c7"/></linearGradient><linearGradient id="c" x1="209.308" y1="243.582" x2="210.164" y2="242.726" xlink:href="#b"/><linearGradient id="d" x1="192.64" y1="187.802" x2="227.514" y2="152.928" gradientUnits="userSpaceOnUse"><stop offset="0" stop-color="#ffc969"/><stop offset="0.25" stop-color="#ffc25f"/><stop offset="0.676" stop-color="#ffb044"/><stop offset="1" stop-color="#ff9f2b"/></linearGradient><linearGradient id="e" x1="148.15" y1="188.133" x2="183.025" y2="153.259" xlink:href="#d"/><linearGradient id="f" x1="59.566" y1="187.939" x2="94.44" y2="153.065" xlink:href="#d"/><linearGradient id="g" x1="103.926" y1="187.803" x2="138.8" y2="152.928" xlink:href="#d"/><linearGradient id="h" x1="190.293" y1="229.391" x2="225.165" y2="194.519" xlink:href="#d"/><linearGradient id="i" x1="148.15" y1="232.07" x2="183.025" y2="197.196" xlink:href="#d"/><linearGradient id="j" x1="63.772" y1="227.666" x2="94.439" y2="196.999" xlink:href="#d"/><linearGradient id="k" x1="103.926" y1="231.74" x2="138.8" y2="196.865" xlink:href="#d"/><linearGradient id="l" x1="192.03" y1="99.597" x2="226.904" y2="64.723" xlink:href="#d"/><linearGradient id="m" x1="147.54" y1="99.928" x2="182.414" y2="65.054" xlink:href="#d"/><linearGradient id="n" x1="58.955" y1="99.734" x2="93.83" y2="64.86" xlink:href="#d"/><linearGradient id="o" x1="103.316" y1="99.598" x2="138.19" y2="64.724" xlink:href="#d"/><linearGradient id="p" x1="192.03" y1="143.534" x2="226.904" y2="108.66" xlink:href="#d"/><linearGradient id="q" x1="233.063" y1="182.877" x2="261.188" y2="154.752" xlink:href="#d"/><linearGradient id="r" x1="235.058" y1="204.777" x2="244.8" y2="195.035" xlink:href="#d"/><linearGradient id="s" x1="231.841" y1="94.068" x2="248.12" y2="77.789" xlink:href="#d"/><linearGradient id="t" x1="233.666" y1="139.823" x2="257.041" y2="116.448" xlink:href="#d"/><linearGradient id="u" x1="147.54" y1="143.865" x2="182.414" y2="108.991" xlink:href="#d"/><linearGradient id="v" x1="58.955" y1="143.671" x2="93.83" y2="108.797" xlink:href="#d"/><linearGradient id="w" x1="26.86" y1="181.861" x2="52.737" y2="155.983" xlink:href="#d"/><linearGradient id="x" x1="44.425" y1="203.712" x2="50.48" y2="197.657" xlink:href="#d"/><linearGradient id="y" x1="189.027" y1="255.19" x2="207.553" y2="236.663" xlink:href="#d"/><linearGradient id="z" x1="152.443" y1="263.091" x2="178.739" y2="236.794" xlink:href="#d"/><linearGradient id="aa" x1="82.622" y1="251.668" x2="93.923" y2="240.368" xlink:href="#d"/><linearGradient id="ab" x1="108.137" y1="263.006" x2="134.599" y2="236.545" xlink:href="#d"/><linearGradient id="ac" x1="30.751" y1="97.383" x2="30.934" y2="97.2" xlink:href="#d"/><linearGradient id="ad" x1="35.569" y1="96.729" x2="57.168" y2="75.131" xlink:href="#d"/><linearGradient id="ae" x1="194.743" y1="58.433" x2="204.791" y2="48.385" xlink:href="#d"/><linearGradient id="af" x1="148.303" y1="56.8" x2="173.056" y2="32.047" xlink:href="#d"/><linearGradient id="ag" x1="91.316" y1="37.937" x2="91.448" y2="37.805" xlink:href="#d"/><linearGradient id="ah" x1="78.213" y1="61.346" x2="93.85" y2="45.708" xlink:href="#d"/><linearGradient id="ai" x1="121.337" y1="23.313" x2="121.417" y2="23.232" xlink:href="#d"/><linearGradient id="aj" x1="109.983" y1="44.834" x2="134.235" y2="20.583" xlink:href="#d"/><linearGradient id="ak" x1="27.036" y1="142.157" x2="54.802" y2="114.392" xlink:href="#d"/><linearGradient id="al" x1="103.316" y1="143.535" x2="138.19" y2="108.661" xlink:href="#d"/><linearGradient id="am" x1="208.905" y1="242.902" x2="210.617" y2="242.902" xlink:href="#b"/></defs><path d="M137.91,1.161,32.64,51.856A11.723,11.723,0,0,0,26.3,59.809L.3,173.72a11.722,11.722,0,0,0,2.263,9.917l72.849,91.35a11.721,11.721,0,0,0,9.165,4.413h116.84a11.723,11.723,0,0,0,9.165-4.413l72.849-91.35a11.722,11.722,0,0,0,2.263-9.917l-26-113.911a11.723,11.723,0,0,0-6.342-7.953L148.082,1.161A11.721,11.721,0,0,0,137.91,1.161Z" fill="url(#a)"/><path d="M213.183,271.721l-2.6,3.262a11.74,11.74,0,0,1-9.167,4.411H84.581a11.721,11.721,0,0,1-9.168-4.411L2.562,183.639a11.721,11.721,0,0,1-2.27-9.914L13.238,117c17.272,88.369,95.123,155.056,188.536,155.056C205.611,272.052,209.4,271.937,213.183,271.721Z" fill="#e57200"/><path d="M272.246,171.427l-1.814-7.942-1.858-8.12-.658-2.881-1.931-8.514-.658-2.867-6.393-28-.468-2.019-.644-2.867-1.872-8.177-.658-2.883-6.6-28.9a8.541,8.541,0,0,0-.322-1.1,9.311,9.311,0,0,0-.892-1.945c-.117-.2-.249-.41-.38-.6a2.456,2.456,0,0,0-.234-.322c-.132-.176-.263-.336-.4-.5a5.313,5.313,0,0,0-.483-.541l-.263-.264a7.516,7.516,0,0,0-.615-.556,1.761,1.761,0,0,0-.16-.132c-.278-.219-.571-.423-.878-.628a9.291,9.291,0,0,0-1.127-.63l-15.608-7.519-2.9-1.389L194.467,37.7l-2.881-1.39-8.733-4.2-.147-.073-2.721-1.317-11.732-5.646-3.071-1.478-1.99-.965-.058-.029-3.906-1.873-11.63-5.6a10.607,10.607,0,0,0-9.215,0l-10.972,5.281-5.953,2.867-.073.044-15.638,7.519-2.867,1.39-8.616,4.14-.132.073L91.4,37.754l-.1.044L67.011,49.5l-5.456,2.619-.146.074-2.9,1.389-15.476,7.46c-.351.176-.7.366-1.039.571l-.132.088c-.263.176-.527.366-.775.556a.79.79,0,0,0-.117.087c-.293.249-.571.5-.834.761a9.269,9.269,0,0,0-.717.79c-.131.176-.263.351-.395.527-.014.015-.014.029-.029.044-.146.2-.278.409-.409.628a5.377,5.377,0,0,0-.395.7,3.93,3.93,0,0,0-.264.57,3.745,3.745,0,0,0-.146.352c-.073.19-.146.38-.2.57a7.249,7.249,0,0,0-.278.965L36.906,70v.015L30.675,97.247v.059l-.659,2.867-1.872,8.192-.278,1.2-.38,1.667-5.793,25.424-1.053,4.579-.659,2.881-1.945,8.514L14.51,168.092l-.76,3.335a10.9,10.9,0,0,0-.264,2.385c0,.292.015.585.044.877.015.264.044.542.088.82a10.849,10.849,0,0,0,.658,2.3c.073.19.147.365.234.54a6.775,6.775,0,0,0,.381.732c.1.176.2.337.307.5a8.515,8.515,0,0,0,.6.833l1.58,1.975.16.205,2.326,2.911,2.3,2.882,6.524,8.177,1.346,1.7.951,1.184L47.4,220.023l2.516,3.16.2.248.147.19,13.414,16.823,2.3,2.881,15.813,19.822a10.569,10.569,0,0,0,8.294,3.993H195.916a10.96,10.96,0,0,0,1.2-.073,1.231,1.231,0,0,0,.322-.044c.117-.014.249-.029.38-.058.2-.03.41-.088.615-.132a10.185,10.185,0,0,0,2.428-.921,5.394,5.394,0,0,0,.629-.352,10.3,10.3,0,0,0,.922-.628,10.856,10.856,0,0,0,1.2-1.1,8.949,8.949,0,0,0,.6-.688l12.712-15.931,3.218-4.037,2.282-2.867,15.126-18.958,2.867-3.6.161-.205.409-.513L255.131,199.3l.219-.278,2.077-2.59,6.525-8.192,2.3-2.867,3.95-4.959a2.586,2.586,0,0,0,.234-.321,9.866,9.866,0,0,0,1.1-1.844,5.583,5.583,0,0,0,.263-.614q.089-.242.176-.483a3.952,3.952,0,0,0,.175-.6,11.134,11.134,0,0,0,.308-1.7v-.015a1.486,1.486,0,0,0,.014-.249,5.914,5.914,0,0,0,.044-.716A9.848,9.848,0,0,0,272.246,171.427Zm-63.341,71.752.454-.555c.424.175.848.365,1.258.555Z" fill="url(#b)"/><path d="M210.617,243.179h-1.712l.454-.555C209.783,242.8,210.207,242.989,210.617,243.179Z" fill="url(#c)"/><rect x="192.201" y="152.489" width="35.752" height="35.752" rx="1.499" fill="url(#d)"/><path d="M226.62,152.489a1.477,1.477,0,0,1,1.477,1.477v28.547a30.021,30.021,0,0,0-30.024-30.024Z" fill="#e57200"/><rect x="195.073" y="155.36" width="30.009" height="30.01" rx="1.431" fill="#ff8b00"/><path d="M209.345,185.37h-12.66a1.456,1.456,0,0,1-1.455-1.455V170.7A16.31,16.31,0,0,0,209.345,185.37Z" fill="#e57200"/><rect x="147.711" y="152.82" width="35.752" height="35.752" rx="1.499" fill="url(#e)"/><path d="M181.843,152.82a1.477,1.477,0,0,1,1.477,1.477v28.547A30.021,30.021,0,0,0,153.3,152.82Z" fill="#e57200"/><rect x="150.583" y="155.691" width="30.009" height="30.01" rx="1.431" fill="#ff8b00"/><path d="M164.855,185.7H152.2a1.455,1.455,0,0,1-1.454-1.455V171.027A16.308,16.308,0,0,0,164.855,185.7Z" fill="#e57200"/><rect x="59.127" y="152.626" width="35.752" height="35.752" rx="1.499" fill="url(#f)"/><path d="M93.259,152.626a1.477,1.477,0,0,1,1.477,1.477V182.65a30.021,30.021,0,0,0-30.024-30.024Z" fill="#e57200"/><rect x="61.998" y="155.497" width="30.009" height="30.01" rx="1.431" fill="#ff8b00"/><path d="M76.27,185.506H63.61a1.454,1.454,0,0,1-1.454-1.454V170.833A16.306,16.306,0,0,0,76.27,185.506Z" fill="#e57200"/><rect x="103.487" y="152.489" width="35.752" height="35.752" rx="1.499" fill="url(#g)"/><path d="M137.619,152.489a1.477,1.477,0,0,1,1.477,1.477v28.547a30.021,30.021,0,0,0-30.024-30.024Z" fill="#e57200"/><rect x="106.359" y="155.36" width="30.009" height="30.01" rx="1.431" fill="#ff8b00"/><path d="M120.631,185.37h-12.66a1.454,1.454,0,0,1-1.454-1.454V170.7A16.307,16.307,0,0,0,120.631,185.37Z" fill="#e57200"/><path d="M227.951,197.92v21.386l-.146.19-.644.79-2.077,2.618-5.119,6.408-2.283,2.867H193.707a1.5,1.5,0,0,1-1.507-1.507V197.92a1.5,1.5,0,0,1,1.507-1.493h32.752A1.5,1.5,0,0,1,227.951,197.92Z" fill="url(#h)"/><path d="M227.805,197.905V219.5l-.644.79a29.163,29.163,0,0,0-2.077-6.334,29.963,29.963,0,0,0-27.3-17.525h28.54A1.473,1.473,0,0,1,227.805,197.905Z" fill="#e57200"/><path d="M225.084,200.728V222.9l-5.119,6.408H196.5a1.437,1.437,0,0,1-1.434-1.434v-27.15A1.436,1.436,0,0,1,196.5,199.3h27.15A1.435,1.435,0,0,1,225.084,200.728Z" fill="#ff8b00"/><path d="M209.345,229.307h-12.66a1.456,1.456,0,0,1-1.455-1.455V214.633A16.31,16.31,0,0,0,209.345,229.307Z" fill="#e57200"/><rect x="147.711" y="196.757" width="35.752" height="35.752" rx="1.499" fill="url(#i)"/><path d="M181.843,196.757a1.477,1.477,0,0,1,1.477,1.477v28.547A30.021,30.021,0,0,0,153.3,196.757Z" fill="#e57200"/><rect x="150.583" y="199.628" width="30.009" height="30.01" rx="1.431" fill="#ff8b00"/><path d="M164.855,229.638H152.2a1.455,1.455,0,0,1-1.454-1.455V214.964A16.308,16.308,0,0,0,164.855,229.638Z" fill="#e57200"/><path d="M94.878,198.066v32.752a1.5,1.5,0,0,1-1.492,1.492H68.415l-2.281-2.867-3.979-4.988-.161-.19-2.867-3.6v-22.6a1.5,1.5,0,0,1,1.492-1.507H93.386A1.5,1.5,0,0,1,94.878,198.066Z" fill="url(#j)"/><path d="M93.259,196.563a1.477,1.477,0,0,1,1.477,1.477v28.546a30.02,30.02,0,0,0-30.024-30.023Z" fill="#e57200"/><path d="M92.011,200.86v27.15a1.436,1.436,0,0,1-1.434,1.433H66.134l-3.979-4.988-.161-.19v-23.4a1.424,1.424,0,0,1,1.433-1.42h27.15A1.425,1.425,0,0,1,92.011,200.86Z" fill="#ff8b00"/><path d="M76.271,229.443H66.134l-3.979-4.988v-9.684A16.316,16.316,0,0,0,76.271,229.443Z" fill="#e57200"/><rect x="103.487" y="196.426" width="35.752" height="35.752" rx="1.499" fill="url(#k)"/><path d="M137.619,196.426A1.477,1.477,0,0,1,139.1,197.9V226.45a30.021,30.021,0,0,0-30.024-30.024Z" fill="#e57200"/><rect x="106.359" y="199.297" width="30.009" height="30.01" rx="1.431" fill="#ff8b00"/><path d="M120.631,229.307h-12.66a1.454,1.454,0,0,1-1.454-1.455V214.633A16.307,16.307,0,0,0,120.631,229.307Z" fill="#e57200"/><rect x="191.591" y="64.284" width="35.752" height="35.752" rx="1.499" fill="url(#l)"/><path d="M226.01,64.284a1.477,1.477,0,0,1,1.477,1.477V94.308a30.021,30.021,0,0,0-30.024-30.024Z" fill="#e57200"/><rect x="194.462" y="67.155" width="30.009" height="30.01" rx="1.431" fill="#ff8b00"/><path d="M208.735,97.165h-12.66a1.454,1.454,0,0,1-1.455-1.455V82.491A16.308,16.308,0,0,0,208.735,97.165Z" fill="#e57200"/><rect x="147.101" y="64.615" width="35.752" height="35.752" rx="1.499" fill="url(#m)"/><path d="M181.233,64.615a1.477,1.477,0,0,1,1.477,1.477V94.639a30.021,30.021,0,0,0-30.024-30.024Z" fill="#e57200"/><rect x="149.973" y="67.486" width="30.009" height="30.01" rx="1.431" fill="#ff8b00"/><path d="M164.245,97.5h-12.66a1.455,1.455,0,0,1-1.455-1.455V82.822A16.309,16.309,0,0,0,164.245,97.5Z" fill="#e57200"/><rect x="58.516" y="64.421" width="35.752" height="35.752" rx="1.499" fill="url(#n)"/><path d="M92.648,64.421A1.477,1.477,0,0,1,94.125,65.9V94.445A30.021,30.021,0,0,0,64.1,64.421Z" fill="#e57200"/><rect x="61.388" y="67.292" width="30.009" height="30.01" rx="1.431" fill="#ff8b00"/><path d="M75.66,97.3H63a1.455,1.455,0,0,1-1.454-1.455V82.628A16.308,16.308,0,0,0,75.66,97.3Z" fill="#e57200"/><rect x="102.877" y="64.284" width="35.752" height="35.752" rx="1.499" fill="url(#o)"/><path d="M137.009,64.284a1.477,1.477,0,0,1,1.477,1.477V94.308a30.021,30.021,0,0,0-30.024-30.024Z" fill="#e57200"/><rect x="105.749" y="67.155" width="30.009" height="30.01" rx="1.431" fill="#ff8b00"/><path d="M120.021,97.165h-12.66a1.454,1.454,0,0,1-1.455-1.454V82.491A16.307,16.307,0,0,0,120.021,97.165Z" fill="#e57200"/><rect x="191.591" y="108.221" width="35.752" height="35.752" rx="1.499" fill="url(#p)"/><path d="M225.723,108.221A1.477,1.477,0,0,1,227.2,109.7v28.547a30.021,30.021,0,0,0-30.024-30.024Z" fill="#e57200"/><rect x="194.462" y="111.092" width="30.009" height="30.01" rx="1.431" fill="#ff8b00"/><path d="M208.735,141.1h-12.66a1.454,1.454,0,0,1-1.455-1.455V126.428A16.308,16.308,0,0,0,208.735,141.1Z" fill="#e57200"/><path d="M263.337,174.938l-8.323,10.43-2.282,2.867H239.054a1.492,1.492,0,0,1-1.506-1.492V153.99a1.5,1.5,0,0,1,1.506-1.506H258.92l.658,2.881.5,2.165,3.613,15.843A1.819,1.819,0,0,1,263.337,174.938Z" fill="url(#q)"/><path d="M260.075,157.53a28.553,28.553,0,0,0-3.789-2.165,30.071,30.071,0,0,0-12.858-2.881H258.92l.658,2.881Z" fill="#e57200"/><path d="M263.688,173.373a1.819,1.819,0,0,1-.351,1.565l-8.323,10.43H241.848a1.435,1.435,0,0,1-1.433-1.433v-27.15a1.424,1.424,0,0,1,1.433-1.42h17.73l.5,2.165Z" fill="#ff8b00"/><path d="M254.693,185.37h-12.66a1.455,1.455,0,0,1-1.455-1.455V170.7A16.308,16.308,0,0,0,254.693,185.37Z" fill="#e57200"/><path d="M246.193,196.427l-.117.146-2.165,2.722-3.5,4.388-2.867,3.584V197.92a1.5,1.5,0,0,1,1.506-1.493Z" fill="url(#r)"/><path d="M246.193,196.427l-.117.146a27.989,27.989,0,0,0-2.94-.146Z" fill="#e57200"/><path d="M243.911,199.3l-3.5,4.388v-2.955a1.435,1.435,0,0,1,1.433-1.433Z" fill="#ff8b00"/><path d="M246.954,100.042H238.44a1.5,1.5,0,0,1-1.507-1.507V67.889l2.209,1.067a1.805,1.805,0,0,1,.673.556,1.753,1.753,0,0,1,.322.688l5.251,22.981.907,3.978Z" fill="url(#s)"/><path d="M246.3,97.159h-5.046a1.414,1.414,0,0,1-1.434-1.418V69.512a1.753,1.753,0,0,1,.322.688l5.251,22.981Z" fill="#ff8b00"/><path d="M246.3,97.159h-4.871a1.455,1.455,0,0,1-1.463-1.447V82.488a16.288,16.288,0,0,0,5.427,10.693Z" fill="#e57200"/><path d="M256.974,143.97H238.44a1.5,1.5,0,0,1-1.507-1.491V109.726a1.5,1.5,0,0,1,1.507-1.507h10.371l.161.7.5,2.165,6.846,30.017Z" fill="url(#t)"/><path d="M248.972,108.921a29.358,29.358,0,0,0-6.451-.7h6.29Z" fill="#e57200"/><path d="M249.47,111.086l6.846,30.017H241.249a1.427,1.427,0,0,1-1.434-1.434v-27.15a1.426,1.426,0,0,1,1.434-1.433Z" fill="#ff8b00"/><path d="M254.082,141.1h-12.66a1.454,1.454,0,0,1-1.454-1.455V126.428A16.307,16.307,0,0,0,254.082,141.1Z" fill="#e57200"/><rect x="147.101" y="108.552" width="35.752" height="35.752" rx="1.499" fill="url(#u)"/><path d="M181.233,108.552a1.477,1.477,0,0,1,1.477,1.477v28.547a30.021,30.021,0,0,0-30.024-30.024Z" fill="#e57200"/><rect x="149.973" y="111.423" width="30.009" height="30.01" rx="1.431" fill="#ff8b00"/><path d="M164.245,141.433h-12.66a1.455,1.455,0,0,1-1.455-1.455V126.759A16.31,16.31,0,0,0,164.245,141.433Z" fill="#e57200"/><rect x="58.516" y="108.358" width="35.752" height="35.752" rx="1.499" fill="url(#v)"/><path d="M92.648,108.358a1.477,1.477,0,0,1,1.477,1.477v28.547A30.021,30.021,0,0,0,64.1,108.358Z" fill="#e57200"/><rect x="61.388" y="111.229" width="30.009" height="30.01" rx="1.431" fill="#ff8b00"/><path d="M75.66,141.239H63a1.455,1.455,0,0,1-1.454-1.455V126.565A16.308,16.308,0,0,0,75.66,141.239Z" fill="#e57200"/><path d="M50.262,154.123v32.752a1.5,1.5,0,0,1-1.492,1.507H33.381l-2.3-2.882-.073-.088-8.353-10.474a1.822,1.822,0,0,1-.351-1.565L26.388,155.5l.483-2.093.176-.775H48.77A1.5,1.5,0,0,1,50.262,154.123Z" fill="url(#w)"/><path d="M50.115,154.108v28.54a30.014,30.014,0,0,0-17.2-27.15,29.473,29.473,0,0,0-6.042-2.093l.176-.775H48.638A1.473,1.473,0,0,1,50.115,154.108Z" fill="#e57200"/><path d="M47.4,156.931v27.15a1.424,1.424,0,0,1-1.434,1.419H31.084l-.073-.088-8.353-10.474a1.822,1.822,0,0,1-.351-1.565L26.388,155.5H45.961A1.436,1.436,0,0,1,47.4,156.931Z" fill="#ff8b00"/><path d="M31.655,185.5h-.571l-.073-.088C31.23,185.441,31.435,185.471,31.655,185.5Z" fill="#e57200"/><path d="M50.262,198.066v11.483l-.147-.19L47.4,205.95,42.2,199.44l-2.3-2.881H48.77A1.5,1.5,0,0,1,50.262,198.066Z" fill="url(#x)"/><path d="M50.115,198.036v11.323L47.4,205.95,42.2,199.44l-2.3-2.881h8.733A1.473,1.473,0,0,1,50.115,198.036Z" fill="#e57200"/><path d="M47.4,200.86v5.09L42.2,199.44h3.759A1.425,1.425,0,0,1,47.4,200.86Z" fill="#ff8b00"/><path d="M209.359,242.624c.424.175.848.365,1.258.555h-1.712l-11.556,14.5a1.83,1.83,0,0,1-1.433.687H192.2V241.8a1.5,1.5,0,0,1,1.507-1.492h17.5Z" fill="url(#y)"/><path d="M211.2,240.312l-1.843,2.312a29.848,29.848,0,0,0-11.571-2.312Z" fill="#e57200"/><path d="M196.5,243.179h12.4l-11.556,14.5a1.83,1.83,0,0,1-1.433.687h-.849v-13.75A1.437,1.437,0,0,1,196.5,243.179Z" fill="#ff8b00"/><path d="M183.467,242.141v16.222H147.715V242.141a1.489,1.489,0,0,1,1.493-1.492H181.96A1.492,1.492,0,0,1,183.467,242.141Z" fill="url(#z)"/><path d="M183.321,242.112v16.251h-2.634c-.029-.087-.073-.16-.1-.234a30.143,30.143,0,0,0-14.467-14.613,29.791,29.791,0,0,0-12.815-2.867h28.54A1.471,1.471,0,0,1,183.321,242.112Z" fill="#e57200"/><path d="M180.585,244.949v13.414h-30V244.949a1.435,1.435,0,0,1,1.433-1.433h27.15A1.423,1.423,0,0,1,180.585,244.949Z" fill="#ff8b00"/><path d="M94.878,241.951v16.412h-4.8a1.832,1.832,0,0,1-1.434-.687L77.207,243.325l-.2-.248L74.9,240.444h18.49A1.5,1.5,0,0,1,94.878,241.951Z" fill="url(#aa)"/><path d="M94.732,241.921v16.442H92.186c-.058-.131-.117-.263-.175-.38a30.148,30.148,0,0,0-14.453-14.658c-.175-.087-.366-.175-.556-.248L74.9,240.444H93.254A1.474,1.474,0,0,1,94.732,241.921Z" fill="#e57200"/><path d="M92.011,244.744v13.619H90.08a1.832,1.832,0,0,1-1.434-.687L77.207,243.325h13.37A1.424,1.424,0,0,1,92.011,244.744Z" fill="#ff8b00"/><path d="M139.246,241.8v16.559H103.494V241.8a1.489,1.489,0,0,1,1.492-1.492h32.753A1.5,1.5,0,0,1,139.246,241.8Z" fill="url(#ab)"/><path d="M139.1,241.789v16.574h-2.486c-.074-.19-.161-.38-.249-.57a30.008,30.008,0,0,0-27.3-17.481h28.555A1.473,1.473,0,0,1,139.1,241.789Z" fill="#e57200"/><path d="M136.364,244.613v13.75h-30v-13.75a1.437,1.437,0,0,1,1.434-1.434H134.93A1.437,1.437,0,0,1,136.364,244.613Z" fill="#ff8b00"/><path d="M30.675,97.247a2.888,2.888,0,0,0,.365.059h-.365Z" fill="url(#ac)"/><path d="M49.647,67.611v31.07a1.5,1.5,0,0,1-1.492,1.492H39.013l.658-2.867,4.535-19.895L45.859,70.2A1.748,1.748,0,0,1,46.78,69a.377.377,0,0,1,.073-.044l2.663-1.287Z" fill="url(#ad)"/><path d="M49.516,67.669v26.77A29.9,29.9,0,0,0,46.78,81.9a28.327,28.327,0,0,0-2.574-4.492L45.859,70.2A1.748,1.748,0,0,1,46.78,69a.377.377,0,0,1,.073-.044Z" fill="#e57200"/><path d="M30.675,97.247a2.888,2.888,0,0,0,.365.059h-.365Z" fill="#ff8b00"/><path d="M46.78,69V95.872a1.436,1.436,0,0,1-1.433,1.434H39.671l4.535-19.895L45.859,70.2A1.748,1.748,0,0,1,46.78,69Z" fill="#ff8b00"/><path d="M31.04,97.306h-.365v-.059A2.888,2.888,0,0,0,31.04,97.306Z" fill="#e57200"/><path d="M212.563,56.157H193.092a1.5,1.5,0,0,1-1.506-1.507v-8.6l2.881,1.39.147.073,11.966,5.764Z" fill="url(#ae)"/><path d="M206.58,53.275H195.9a1.414,1.414,0,0,1-1.434-1.419V47.438l.147.073Z" fill="#ff8b00"/><path d="M206.58,53.275h-10.5a1.454,1.454,0,0,1-1.462-1.448V47.511Z" fill="#e57200"/><path d="M181.073,40.982l1.634.8.153.068V54.993a1.5,1.5,0,0,1-1.5,1.482H148.59a1.482,1.482,0,0,1-1.481-1.482V24.639L149.969,26l30.014,14.454Z" fill="url(#af)"/><path d="M182.706,41.777v8.982a29.589,29.589,0,0,0-1.638-9.772Z" fill="#e57200"/><path d="M179.985,40.461V52.178a1.436,1.436,0,0,1-1.433,1.434H151.4a1.437,1.437,0,0,1-1.434-1.434V26.008Z" fill="#ff8b00"/><path d="M164.245,53.611h-12.66a1.455,1.455,0,0,1-1.455-1.455V38.937A16.309,16.309,0,0,0,164.245,53.611Z" fill="#e57200"/><path d="M91.4,38.018c-.03-.074-.073-.147-.1-.22l.1-.044Z" fill="url(#ag)"/><path d="M94.264,46.122V54.8a1.5,1.5,0,0,1-1.492,1.492H73.155l5.954-2.867L91.4,47.511l2.428-1.17.307-.146Z" fill="url(#ah)"/><path d="M91.294,37.8l.1-.044v.264C91.367,37.944,91.324,37.871,91.294,37.8Z" fill="#e57200"/><path d="M94.132,46.2v4.359a28.531,28.531,0,0,0-.307-4.213Z" fill="#e57200"/><path d="M91.4,37.754v.264c-.03-.074-.073-.147-.1-.22Z" fill="#ff8b00"/><path d="M79.109,53.421,91.4,47.511v4.477a1.436,1.436,0,0,1-1.434,1.433Z" fill="#ff8b00"/><path d="M121.385,23.316c-.03-.014-.059-.029-.088-.044h.161Z" fill="url(#ai)"/><polygon points="138.478 24.826 135.771 26.137 129.608 29.117 105.74 40.591 138.478 24.826" fill="url(#aj)"/><path d="M121.3,23.272h.161l-.073.044C121.355,23.3,121.326,23.287,121.3,23.272Z" fill="#e57200"/><path d="M138.485,24.823v25.6a30,30,0,0,0-8.879-21.314l6.158-2.97Z" fill="#e57200"/><path d="M121.385,23.316c-.03-.014-.059-.029-.088-.044h.161Z" fill="#ff8b00"/><path d="M135.764,26.139V51.856a1.423,1.423,0,0,1-1.433,1.419H107.18a1.424,1.424,0,0,1-1.433-1.419V40.592l23.859-11.483Z" fill="#ff8b00"/><path d="M36.5,111.225l.63-2.86H48.164a1.486,1.486,0,0,1,1.481,1.5v32.754a1.486,1.486,0,0,1-1.481,1.5H29l.664-2.878.034-.221,6.316-27.7Z" fill="url(#ak)"/><path d="M36.5,111.225l.63-2.86H48.045a1.475,1.475,0,0,1,1.464,1.464v28.549a29.881,29.881,0,0,0-2.724-12.529,30.183,30.183,0,0,0-10.776-12.53Z" fill="#e57200"/><path d="M36.009,113.319l-6.316,27.7-.034.221h15.7a1.438,1.438,0,0,0,1.43-1.43V112.672a1.442,1.442,0,0,0-1.43-1.447H36.5Z" fill="#ff8b00"/><path d="M31.04,141.235H29.651l.043-.219C30.133,141.1,30.587,141.176,31.04,141.235Z" fill="#e57200"/><rect x="102.877" y="108.221" width="35.752" height="35.752" rx="1.499" fill="url(#al)"/><path d="M137.009,108.221a1.477,1.477,0,0,1,1.477,1.477v28.547a30.021,30.021,0,0,0-30.024-30.024Z" fill="#e57200"/><rect x="105.749" y="111.092" width="30.009" height="30.01" rx="1.431" fill="#ff8b00"/><path d="M120.021,141.1h-12.66a1.454,1.454,0,0,1-1.455-1.454v-13.22A16.307,16.307,0,0,0,120.021,141.1Z" fill="#e57200"/><path d="M36.5,111.225l-.493,2.094m173.358,129.3-.46.562h1.7C210.2,242.993,209.776,242.806,209.367,242.618Zm0,0-.46.562h1.7C210.2,242.993,209.776,242.806,209.367,242.618Zm0,0-.46.562h1.7C210.2,242.993,209.776,242.806,209.367,242.618Zm0,0-.46.562h1.7C210.2,242.993,209.776,242.806,209.367,242.618Zm0,0-.46.562h1.7C210.2,242.993,209.776,242.806,209.367,242.618Zm0,0-.46.562h1.7C210.2,242.993,209.776,242.806,209.367,242.618Zm0,0-.46.562h1.7C210.2,242.993,209.776,242.806,209.367,242.618Zm0,0-.46.562h1.7C210.2,242.993,209.776,242.806,209.367,242.618Zm0,0-.46.562h1.7C210.2,242.993,209.776,242.806,209.367,242.618Zm0,0-.46.562h1.7C210.2,242.993,209.776,242.806,209.367,242.618ZM30.68,97.248V97.3h.358A1.3,1.3,0,0,1,30.68,97.248Zm178.687,145.37-.46.562h1.7C210.2,242.993,209.776,242.806,209.367,242.618Zm0,0-.46.562h1.7C210.2,242.993,209.776,242.806,209.367,242.618Zm0,0-.46.562h1.7C210.2,242.993,209.776,242.806,209.367,242.618Zm0,0-.46.562h1.7C210.2,242.993,209.776,242.806,209.367,242.618Zm0,0-.46.562h1.7C210.2,242.993,209.776,242.806,209.367,242.618Zm0,0-.46.562h1.7C210.2,242.993,209.776,242.806,209.367,242.618Zm0,0-.46.562h1.7C210.2,242.993,209.776,242.806,209.367,242.618Zm0,0-.46.562h1.7C210.2,242.993,209.776,242.806,209.367,242.618Zm0,0-.46.562h1.7C210.2,242.993,209.776,242.806,209.367,242.618Zm0,0-.46.562h1.7C210.2,242.993,209.776,242.806,209.367,242.618Zm0,0-.46.562h1.7C210.2,242.993,209.776,242.806,209.367,242.618Zm0,0-.46.562h1.7C210.2,242.993,209.776,242.806,209.367,242.618Zm0,0-.46.562h1.7C210.2,242.993,209.776,242.806,209.367,242.618ZM181.073,40.982l-1.09-.527m1.09.527-1.09-.527m1.09.527-1.09-.527m1.09.527-1.09-.527m1.09.527-1.09-.527m1.09.527-1.09-.527m1.09.527-1.09-.527m1.09.527-1.09-.527m1.09.527-1.09-.527m1.09.527-1.09-.527m1.09.527-1.09-.527m1.09.527-1.09-.527m1.09.527-1.09-.527m1.09.527-1.09-.527m1.09.527-1.09-.527m1.09.527-1.09-.527m1.09.527-1.09-.527m1.09.527-1.09-.527m1.09.527-1.09-.527m1.09.527-1.09-.527m1.09.527-1.09-.527m1.09.527-1.09-.527m1.09.527-1.09-.527" fill="none"/><path d="M209.359,242.624l-.454.555h1.712C210.207,242.989,209.783,242.8,209.359,242.624Zm0,0-.454.555h1.712C210.207,242.989,209.783,242.8,209.359,242.624Zm0,0-.454.555h1.712C210.207,242.989,209.783,242.8,209.359,242.624Zm0,0-.454.555h1.712C210.207,242.989,209.783,242.8,209.359,242.624Zm0,0-.454.555h1.712C210.207,242.989,209.783,242.8,209.359,242.624Zm0,0-.454.555h1.712C210.207,242.989,209.783,242.8,209.359,242.624Zm0,0-.454.555h1.712C210.207,242.989,209.783,242.8,209.359,242.624Zm0,0-.454.555h1.712C210.207,242.989,209.783,242.8,209.359,242.624Zm0,0-.454.555h1.712C210.207,242.989,209.783,242.8,209.359,242.624Zm0,0-.454.555h1.712C210.207,242.989,209.783,242.8,209.359,242.624Zm0,0-.454.555h1.712C210.207,242.989,209.783,242.8,209.359,242.624Zm0,0-.454.555h1.712C210.207,242.989,209.783,242.8,209.359,242.624Zm0,0-.454.555h1.712C210.207,242.989,209.783,242.8,209.359,242.624Zm0,0-.454.555h1.712C210.207,242.989,209.783,242.8,209.359,242.624Zm0,0-.454.555h1.712C210.207,242.989,209.783,242.8,209.359,242.624Zm0,0-.454.555h1.712C210.207,242.989,209.783,242.8,209.359,242.624Zm0,0-.454.555h1.712C210.207,242.989,209.783,242.8,209.359,242.624Zm0,0-.454.555h1.712C210.207,242.989,209.783,242.8,209.359,242.624Zm0,0-.454.555h1.712C210.207,242.989,209.783,242.8,209.359,242.624Zm0,0-.454.555h1.712C210.207,242.989,209.783,242.8,209.359,242.624Zm0,0-.454.555h1.712C210.207,242.989,209.783,242.8,209.359,242.624Zm0,0-.454.555h1.712C210.207,242.989,209.783,242.8,209.359,242.624Z" fill="url(#am)"/></svg>